{"glyphs":{"0":{"ha":704,"x_min":56,"x_max":649,"o":"m 649 281 q 609 130 649 199 q 502 20 569 61 q 353 -21 435 -21 q 203 21 271 -21 q 96 131 136 63 q 56 282 56 200 q 96 430 56 364 q 203 535 136 496 q 351 574 271 574 q 501 535 433 574 q 608 429 568 496 q 649 281 649 363 m 164 286 q 186 163 164 221 q 250 71 208 106 q 349 36 292 36 q 488 97 435 36 q 540 267 540 157 q 492 446 540 375 q 360 517 443 517 q 260 487 304 517 q 190 405 215 457 q 164 286 164 353 z "},"1":{"ha":401,"x_min":35,"x_max":368,"o":"m 203 3 l 50 -4 q 35 14 35 -4 q 50 31 35 31 q 142 61 124 38 q 151 94 151 75 l 151 463 q 133 513 151 499 q 108 525 119 524 l 94 528 q 64 533 72 533 q 54 549 54 533 q 64 564 54 564 l 203 560 l 338 564 q 349 550 349 564 q 342 535 349 536 q 319 531 335 533 q 299 526 306 529 q 282 519 293 524 q 273 514 276 517 q 267 508 269 511 q 253 450 253 490 q 251 385 251 431 q 251 271 251 340 q 251 158 251 201 q 253 100 251 115 q 268 55 253 68 q 297 39 283 42 l 351 31 q 368 13 368 29 q 351 -4 368 -4 l 203 3 z "},"2":{"ha":586,"x_min":31,"x_max":572,"o":"m 517 1 q 504 -6 507 -6 q 481 -5 504 -6 q 414 -3 458 -4 q 333 -1 368 -1 q 275 0 299 0 q 167 -1 215 0 q 79 -3 118 -1 l 40 -4 q 31 7 31 -4 q 40 24 31 14 q 90 72 68 51 q 125 103 111 92 q 314 371 314 257 q 289 449 314 419 q 224 479 264 479 q 63 413 124 479 q 44 403 53 403 q 35 415 31 403 q 47 451 42 443 q 69 481 51 458 q 113 524 88 503 q 264 574 174 574 q 368 524 328 574 q 408 404 408 474 q 366 285 408 336 q 261 172 324 233 q 210 124 229 142 q 186 103 192 107 q 190 92 172 94 l 196 90 l 411 90 q 485 114 450 90 q 540 178 521 138 q 567 192 549 192 q 572 185 572 192 q 549 113 572 179 q 525 28 525 44 q 517 1 525 8 z "},"3":{"ha":517,"x_min":50,"x_max":443,"o":"m 215 -235 q 119 -264 157 -264 q 82 -244 82 -264 q 94 -217 82 -232 q 119 -203 107 -203 q 231 -178 186 -203 q 307 -111 276 -154 q 338 24 338 -68 q 330 79 338 53 q 294 131 322 106 q 218 156 265 156 q 158 142 182 156 q 132 128 135 128 q 108 140 108 128 q 124 164 108 149 q 142 181 131 171 q 171 200 154 190 q 224 237 193 214 q 280 301 256 260 q 304 406 304 342 q 280 472 304 446 q 214 497 256 497 q 144 481 172 497 q 94 440 115 464 q 60 417 74 417 q 50 433 50 417 q 68 472 50 449 q 115 518 86 494 q 180 558 144 542 q 250 574 215 574 q 360 534 319 574 q 401 439 401 494 q 271 232 401 307 q 272 224 264 225 q 369 201 331 224 q 425 145 407 179 q 443 74 443 111 q 215 -235 443 -122 z "},"4":{"ha":683,"x_min":29,"x_max":646,"o":"m 488 -185 q 471 -215 488 -199 q 435 -241 454 -231 q 407 -251 415 -251 q 386 -233 386 -251 l 386 57 q 377 66 386 63 q 365 69 368 69 l 47 60 q 29 67 29 60 q 51 97 29 74 q 432 524 74 124 l 453 549 q 486 585 481 585 l 488 585 q 492 568 492 585 l 486 151 q 500 143 486 143 q 517 142 507 142 q 542 142 528 142 q 578 142 556 142 q 631 144 600 143 q 646 135 646 144 q 635 96 646 118 q 617 74 624 74 l 549 75 q 488 64 488 75 l 488 -185 m 161 157 q 161 144 153 144 l 369 144 q 386 156 386 144 l 386 390 q 381 394 386 393 q 372 392 375 394 q 282 294 335 353 q 161 157 229 236 z "},"5":{"ha":521,"x_min":81,"x_max":451,"o":"m 451 24 q 425 -92 451 -39 q 353 -183 399 -144 q 253 -242 308 -221 q 142 -262 199 -262 q 94 -246 94 -262 q 140 -222 94 -231 q 340 0 340 -186 q 150 232 340 136 q 81 308 81 268 q 124 482 81 392 q 174 528 139 514 q 376 576 257 560 l 378 576 q 393 553 393 576 q 383 515 393 538 q 356 474 372 492 q 322 451 340 456 q 242 440 283 444 q 153 433 200 435 q 128 392 139 433 q 126 383 126 390 q 154 350 126 365 q 365 208 306 265 q 425 125 399 176 q 451 24 451 74 z "},"6":{"ha":679,"x_min":57,"x_max":613,"o":"m 610 264 q 576 122 610 186 q 478 19 542 57 q 325 -19 415 -19 q 124 59 190 -19 q 57 268 57 138 q 217 663 57 476 q 314 751 256 707 q 444 832 372 796 q 593 888 515 868 l 600 888 q 613 883 613 888 q 601 865 613 872 l 576 853 q 365 710 456 800 q 223 506 274 621 q 172 264 172 392 q 219 110 172 167 q 283 56 242 82 q 371 31 324 31 q 436 47 403 31 q 492 99 469 63 q 514 197 514 136 q 476 312 514 263 q 375 361 438 361 q 272 340 313 361 q 257 342 260 333 q 269 364 254 350 q 308 394 283 378 q 361 419 333 410 q 436 435 403 435 q 524 413 485 435 q 586 352 563 390 q 610 264 610 314 z "},"7":{"ha":639,"x_min":33,"x_max":601,"o":"m 160 -231 q 133 -268 139 -268 q 106 -257 118 -268 q 94 -236 94 -246 q 124 -175 94 -226 l 478 435 q 481 440 481 438 q 464 449 481 447 q 178 453 301 453 l 160 453 q 76 422 101 453 q 40 390 51 390 q 33 397 33 390 q 44 453 33 401 q 53 501 50 476 q 56 549 56 525 q 69 564 56 564 l 157 558 q 231 557 176 557 q 375 557 286 557 q 592 565 553 557 q 601 551 601 565 q 592 519 601 535 q 576 492 586 510 q 549 449 565 474 l 160 -231 z "},"8":{"ha":628,"x_min":85,"x_max":560,"o":"m 560 218 q 524 99 560 153 q 433 13 489 44 q 313 -18 376 -18 q 198 8 250 -18 q 115 81 146 35 q 85 183 85 126 q 111 278 85 239 q 176 344 138 317 q 254 392 215 372 q 261 401 264 399 q 253 409 260 403 q 231 426 246 415 q 174 478 201 450 q 124 551 147 506 q 100 649 100 599 q 133 737 100 699 q 220 797 167 775 q 331 818 274 818 q 436 796 389 818 q 512 735 483 774 q 540 649 540 697 q 474 519 540 576 q 449 499 463 510 q 419 476 435 488 q 388 449 388 453 l 388 447 q 397 438 388 444 q 521 336 482 382 q 560 218 560 290 m 349 475 q 368 472 360 467 q 443 656 443 533 q 410 745 443 706 q 328 785 376 785 q 265 770 294 785 q 216 732 235 756 q 197 683 197 708 q 203 624 197 646 q 228 581 210 603 q 248 558 240 567 q 267 539 256 549 q 303 511 279 529 q 332 488 321 497 q 349 475 343 479 m 182 206 q 201 120 182 160 q 252 57 219 81 q 325 33 285 33 q 424 71 386 33 q 463 164 463 108 q 310 360 463 256 q 290 371 294 371 q 262 353 285 371 q 224 319 239 335 q 182 206 182 276 z "},"9":{"ha":647,"x_min":57,"x_max":592,"o":"m 76 -258 l 69 -258 q 57 -251 57 -258 q 76 -233 57 -240 q 147 -199 106 -225 q 232 -137 188 -172 q 315 -66 276 -103 q 375 0 353 -29 q 481 315 481 139 q 457 422 481 374 q 394 497 433 469 q 310 525 356 525 q 206 477 242 525 q 169 368 169 429 q 188 287 169 326 q 238 222 207 247 q 306 197 269 197 q 361 205 344 197 q 394 222 378 213 q 417 233 410 231 l 419 233 q 427 228 425 233 q 426 218 429 222 q 381 169 411 192 q 249 124 318 124 q 163 147 203 124 q 98 210 122 169 q 74 299 74 250 q 110 431 74 368 q 206 535 146 494 q 340 575 267 575 q 471 538 414 575 q 560 438 528 501 q 592 292 592 374 q 417 -65 592 108 q 342 -126 386 -94 q 250 -187 299 -158 q 156 -235 201 -215 q 76 -258 110 -254 z "},"A":{"ha":950,"x_min":-3,"x_max":968,"o":"m 204 1 l 38 -7 q -3 11 -3 -7 q 43 43 -3 29 q 163 150 126 68 q 422 803 294 454 q 440 867 440 847 q 442 883 440 883 q 500 911 490 900 q 507 920 504 917 q 511 926 510 924 q 521 939 518 939 q 535 919 528 939 q 648 573 586 758 q 782 178 710 388 q 841 74 808 101 q 921 39 874 47 q 968 7 968 31 q 928 -7 968 -7 l 735 1 l 589 0 q 549 17 549 0 q 594 43 549 38 q 679 106 679 57 q 626 324 679 144 q 589 339 622 339 l 324 339 q 300 314 308 339 q 244 122 244 156 q 267 72 244 92 q 331 40 290 51 q 371 14 371 29 q 331 -1 371 -1 l 204 1 m 335 408 q 364 399 335 399 l 579 399 q 599 406 599 399 l 596 419 l 486 751 q 475 776 478 776 q 463 753 471 776 l 338 419 l 335 408 z "},"À":{"ha":950,"x_min":-3,"x_max":968,"o":"m 204 1 l 38 -7 q -3 11 -3 -7 q 43 43 -3 29 q 163 150 126 68 q 422 803 294 454 q 440 867 440 847 q 442 883 440 883 q 500 911 490 900 q 507 920 504 917 q 511 926 510 924 q 521 939 518 939 q 535 919 528 939 q 648 573 586 758 q 782 178 710 388 q 841 74 808 101 q 921 39 874 47 q 968 7 968 31 q 928 -7 968 -7 l 735 1 l 589 0 q 549 17 549 0 q 594 43 549 38 q 679 106 679 57 q 626 324 679 144 q 589 339 622 339 l 324 339 q 300 314 308 339 q 244 122 244 156 q 267 72 244 92 q 331 40 290 51 q 371 14 371 29 q 331 -1 371 -1 l 204 1 m 335 408 q 364 399 335 399 l 579 399 q 599 406 599 399 l 596 419 l 486 751 q 475 776 478 776 q 463 753 471 776 l 338 419 l 335 408 m 558 976 q 550 968 558 968 q 525 981 542 968 q 421 1060 465 1025 q 344 1122 376 1096 q 326 1150 326 1139 q 341 1165 326 1158 q 376 1176 356 1172 q 410 1181 396 1181 q 444 1163 432 1181 q 558 976 558 999 z "},"Á":{"ha":950,"x_min":-3,"x_max":968,"o":"m 204 1 l 38 -7 q -3 11 -3 -7 q 43 43 -3 29 q 163 150 126 68 q 422 803 294 454 q 440 867 440 847 q 442 883 440 883 q 500 911 490 900 q 507 920 504 917 q 511 926 510 924 q 521 939 518 939 q 535 919 528 939 q 648 573 586 758 q 782 178 710 388 q 841 74 808 101 q 921 39 874 47 q 968 7 968 31 q 928 -7 968 -7 l 735 1 l 589 0 q 549 17 549 0 q 594 43 549 38 q 679 106 679 57 q 626 324 679 144 q 589 339 622 339 l 324 339 q 300 314 308 339 q 244 122 244 156 q 267 72 244 92 q 331 40 290 51 q 371 14 371 29 q 331 -1 371 -1 l 204 1 m 335 408 q 364 399 335 399 l 579 399 q 599 406 599 399 l 596 419 l 486 751 q 475 776 478 776 q 463 753 471 776 l 338 419 l 335 408 m 483 981 q 458 968 467 968 q 450 978 450 968 q 564 1163 450 999 q 599 1181 576 1181 q 633 1176 614 1181 q 667 1165 653 1172 q 682 1150 682 1158 q 664 1122 682 1139 q 588 1060 633 1096 q 483 981 543 1025 z "},"Â":{"ha":950,"x_min":-3,"x_max":968,"o":"m 204 1 l 38 -7 q -3 11 -3 -7 q 43 43 -3 29 q 163 150 126 68 q 422 803 294 454 q 440 867 440 847 q 442 883 440 883 q 500 911 490 900 q 507 920 504 917 q 511 926 510 924 q 521 939 518 939 q 535 919 528 939 q 648 573 586 758 q 782 178 710 388 q 841 74 808 101 q 921 39 874 47 q 968 7 968 31 q 928 -7 968 -7 l 735 1 l 589 0 q 549 17 549 0 q 594 43 549 38 q 679 106 679 57 q 626 324 679 144 q 589 339 622 339 l 324 339 q 300 314 308 339 q 244 122 244 156 q 267 72 244 92 q 331 40 290 51 q 371 14 371 29 q 331 -1 371 -1 l 204 1 m 335 408 q 364 399 335 399 l 579 399 q 599 406 599 399 l 596 419 l 486 751 q 475 776 478 776 q 463 753 471 776 l 338 419 l 335 408 m 490 1050 q 433 1020 469 1039 q 363 988 396 1001 q 318 974 329 974 q 301 988 301 974 q 311 1004 301 996 l 447 1126 q 504 1157 482 1157 q 561 1126 526 1157 l 697 1004 q 706 988 706 999 q 690 972 706 972 q 660 981 682 972 q 613 1001 639 989 q 563 1026 586 1014 q 528 1044 540 1038 q 503 1053 514 1053 q 490 1050 494 1053 z "},"Ã":{"ha":950,"x_min":-3,"x_max":968,"o":"m 204 1 l 38 -7 q -3 11 -3 -7 q 43 43 -3 29 q 163 150 126 68 q 422 803 294 454 q 440 867 440 847 q 442 883 440 883 q 500 911 490 900 q 507 920 504 917 q 511 926 510 924 q 521 939 518 939 q 535 919 528 939 q 648 573 586 758 q 782 178 710 388 q 841 74 808 101 q 921 39 874 47 q 968 7 968 31 q 928 -7 968 -7 l 735 1 l 589 0 q 549 17 549 0 q 594 43 549 38 q 679 106 679 57 q 626 324 679 144 q 589 339 622 339 l 324 339 q 300 314 308 339 q 244 122 244 156 q 267 72 244 92 q 331 40 290 51 q 371 14 371 29 q 331 -1 371 -1 l 204 1 m 335 408 q 364 399 335 399 l 579 399 q 599 406 599 399 l 596 419 l 486 751 q 475 776 478 776 q 463 753 471 776 l 338 419 l 335 408 m 596 1097 q 650 1125 622 1097 q 679 1151 675 1151 q 703 1124 703 1151 q 685 1077 703 1104 q 640 1030 667 1050 q 588 1010 613 1010 l 419 1022 q 368 994 392 1022 q 340 965 343 965 q 322 972 331 965 q 314 989 314 979 q 334 1042 314 1014 q 382 1092 354 1071 q 435 1113 410 1113 l 596 1097 z "},"Ä":{"ha":950,"x_min":-3,"x_max":968,"o":"m 204 1 l 38 -7 q -3 11 -3 -7 q 43 43 -3 29 q 163 150 126 68 q 422 803 294 454 q 440 867 440 847 q 442 883 440 883 q 500 911 490 900 q 507 920 504 917 q 511 926 510 924 q 521 939 518 939 q 535 919 528 939 q 648 573 586 758 q 782 178 710 388 q 841 74 808 101 q 921 39 874 47 q 968 7 968 31 q 928 -7 968 -7 l 735 1 l 589 0 q 549 17 549 0 q 594 43 549 38 q 679 106 679 57 q 626 324 679 144 q 589 339 622 339 l 324 339 q 300 314 308 339 q 244 122 244 156 q 267 72 244 92 q 331 40 290 51 q 371 14 371 29 q 331 -1 371 -1 l 204 1 m 335 408 q 364 399 335 399 l 579 399 q 599 406 599 399 l 596 419 l 486 751 q 475 776 478 776 q 463 753 471 776 l 338 419 l 335 408 m 588 1093 q 636 1113 607 1113 q 685 1092 665 1113 q 706 1043 706 1072 q 685 994 706 1014 q 636 974 665 974 q 587 994 607 974 q 567 1043 567 1014 q 588 1093 567 1072 m 317 1093 q 365 1113 336 1113 q 415 1092 394 1113 q 435 1043 435 1072 q 415 994 435 1014 q 365 974 394 974 q 316 994 336 974 q 296 1043 296 1014 q 317 1093 296 1072 z "},"Å":{"ha":950,"x_min":-3,"x_max":968,"o":"m 204 1 l 38 -7 q -3 11 -3 -7 q 43 43 -3 29 q 163 150 126 68 q 422 803 294 454 q 440 867 440 847 q 442 883 440 883 q 500 911 490 900 q 507 920 504 917 q 511 926 510 924 q 521 939 518 939 q 535 919 528 939 q 648 573 586 758 q 782 178 710 388 q 841 74 808 101 q 921 39 874 47 q 968 7 968 31 q 928 -7 968 -7 l 735 1 l 589 0 q 549 17 549 0 q 594 43 549 38 q 679 106 679 57 q 626 324 679 144 q 589 339 622 339 l 324 339 q 300 314 308 339 q 244 122 244 156 q 267 72 244 92 q 331 40 290 51 q 371 14 371 29 q 331 -1 371 -1 l 204 1 m 335 408 q 364 399 335 399 l 579 399 q 599 406 599 399 l 596 419 l 486 751 q 475 776 478 776 q 463 753 471 776 l 338 419 l 335 408 m 379 1082 q 418 1166 379 1132 q 508 1200 457 1200 q 594 1171 561 1200 q 626 1092 626 1142 q 588 1007 626 1042 q 500 972 550 972 q 414 1002 449 972 q 379 1082 379 1032 m 500 1168 q 451 1143 469 1168 q 432 1086 432 1118 q 455 1028 432 1053 q 508 1003 478 1003 q 557 1028 540 1003 q 574 1088 574 1054 q 552 1144 574 1119 q 500 1168 531 1168 z "},"Ā":{"ha":950,"x_min":-3,"x_max":968,"o":"m 204 1 l 38 -7 q -3 11 -3 -7 q 43 43 -3 29 q 163 150 126 68 q 422 803 294 454 q 440 867 440 847 q 442 883 440 883 q 500 911 490 900 q 507 920 504 917 q 511 926 510 924 q 521 939 518 939 q 535 919 528 939 q 648 573 586 758 q 782 178 710 388 q 841 74 808 101 q 921 39 874 47 q 968 7 968 31 q 928 -7 968 -7 l 735 1 l 589 0 q 549 17 549 0 q 594 43 549 38 q 679 106 679 57 q 626 324 679 144 q 589 339 622 339 l 324 339 q 300 314 308 339 q 244 122 244 156 q 267 72 244 92 q 331 40 290 51 q 371 14 371 29 q 331 -1 371 -1 l 204 1 m 335 408 q 364 399 335 399 l 579 399 q 599 406 599 399 l 596 419 l 486 751 q 475 776 478 776 q 463 753 471 776 l 338 419 l 335 408 m 697 1079 q 715 1056 715 1079 q 702 1023 715 1042 q 672 1004 689 1004 l 318 1004 q 305 1009 311 1004 q 299 1026 299 1014 q 307 1058 299 1038 q 332 1079 315 1079 l 697 1079 z "},"Ă":{"ha":950,"x_min":-3,"x_max":968,"o":"m 204 1 l 38 -7 q -3 11 -3 -7 q 43 43 -3 29 q 163 150 126 68 q 422 803 294 454 q 440 867 440 847 q 442 883 440 883 q 500 911 490 900 q 507 920 504 917 q 511 926 510 924 q 521 939 518 939 q 535 919 528 939 q 648 573 586 758 q 782 178 710 388 q 841 74 808 101 q 921 39 874 47 q 968 7 968 31 q 928 -7 968 -7 l 735 1 l 589 0 q 549 17 549 0 q 594 43 549 38 q 679 106 679 57 q 626 324 679 144 q 589 339 622 339 l 324 339 q 300 314 308 339 q 244 122 244 156 q 267 72 244 92 q 331 40 290 51 q 371 14 371 29 q 331 -1 371 -1 l 204 1 m 335 408 q 364 399 335 399 l 579 399 q 599 406 599 399 l 596 419 l 486 751 q 475 776 478 776 q 463 753 471 776 l 338 419 l 335 408 m 289 1142 q 303 1175 289 1175 q 335 1144 317 1175 q 392 1086 351 1114 q 497 1058 433 1058 q 602 1086 561 1058 q 661 1144 643 1114 q 692 1175 678 1175 q 706 1142 706 1175 q 676 1056 706 1097 q 599 988 647 1014 q 496 961 551 961 q 393 985 440 961 q 317 1051 346 1010 q 289 1142 289 1092 z "},"Ą":{"ha":950,"x_min":-3,"x_max":968,"o":"m 204 1 l 38 -7 q -3 11 -3 -7 q 43 43 -3 29 q 163 150 126 68 q 422 803 294 454 q 440 867 440 847 q 442 883 440 883 q 500 911 490 900 q 507 920 504 917 q 511 926 510 924 q 521 939 518 939 q 535 919 528 939 q 648 573 586 758 q 782 178 710 388 q 841 74 808 101 q 921 39 874 47 q 968 7 968 31 q 928 -7 968 -7 l 735 1 l 589 0 q 549 17 549 0 q 594 43 549 38 q 679 106 679 57 q 626 324 679 144 q 589 339 622 339 l 324 339 q 300 314 308 339 q 244 122 244 156 q 267 72 244 92 q 331 40 290 51 q 371 14 371 29 q 331 -1 371 -1 l 204 1 m 335 408 q 364 399 335 399 l 579 399 q 599 406 599 399 l 596 419 l 486 751 q 475 776 478 776 q 463 753 471 776 l 338 419 l 335 408 m 797 8 q 697 -105 729 -50 q 665 -215 665 -160 q 693 -276 665 -251 q 747 -300 721 -300 q 794 -292 775 -300 q 828 -275 814 -285 q 857 -253 846 -261 q 871 -244 868 -246 q 883 -242 878 -240 q 888 -253 888 -244 q 858 -316 888 -282 q 785 -374 828 -350 q 701 -399 742 -399 q 626 -378 661 -399 q 569 -321 590 -357 q 547 -242 547 -285 q 598 -120 547 -182 q 756 10 649 -58 l 797 8 z "},"B":{"ha":803,"x_min":26,"x_max":746,"o":"m 247 0 q 202 -2 247 0 q 67 -7 157 -4 q 26 10 26 -7 q 78 35 26 25 q 154 67 128 43 q 181 138 181 90 l 181 763 q 160 836 181 813 q 90 864 139 860 q 42 892 42 868 q 82 907 42 907 l 226 906 l 381 913 q 613 865 538 913 q 689 706 689 817 q 668 610 689 649 q 615 549 647 572 q 549 513 583 526 q 543 506 543 511 q 549 499 543 500 q 728 368 693 454 q 746 271 746 328 q 694 108 746 163 q 650 69 667 81 q 379 -6 542 -6 l 247 0 m 289 567 q 353 515 289 515 q 507 556 439 515 q 549 601 529 568 q 569 699 569 635 q 551 781 569 742 q 492 845 533 819 q 381 871 451 871 q 308 856 326 871 q 289 808 289 842 l 289 567 m 289 150 q 315 73 289 94 q 399 51 342 51 q 503 80 454 51 q 584 156 553 108 q 615 263 615 204 q 576 391 615 344 q 481 457 538 438 q 368 476 424 476 q 308 460 328 476 q 289 426 289 444 l 289 150 z "},"C":{"ha":889,"x_min":64,"x_max":861,"o":"m 733 3 q 513 -21 654 -21 q 338 16 419 -21 q 194 118 256 53 q 99 269 133 183 q 64 453 64 356 q 104 635 64 550 q 215 784 144 719 q 376 885 285 849 q 569 921 467 921 q 717 904 667 921 q 822 879 767 888 q 839 851 833 879 q 848 786 844 824 q 851 719 851 749 l 851 696 q 851 676 851 685 q 850 664 851 668 q 836 654 846 653 q 800 706 808 657 q 751 807 792 768 q 540 878 681 878 q 408 846 469 878 q 301 759 347 814 q 228 633 254 704 q 203 482 203 561 q 244 263 203 367 q 369 90 286 158 q 556 22 450 22 q 814 190 729 22 q 833 208 821 201 q 849 217 846 214 q 851 218 850 218 q 861 192 861 218 q 814 36 849 88 q 733 3 807 25 z "},"Ç":{"ha":889,"x_min":64,"x_max":861,"o":"m 733 3 q 513 -21 654 -21 q 338 16 419 -21 q 194 118 256 53 q 99 269 133 183 q 64 453 64 356 q 104 635 64 550 q 215 784 144 719 q 376 885 285 849 q 569 921 467 921 q 717 904 667 921 q 822 879 767 888 q 839 851 833 879 q 848 786 844 824 q 851 719 851 749 l 851 696 q 851 676 851 685 q 850 664 851 668 q 836 654 846 653 q 800 706 808 657 q 751 807 792 768 q 540 878 681 878 q 408 846 469 878 q 301 759 347 814 q 228 633 254 704 q 203 482 203 561 q 244 263 203 367 q 369 90 286 158 q 556 22 450 22 q 814 190 729 22 q 833 208 821 201 q 849 217 846 214 q 851 218 850 218 q 861 192 861 218 q 814 36 849 88 q 733 3 807 25 m 489 -183 q 463 -175 472 -183 q 453 -158 453 -167 q 461 -139 453 -149 l 572 11 l 615 11 l 558 -75 q 579 -100 549 -87 q 636 -144 608 -112 q 664 -221 664 -176 q 634 -301 664 -264 q 562 -360 604 -337 q 481 -382 519 -382 q 422 -337 422 -382 q 444 -290 422 -290 q 456 -294 447 -290 q 517 -308 478 -308 q 590 -254 590 -308 q 574 -202 590 -225 q 525 -179 558 -179 l 489 -183 z "},"Ć":{"ha":889,"x_min":64,"x_max":861,"o":"m 733 3 q 513 -21 654 -21 q 338 16 419 -21 q 194 118 256 53 q 99 269 133 183 q 64 453 64 356 q 104 635 64 550 q 215 784 144 719 q 376 885 285 849 q 569 921 467 921 q 717 904 667 921 q 822 879 767 888 q 839 851 833 879 q 848 786 844 824 q 851 719 851 749 l 851 696 q 851 676 851 685 q 850 664 851 668 q 836 654 846 653 q 800 706 808 657 q 751 807 792 768 q 540 878 681 878 q 408 846 469 878 q 301 759 347 814 q 228 633 254 704 q 203 482 203 561 q 244 263 203 367 q 369 90 286 158 q 556 22 450 22 q 814 190 729 22 q 833 208 821 201 q 849 217 846 214 q 851 218 850 218 q 861 192 861 218 q 814 36 849 88 q 733 3 807 25 m 508 981 q 483 968 492 968 q 475 978 475 968 q 589 1163 475 999 q 624 1181 601 1181 q 658 1176 639 1181 q 692 1165 678 1172 q 707 1150 707 1158 q 689 1122 707 1139 q 613 1060 658 1096 q 508 981 568 1025 z "},"Ĉ":{"ha":889,"x_min":64,"x_max":861,"o":"m 733 3 q 513 -21 654 -21 q 338 16 419 -21 q 194 118 256 53 q 99 269 133 183 q 64 453 64 356 q 104 635 64 550 q 215 784 144 719 q 376 885 285 849 q 569 921 467 921 q 717 904 667 921 q 822 879 767 888 q 839 851 833 879 q 848 786 844 824 q 851 719 851 749 l 851 696 q 851 676 851 685 q 850 664 851 668 q 836 654 846 653 q 800 706 808 657 q 751 807 792 768 q 540 878 681 878 q 408 846 469 878 q 301 759 347 814 q 228 633 254 704 q 203 482 203 561 q 244 263 203 367 q 369 90 286 158 q 556 22 450 22 q 814 190 729 22 q 833 208 821 201 q 849 217 846 214 q 851 218 850 218 q 861 192 861 218 q 814 36 849 88 q 733 3 807 25 m 515 1050 q 458 1020 494 1039 q 388 988 421 1001 q 343 974 354 974 q 326 988 326 974 q 336 1004 326 996 l 472 1126 q 529 1157 507 1157 q 586 1126 551 1157 l 722 1004 q 731 988 731 999 q 715 972 731 972 q 685 981 707 972 q 638 1001 664 989 q 588 1026 611 1014 q 553 1044 565 1038 q 528 1053 539 1053 q 515 1050 519 1053 z "},"Ċ":{"ha":889,"x_min":64,"x_max":861,"o":"m 733 3 q 513 -21 654 -21 q 338 16 419 -21 q 194 118 256 53 q 99 269 133 183 q 64 453 64 356 q 104 635 64 550 q 215 784 144 719 q 376 885 285 849 q 569 921 467 921 q 717 904 667 921 q 822 879 767 888 q 839 851 833 879 q 848 786 844 824 q 851 719 851 749 l 851 696 q 851 676 851 685 q 850 664 851 668 q 836 654 846 653 q 800 706 808 657 q 751 807 792 768 q 540 878 681 878 q 408 846 469 878 q 301 759 347 814 q 228 633 254 704 q 203 482 203 561 q 244 263 203 367 q 369 90 286 158 q 556 22 450 22 q 814 190 729 22 q 833 208 821 201 q 849 217 846 214 q 851 218 850 218 q 861 192 861 218 q 814 36 849 88 q 733 3 807 25 m 476 1103 q 529 1125 499 1125 q 583 1103 560 1125 q 606 1049 606 1081 q 583 994 606 1017 q 529 972 560 972 q 476 994 499 972 q 453 1049 453 1017 q 476 1103 453 1079 z "},"Č":{"ha":889,"x_min":64,"x_max":861,"o":"m 733 3 q 513 -21 654 -21 q 338 16 419 -21 q 194 118 256 53 q 99 269 133 183 q 64 453 64 356 q 104 635 64 550 q 215 784 144 719 q 376 885 285 849 q 569 921 467 921 q 717 904 667 921 q 822 879 767 888 q 839 851 833 879 q 848 786 844 824 q 851 719 851 749 l 851 696 q 851 676 851 685 q 850 664 851 668 q 836 654 846 653 q 800 706 808 657 q 751 807 792 768 q 540 878 681 878 q 408 846 469 878 q 301 759 347 814 q 228 633 254 704 q 203 482 203 561 q 244 263 203 367 q 369 90 286 158 q 556 22 450 22 q 814 190 729 22 q 833 208 821 201 q 849 217 846 214 q 851 218 850 218 q 861 192 861 218 q 814 36 849 88 q 733 3 807 25 m 325 1142 q 342 1156 325 1156 q 372 1147 350 1156 q 421 1126 394 1139 q 471 1103 447 1114 q 506 1085 494 1092 q 529 1076 521 1076 q 542 1079 538 1076 q 601 1111 564 1093 q 670 1143 638 1129 q 714 1157 703 1157 q 729 1142 729 1157 q 721 1125 729 1132 l 585 1003 q 528 972 550 972 q 471 1003 506 972 l 335 1125 q 325 1142 325 1133 z "},"D":{"ha":1047,"x_min":40,"x_max":999,"o":"m 999 474 q 961 288 999 375 q 857 133 924 200 q 703 28 790 67 q 515 -10 615 -10 q 485 -8 514 -10 q 401 -4 457 -7 q 226 0 292 0 l 81 -7 q 40 10 40 -7 q 90 35 40 25 q 159 65 139 43 q 179 138 179 88 l 179 763 q 159 833 179 811 q 90 864 139 854 q 40 892 40 872 q 81 907 40 907 l 225 904 l 235 904 l 472 915 q 768 860 651 915 q 942 705 885 804 q 999 474 999 606 m 290 168 q 319 86 290 114 q 395 49 347 58 q 499 39 443 39 q 690 91 607 39 q 820 237 774 143 q 867 456 867 331 q 835 625 867 549 q 749 757 804 701 q 625 842 694 813 q 479 872 556 872 q 321 853 349 872 q 290 788 290 832 l 290 168 z "},"Ď":{"ha":1047,"x_min":40,"x_max":999,"o":"m 999 474 q 961 288 999 375 q 857 133 924 200 q 703 28 790 67 q 515 -10 615 -10 q 485 -8 514 -10 q 401 -4 457 -7 q 226 0 292 0 l 81 -7 q 40 10 40 -7 q 90 35 40 25 q 159 65 139 43 q 179 138 179 88 l 179 763 q 159 833 179 811 q 90 864 139 854 q 40 892 40 872 q 81 907 40 907 l 225 904 l 235 904 l 472 915 q 768 860 651 915 q 942 705 885 804 q 999 474 999 606 m 290 168 q 319 86 290 114 q 395 49 347 58 q 499 39 443 39 q 690 91 607 39 q 820 237 774 143 q 867 456 867 331 q 835 625 867 549 q 749 757 804 701 q 625 842 694 813 q 479 872 556 872 q 321 853 349 872 q 290 788 290 832 l 290 168 m 272 1142 q 289 1156 272 1156 q 319 1147 297 1156 q 368 1126 342 1139 q 418 1103 394 1114 q 453 1085 442 1092 q 476 1076 468 1076 q 489 1079 485 1076 q 548 1111 511 1093 q 617 1143 585 1129 q 661 1157 650 1157 q 676 1142 676 1157 q 668 1125 676 1132 l 532 1003 q 475 972 497 972 q 418 1003 453 972 l 282 1125 q 272 1142 272 1133 z "},"E":{"ha":743,"x_min":32,"x_max":729,"o":"m 232 1 l 72 -7 q 32 10 32 -7 q 82 35 32 25 q 156 66 132 43 q 181 138 181 89 l 181 763 q 160 833 181 811 q 92 864 140 854 q 42 892 42 872 q 82 907 42 907 l 328 903 l 636 907 q 661 894 660 907 q 682 757 682 782 q 663 731 682 731 q 647 744 651 731 q 620 813 633 789 q 585 848 607 838 q 524 858 564 858 l 342 858 q 310 845 328 858 q 292 814 292 832 l 292 519 q 299 498 292 507 q 317 489 307 489 l 450 489 q 535 543 513 489 q 547 558 538 549 q 561 567 556 567 q 572 560 565 567 q 578 544 578 554 l 574 468 l 576 374 q 564 350 576 350 q 532 382 543 350 q 468 444 511 444 l 339 444 q 302 438 313 444 q 292 408 292 431 l 292 142 q 313 69 292 90 q 383 49 335 49 l 528 49 q 606 58 578 49 q 652 92 633 68 q 692 161 671 117 q 713 175 700 175 q 729 160 729 175 q 723 97 729 132 q 706 17 717 61 q 686 -7 699 -7 l 232 1 z "},"È":{"ha":743,"x_min":32,"x_max":729,"o":"m 232 1 l 72 -7 q 32 10 32 -7 q 82 35 32 25 q 156 66 132 43 q 181 138 181 89 l 181 763 q 160 833 181 811 q 92 864 140 854 q 42 892 42 872 q 82 907 42 907 l 328 903 l 636 907 q 661 894 660 907 q 682 757 682 782 q 663 731 682 731 q 647 744 651 731 q 620 813 633 789 q 585 848 607 838 q 524 858 564 858 l 342 858 q 310 845 328 858 q 292 814 292 832 l 292 519 q 299 498 292 507 q 317 489 307 489 l 450 489 q 535 543 513 489 q 547 558 538 549 q 561 567 556 567 q 572 560 565 567 q 578 544 578 554 l 574 468 l 576 374 q 564 350 576 350 q 532 382 543 350 q 468 444 511 444 l 339 444 q 302 438 313 444 q 292 408 292 431 l 292 142 q 313 69 292 90 q 383 49 335 49 l 528 49 q 606 58 578 49 q 652 92 633 68 q 692 161 671 117 q 713 175 700 175 q 729 160 729 175 q 723 97 729 132 q 706 17 717 61 q 686 -7 699 -7 l 232 1 m 453 976 q 444 968 453 968 q 419 981 436 968 q 315 1060 360 1025 q 239 1122 271 1096 q 221 1150 221 1139 q 235 1165 221 1158 q 270 1176 250 1172 q 304 1181 290 1181 q 339 1163 326 1181 q 453 976 453 999 z "},"É":{"ha":743,"x_min":32,"x_max":729,"o":"m 232 1 l 72 -7 q 32 10 32 -7 q 82 35 32 25 q 156 66 132 43 q 181 138 181 89 l 181 763 q 160 833 181 811 q 92 864 140 854 q 42 892 42 872 q 82 907 42 907 l 328 903 l 636 907 q 661 894 660 907 q 682 757 682 782 q 663 731 682 731 q 647 744 651 731 q 620 813 633 789 q 585 848 607 838 q 524 858 564 858 l 342 858 q 310 845 328 858 q 292 814 292 832 l 292 519 q 299 498 292 507 q 317 489 307 489 l 450 489 q 535 543 513 489 q 547 558 538 549 q 561 567 556 567 q 572 560 565 567 q 578 544 578 554 l 574 468 l 576 374 q 564 350 576 350 q 532 382 543 350 q 468 444 511 444 l 339 444 q 302 438 313 444 q 292 408 292 431 l 292 142 q 313 69 292 90 q 383 49 335 49 l 528 49 q 606 58 578 49 q 652 92 633 68 q 692 161 671 117 q 713 175 700 175 q 729 160 729 175 q 723 97 729 132 q 706 17 717 61 q 686 -7 699 -7 l 232 1 m 378 981 q 353 968 361 968 q 344 978 344 968 q 458 1163 344 999 q 493 1181 471 1181 q 528 1176 508 1181 q 562 1165 547 1172 q 576 1150 576 1158 q 558 1122 576 1139 q 483 1060 528 1096 q 378 981 438 1025 z "},"Ê":{"ha":743,"x_min":32,"x_max":729,"o":"m 385 1051 q 327 1022 364 1040 q 257 989 290 1003 q 213 975 224 975 q 196 989 196 975 q 206 1006 196 997 l 342 1128 q 399 1158 376 1158 q 456 1128 421 1158 l 592 1006 q 600 989 600 1000 q 585 974 600 974 q 555 982 576 974 q 507 1003 533 990 q 458 1027 481 1015 q 422 1046 435 1039 q 397 1054 408 1054 q 385 1051 389 1054 m 574 468 l 576 374 q 564 350 576 350 q 532 382 543 350 q 468 444 511 444 l 339 444 q 302 438 313 444 q 292 408 292 431 l 292 142 q 313 69 292 90 q 383 49 335 49 l 528 49 q 606 58 578 49 q 652 92 633 68 q 692 161 671 117 q 713 175 700 175 q 729 160 729 175 q 723 97 729 132 q 706 17 717 61 q 686 -7 699 -7 l 232 1 l 72 -7 q 32 10 32 -7 q 82 35 32 25 q 156 66 132 43 q 181 138 181 89 l 181 763 q 160 833 181 811 q 92 864 140 854 q 42 892 42 872 q 82 907 42 907 l 328 903 l 636 907 q 661 894 660 907 q 682 757 682 782 q 663 731 682 731 q 647 744 651 731 q 620 813 633 789 q 585 848 607 838 q 524 858 564 858 l 342 858 q 310 845 328 858 q 292 814 292 832 l 292 519 q 299 498 292 507 q 317 489 307 489 l 450 489 q 535 543 513 489 q 547 558 538 549 q 561 567 556 567 q 572 560 565 567 q 578 544 578 554 l 574 468 z "},"Ë":{"ha":743,"x_min":32,"x_max":729,"o":"m 485 1094 q 533 1114 504 1114 q 583 1094 563 1114 q 603 1044 603 1074 q 583 995 603 1015 q 533 975 563 975 q 484 995 504 975 q 464 1044 464 1015 q 485 1094 464 1074 m 214 1094 q 263 1114 233 1114 q 312 1094 292 1114 q 332 1044 332 1074 q 312 995 332 1015 q 263 975 292 975 q 213 995 233 975 q 193 1044 193 1015 q 214 1094 193 1074 m 574 468 l 576 374 q 564 350 576 350 q 532 382 543 350 q 468 444 511 444 l 339 444 q 302 438 313 444 q 292 408 292 431 l 292 142 q 313 69 292 90 q 383 49 335 49 l 528 49 q 606 58 578 49 q 652 92 633 68 q 692 161 671 117 q 713 175 700 175 q 729 160 729 175 q 723 97 729 132 q 706 17 717 61 q 686 -7 699 -7 l 232 1 l 72 -7 q 32 10 32 -7 q 82 35 32 25 q 156 66 132 43 q 181 138 181 89 l 181 763 q 160 833 181 811 q 92 864 140 854 q 42 892 42 872 q 82 907 42 907 l 328 903 l 636 907 q 661 894 660 907 q 682 757 682 782 q 663 731 682 731 q 647 744 651 731 q 620 813 633 789 q 585 848 607 838 q 524 858 564 858 l 342 858 q 310 845 328 858 q 292 814 292 832 l 292 519 q 299 498 292 507 q 317 489 307 489 l 450 489 q 535 543 513 489 q 547 558 538 549 q 561 567 556 567 q 572 560 565 567 q 578 544 578 554 l 574 468 z "},"Ē":{"ha":743,"x_min":32,"x_max":729,"o":"m 589 1081 q 607 1057 607 1081 q 594 1024 607 1043 q 564 1006 581 1006 l 210 1006 q 197 1010 203 1006 q 190 1028 190 1015 q 199 1060 190 1039 q 224 1081 207 1081 l 589 1081 m 574 468 l 576 374 q 564 350 576 350 q 532 382 543 350 q 468 444 511 444 l 339 444 q 302 438 313 444 q 292 408 292 431 l 292 142 q 313 69 292 90 q 383 49 335 49 l 528 49 q 606 58 578 49 q 652 92 633 68 q 692 161 671 117 q 713 175 700 175 q 729 160 729 175 q 723 97 729 132 q 706 17 717 61 q 686 -7 699 -7 l 232 1 l 72 -7 q 32 10 32 -7 q 82 35 32 25 q 156 66 132 43 q 181 138 181 89 l 181 763 q 160 833 181 811 q 92 864 140 854 q 42 892 42 872 q 82 907 42 907 l 328 903 l 636 907 q 661 894 660 907 q 682 757 682 782 q 663 731 682 731 q 647 744 651 731 q 620 813 633 789 q 585 848 607 838 q 524 858 564 858 l 342 858 q 310 845 328 858 q 292 814 292 832 l 292 519 q 299 498 292 507 q 317 489 307 489 l 450 489 q 535 543 513 489 q 547 558 538 549 q 561 567 556 567 q 572 560 565 567 q 578 544 578 554 l 574 468 z "},"Ĕ":{"ha":743,"x_min":32,"x_max":729,"o":"m 232 1 l 72 -7 q 32 10 32 -7 q 82 35 32 25 q 156 66 132 43 q 181 138 181 89 l 181 763 q 160 833 181 811 q 92 864 140 854 q 42 892 42 872 q 82 907 42 907 l 328 903 l 636 907 q 661 894 660 907 q 682 757 682 782 q 663 731 682 731 q 647 744 651 731 q 620 813 633 789 q 585 848 607 838 q 524 858 564 858 l 342 858 q 310 845 328 858 q 292 814 292 832 l 292 519 q 299 498 292 507 q 317 489 307 489 l 450 489 q 535 543 513 489 q 547 558 538 549 q 561 567 556 567 q 572 560 565 567 q 578 544 578 554 l 574 468 l 576 374 q 564 350 576 350 q 532 382 543 350 q 468 444 511 444 l 339 444 q 302 438 313 444 q 292 408 292 431 l 292 142 q 313 69 292 90 q 383 49 335 49 l 528 49 q 606 58 578 49 q 652 92 633 68 q 692 161 671 117 q 713 175 700 175 q 729 160 729 175 q 723 97 729 132 q 706 17 717 61 q 686 -7 699 -7 l 232 1 m 192 1142 q 206 1175 192 1175 q 238 1144 219 1175 q 295 1086 254 1114 q 400 1058 336 1058 q 505 1086 464 1058 q 564 1144 546 1114 q 594 1175 581 1175 q 608 1142 608 1175 q 579 1056 608 1097 q 502 988 550 1014 q 399 961 454 961 q 296 985 343 961 q 220 1051 249 1010 q 192 1142 192 1092 z "},"Ė":{"ha":743,"x_min":32,"x_max":729,"o":"m 232 1 l 72 -7 q 32 10 32 -7 q 82 35 32 25 q 156 66 132 43 q 181 138 181 89 l 181 763 q 160 833 181 811 q 92 864 140 854 q 42 892 42 872 q 82 907 42 907 l 328 903 l 636 907 q 661 894 660 907 q 682 757 682 782 q 663 731 682 731 q 647 744 651 731 q 620 813 633 789 q 585 848 607 838 q 524 858 564 858 l 342 858 q 310 845 328 858 q 292 814 292 832 l 292 519 q 299 498 292 507 q 317 489 307 489 l 450 489 q 535 543 513 489 q 547 558 538 549 q 561 567 556 567 q 572 560 565 567 q 578 544 578 554 l 574 468 l 576 374 q 564 350 576 350 q 532 382 543 350 q 468 444 511 444 l 339 444 q 302 438 313 444 q 292 408 292 431 l 292 142 q 313 69 292 90 q 383 49 335 49 l 528 49 q 606 58 578 49 q 652 92 633 68 q 692 161 671 117 q 713 175 700 175 q 729 160 729 175 q 723 97 729 132 q 706 17 717 61 q 686 -7 699 -7 l 232 1 m 347 1103 q 400 1125 369 1125 q 453 1103 431 1125 q 476 1049 476 1081 q 453 994 476 1017 q 400 972 431 972 q 347 994 369 972 q 324 1049 324 1017 q 347 1103 324 1079 z "},"Ę":{"ha":743,"x_min":32,"x_max":729,"o":"m 574 468 l 576 374 q 564 350 576 350 q 532 382 543 350 q 468 444 511 444 l 339 444 q 302 438 313 444 q 292 408 292 431 l 292 142 q 313 69 292 90 q 383 49 335 49 l 528 49 q 606 58 578 49 q 652 92 633 68 q 692 161 671 117 q 713 175 700 175 q 729 160 729 175 q 723 97 729 132 q 706 17 717 61 q 686 -7 699 -7 l 604 -7 q 489 -215 489 -110 q 517 -276 489 -251 q 571 -300 544 -300 q 618 -292 599 -300 q 650 -275 638 -285 q 681 -253 669 -261 q 694 -244 692 -246 q 706 -242 701 -240 q 711 -253 711 -244 q 681 -316 711 -282 q 608 -374 651 -350 q 525 -399 565 -399 q 449 -378 485 -399 q 392 -321 414 -357 q 371 -242 371 -285 q 558 -6 371 -128 q 328 -1 410 -3 q 232 1 246 1 l 72 -7 q 32 10 32 -7 q 82 35 32 25 q 156 66 132 43 q 181 138 181 89 l 181 763 q 160 833 181 811 q 92 864 140 854 q 42 892 42 872 q 82 907 42 907 l 328 903 l 636 907 q 661 894 660 907 q 682 757 682 782 q 663 731 682 731 q 647 744 651 731 q 620 813 633 789 q 585 848 607 838 q 524 858 564 858 l 342 858 q 310 845 328 858 q 292 814 292 832 l 292 519 q 299 498 292 507 q 317 489 307 489 l 450 489 q 535 543 513 489 q 547 558 538 549 q 561 567 556 567 q 572 560 565 567 q 578 544 578 554 l 574 468 z "},"Ě":{"ha":743,"x_min":32,"x_max":729,"o":"m 196 1143 q 213 1157 196 1157 q 243 1149 221 1157 q 292 1128 265 1140 q 342 1104 318 1115 q 376 1086 365 1093 q 400 1078 392 1078 q 413 1081 408 1078 q 472 1113 435 1094 q 541 1144 508 1131 q 585 1158 574 1158 q 600 1143 600 1158 q 592 1126 600 1133 l 456 1004 q 399 974 421 974 q 342 1004 376 974 l 206 1126 q 196 1143 196 1135 m 574 468 l 576 374 q 564 350 576 350 q 532 382 543 350 q 468 444 511 444 l 339 444 q 302 438 313 444 q 292 408 292 431 l 292 142 q 313 69 292 90 q 383 49 335 49 l 528 49 q 606 58 578 49 q 652 92 633 68 q 692 161 671 117 q 713 175 700 175 q 729 160 729 175 q 723 97 729 132 q 706 17 717 61 q 686 -7 699 -7 l 232 1 l 72 -7 q 32 10 32 -7 q 82 35 32 25 q 156 66 132 43 q 181 138 181 89 l 181 763 q 160 833 181 811 q 92 864 140 854 q 42 892 42 872 q 82 907 42 907 l 328 903 l 636 907 q 661 894 660 907 q 682 757 682 782 q 663 731 682 731 q 647 744 651 731 q 620 813 633 789 q 585 848 607 838 q 524 858 564 858 l 342 858 q 310 845 328 858 q 292 814 292 832 l 292 519 q 299 498 292 507 q 317 489 307 489 l 450 489 q 535 543 513 489 q 547 558 538 549 q 561 567 556 567 q 572 560 565 567 q 578 544 578 554 l 574 468 z "},"F":{"ha":711,"x_min":42,"x_max":674,"o":"m 257 3 l 82 -7 q 42 10 42 -7 q 92 35 42 25 q 160 66 140 43 q 181 139 181 89 l 181 725 q 164 824 181 792 q 99 864 147 856 q 50 892 50 872 q 90 907 50 907 l 329 903 l 567 906 l 621 906 l 642 907 q 667 894 665 907 q 672 840 669 875 q 674 756 674 804 q 661 726 674 726 q 640 743 644 726 q 599 821 624 793 q 515 849 575 849 l 339 849 q 308 838 318 849 q 296 814 299 826 q 292 774 294 801 q 290 728 290 760 q 290 649 290 697 q 290 569 290 601 q 292 521 290 536 q 306 489 292 489 l 467 493 q 551 547 529 493 q 563 562 554 553 q 578 571 572 571 q 589 564 582 571 q 593 542 593 560 q 592 506 593 524 q 590 469 590 489 q 594 378 590 439 q 582 354 594 354 q 550 386 561 354 q 485 440 532 440 q 467 440 485 440 q 415 442 450 440 q 377 441 400 442 q 325 439 354 440 q 292 404 292 438 q 296 140 292 232 q 319 67 299 93 q 386 33 339 42 q 433 10 433 25 q 393 -7 433 -7 q 354 -6 374 -7 q 317 -1 335 -4 q 257 3 282 3 z "},"G":{"ha":1013,"x_min":63,"x_max":963,"o":"m 821 49 q 697 3 772 25 q 544 -19 622 -19 q 360 15 447 -19 q 206 111 272 49 q 101 257 139 174 q 63 439 63 340 q 103 624 63 538 q 213 778 143 711 q 376 883 283 844 q 574 921 469 921 q 651 915 603 921 q 747 901 699 910 q 829 883 796 892 q 863 867 863 874 q 874 780 869 814 q 878 731 878 746 q 858 683 878 683 q 824 724 839 683 q 786 792 810 764 q 706 844 763 819 q 561 868 646 868 q 375 811 457 868 q 247 657 293 754 q 200 440 200 560 q 250 228 200 321 q 383 84 300 136 q 564 32 467 32 q 728 78 682 32 q 775 190 775 125 l 778 271 q 767 319 778 304 q 710 344 756 333 q 672 353 688 350 q 646 356 656 356 q 617 363 628 356 q 607 379 607 369 q 617 396 607 389 q 635 403 628 403 l 810 397 l 933 403 q 963 381 963 403 q 951 365 963 372 q 922 353 940 357 q 885 319 897 346 q 871 256 874 292 q 868 183 868 219 l 868 146 q 882 118 868 131 q 894 100 894 104 q 875 74 894 76 q 821 49 869 72 z "},"Ĝ":{"ha":1013,"x_min":63,"x_max":963,"o":"m 542 1050 q 484 1020 521 1039 q 414 988 447 1001 q 369 974 381 974 q 353 988 353 974 q 363 1004 353 996 l 499 1126 q 556 1157 533 1157 q 613 1126 578 1157 l 749 1004 q 757 988 757 999 q 742 972 757 972 q 712 981 733 972 q 664 1001 690 989 q 615 1026 638 1014 q 579 1044 592 1038 q 554 1053 565 1053 q 542 1050 546 1053 m 810 397 l 933 403 q 963 381 963 403 q 951 365 963 372 q 922 353 940 357 q 885 319 897 346 q 871 256 874 292 q 868 183 868 219 l 868 146 q 882 118 868 131 q 894 100 894 104 q 875 74 894 76 q 821 49 869 72 q 697 3 772 25 q 544 -19 622 -19 q 360 15 447 -19 q 206 111 272 49 q 101 257 139 174 q 63 439 63 340 q 103 624 63 538 q 213 778 143 711 q 376 883 283 844 q 574 921 469 921 q 651 915 603 921 q 747 901 699 910 q 829 883 796 892 q 863 867 863 874 q 874 780 869 814 q 878 731 878 746 q 858 683 878 683 q 824 724 839 683 q 786 792 810 764 q 706 844 763 819 q 561 868 646 868 q 375 811 457 868 q 247 657 293 754 q 200 440 200 560 q 250 228 200 321 q 383 84 300 136 q 564 32 467 32 q 728 78 682 32 q 775 190 775 125 l 778 271 q 767 319 778 304 q 710 344 756 333 q 672 353 688 350 q 646 356 656 356 q 617 363 628 356 q 607 379 607 369 q 617 396 607 389 q 635 403 628 403 l 810 397 z "},"Ğ":{"ha":1013,"x_min":63,"x_max":963,"o":"m 821 49 q 697 3 772 25 q 544 -19 622 -19 q 360 15 447 -19 q 206 111 272 49 q 101 257 139 174 q 63 439 63 340 q 103 624 63 538 q 213 778 143 711 q 376 883 283 844 q 574 921 469 921 q 651 915 603 921 q 747 901 699 910 q 829 883 796 892 q 863 867 863 874 q 874 780 869 814 q 878 731 878 746 q 858 683 878 683 q 824 724 839 683 q 786 792 810 764 q 706 844 763 819 q 561 868 646 868 q 375 811 457 868 q 247 657 293 754 q 200 440 200 560 q 250 228 200 321 q 383 84 300 136 q 564 32 467 32 q 728 78 682 32 q 775 190 775 125 l 778 271 q 767 319 778 304 q 710 344 756 333 q 672 353 688 350 q 646 356 656 356 q 617 363 628 356 q 607 379 607 369 q 617 396 607 389 q 635 403 628 403 l 810 397 l 933 403 q 963 381 963 403 q 951 365 963 372 q 922 353 940 357 q 885 319 897 346 q 871 256 874 292 q 868 183 868 219 l 868 146 q 882 118 868 131 q 894 100 894 104 q 875 74 894 76 q 821 49 869 72 m 346 1142 q 360 1175 346 1175 q 392 1144 374 1175 q 449 1086 408 1114 q 554 1058 490 1058 q 659 1086 618 1058 q 718 1144 700 1114 q 749 1175 735 1175 q 763 1142 763 1175 q 733 1056 763 1097 q 656 988 704 1014 q 553 961 608 961 q 450 985 497 961 q 374 1051 403 1010 q 346 1142 346 1092 z "},"Ġ":{"ha":1013,"x_min":63,"x_max":963,"o":"m 821 49 q 697 3 772 25 q 544 -19 622 -19 q 360 15 447 -19 q 206 111 272 49 q 101 257 139 174 q 63 439 63 340 q 103 624 63 538 q 213 778 143 711 q 376 883 283 844 q 574 921 469 921 q 651 915 603 921 q 747 901 699 910 q 829 883 796 892 q 863 867 863 874 q 874 780 869 814 q 878 731 878 746 q 858 683 878 683 q 824 724 839 683 q 786 792 810 764 q 706 844 763 819 q 561 868 646 868 q 375 811 457 868 q 247 657 293 754 q 200 440 200 560 q 250 228 200 321 q 383 84 300 136 q 564 32 467 32 q 728 78 682 32 q 775 190 775 125 l 778 271 q 767 319 778 304 q 710 344 756 333 q 672 353 688 350 q 646 356 656 356 q 617 363 628 356 q 607 379 607 369 q 617 396 607 389 q 635 403 628 403 l 810 397 l 933 403 q 963 381 963 403 q 951 365 963 372 q 922 353 940 357 q 885 319 897 346 q 871 256 874 292 q 868 183 868 219 l 868 146 q 882 118 868 131 q 894 100 894 104 q 875 74 894 76 q 821 49 869 72 m 504 1103 q 557 1125 526 1125 q 610 1103 588 1125 q 633 1049 633 1081 q 610 994 633 1017 q 557 972 588 972 q 503 994 526 972 q 481 1049 481 1017 q 504 1103 481 1079 z "},"Ģ":{"ha":1013,"x_min":63,"x_max":963,"o":"m 810 397 l 933 403 q 963 381 963 403 q 951 365 963 372 q 922 353 940 357 q 885 319 897 346 q 871 256 874 292 q 868 183 868 219 l 868 146 q 882 118 868 131 q 894 100 894 104 q 875 74 894 76 q 821 49 869 72 q 697 3 772 25 q 544 -19 622 -19 q 360 15 447 -19 q 206 111 272 49 q 101 257 139 174 q 63 439 63 340 q 103 624 63 538 q 213 778 143 711 q 376 883 283 844 q 574 921 469 921 q 651 915 603 921 q 747 901 699 910 q 829 883 796 892 q 863 867 863 874 q 874 780 869 814 q 878 731 878 746 q 858 683 878 683 q 824 724 839 683 q 786 792 810 764 q 706 844 763 819 q 561 868 646 868 q 375 811 457 868 q 247 657 293 754 q 200 440 200 560 q 250 228 200 321 q 383 84 300 136 q 564 32 467 32 q 728 78 682 32 q 775 190 775 125 l 778 271 q 767 319 778 304 q 710 344 756 333 q 672 353 688 350 q 646 356 656 356 q 617 363 628 356 q 607 379 607 369 q 617 396 607 389 q 635 403 628 403 l 810 397 m 499 -382 q 481 -369 481 -382 q 510 -347 481 -357 q 556 -306 538 -336 q 574 -243 574 -275 q 532 -201 574 -211 q 484 -178 506 -196 q 463 -136 463 -160 q 480 -96 463 -112 q 526 -79 497 -79 q 613 -118 576 -79 q 649 -224 649 -157 q 622 -304 649 -268 q 561 -361 596 -340 q 499 -382 526 -382 z "},"H":{"ha":1125,"x_min":51,"x_max":1069,"o":"m 244 0 l 92 -7 q 51 10 51 -7 q 100 35 51 24 q 165 65 149 43 q 181 138 181 86 l 181 765 q 168 836 181 817 q 108 864 156 856 q 61 892 61 872 q 101 907 61 907 l 244 903 l 392 907 q 432 892 432 907 q 386 864 432 872 q 292 765 292 847 l 292 499 q 311 486 292 486 l 826 486 q 836 503 836 486 l 836 767 q 744 864 836 847 q 699 892 699 872 q 739 907 699 907 l 900 903 l 1026 907 q 1067 892 1067 907 q 1021 864 1067 872 q 960 834 974 856 q 947 767 947 813 l 947 139 q 961 63 947 85 q 1022 33 975 42 q 1069 10 1069 25 q 1029 -7 1069 -7 l 885 0 l 736 -7 q 696 10 696 -7 q 742 33 696 25 q 836 135 836 53 l 836 399 q 829 419 836 419 l 299 419 q 292 404 292 419 l 292 147 q 322 73 292 104 q 400 33 353 42 q 447 10 447 25 q 407 -7 447 -7 l 244 0 z "},"Ĥ":{"ha":1125,"x_min":51,"x_max":1069,"o":"m 550 1050 q 492 1020 529 1039 q 422 988 456 1001 q 378 974 389 974 q 361 988 361 974 q 371 1004 361 996 l 507 1126 q 564 1157 542 1157 q 621 1126 586 1157 l 757 1004 q 765 988 765 999 q 750 972 765 972 q 720 981 742 972 q 672 1001 699 989 q 623 1026 646 1014 q 588 1044 600 1038 q 563 1053 574 1053 q 550 1050 554 1053 m 900 903 l 1026 907 q 1067 892 1067 907 q 1021 864 1067 872 q 960 834 974 856 q 947 767 947 813 l 947 139 q 961 63 947 85 q 1022 33 975 42 q 1069 10 1069 25 q 1029 -7 1069 -7 l 885 0 l 736 -7 q 696 10 696 -7 q 742 33 696 25 q 836 135 836 53 l 836 399 q 829 419 836 419 l 299 419 q 292 404 292 419 l 292 147 q 322 73 292 104 q 400 33 353 42 q 447 10 447 25 q 407 -7 447 -7 l 244 0 l 92 -7 q 51 10 51 -7 q 100 35 51 24 q 165 65 149 43 q 181 138 181 86 l 181 765 q 168 836 181 817 q 108 864 156 856 q 61 892 61 872 q 101 907 61 907 l 244 903 l 392 907 q 432 892 432 907 q 386 864 432 872 q 292 765 292 847 l 292 499 q 311 486 292 486 l 826 486 q 836 503 836 486 l 836 767 q 744 864 836 847 q 699 892 699 872 q 739 907 699 907 l 900 903 z "},"I":{"ha":472,"x_min":26,"x_max":447,"o":"m 244 0 l 67 -7 q 26 10 26 -7 q 78 35 26 25 q 154 66 128 43 q 181 136 181 89 l 181 764 q 160 833 181 813 q 92 864 140 854 q 42 892 42 872 q 82 907 42 907 l 244 903 l 396 907 q 436 892 436 907 q 386 864 436 872 q 314 833 336 854 q 292 764 292 811 l 292 136 q 319 66 292 89 q 397 35 346 43 q 447 10 447 25 q 407 -7 447 -7 l 244 0 z "},"Ì":{"ha":472,"x_min":26,"x_max":447,"o":"m 304 976 q 296 968 304 968 q 271 981 288 968 q 167 1060 211 1025 q 90 1122 122 1096 q 72 1150 72 1139 q 87 1165 72 1158 q 122 1176 101 1172 q 156 1181 142 1181 q 190 1163 178 1181 q 304 976 304 999 m 244 0 l 67 -7 q 26 10 26 -7 q 78 35 26 25 q 154 66 128 43 q 181 136 181 89 l 181 764 q 160 833 181 813 q 92 864 140 854 q 42 892 42 872 q 82 907 42 907 l 244 903 l 396 907 q 436 892 436 907 q 386 864 436 872 q 314 833 336 854 q 292 764 292 811 l 292 136 q 319 66 292 89 q 397 35 346 43 q 447 10 447 25 q 407 -7 447 -7 l 244 0 z "},"Í":{"ha":472,"x_min":26,"x_max":447,"o":"m 232 981 q 207 968 215 968 q 199 978 199 968 q 313 1163 199 999 q 347 1181 325 1181 q 382 1176 363 1181 q 416 1165 401 1172 q 431 1150 431 1158 q 413 1122 431 1139 q 337 1060 382 1096 q 232 981 292 1025 m 244 0 l 67 -7 q 26 10 26 -7 q 78 35 26 25 q 154 66 128 43 q 181 136 181 89 l 181 764 q 160 833 181 813 q 92 864 140 854 q 42 892 42 872 q 82 907 42 907 l 244 903 l 396 907 q 436 892 436 907 q 386 864 436 872 q 314 833 336 854 q 292 764 292 811 l 292 136 q 319 66 292 89 q 397 35 346 43 q 447 10 447 25 q 407 -7 447 -7 l 244 0 z "},"Î":{"ha":472,"x_min":26,"x_max":453,"o":"m 238 1050 q 180 1020 217 1039 q 110 988 143 1001 q 65 974 76 974 q 49 988 49 974 q 58 1004 49 996 l 194 1126 q 251 1157 229 1157 q 308 1126 274 1157 l 444 1004 q 453 988 453 999 q 438 972 453 972 q 408 981 429 972 q 360 1001 386 989 q 310 1026 333 1014 q 275 1044 288 1038 q 250 1053 261 1053 q 238 1050 242 1053 m 244 0 l 67 -7 q 26 10 26 -7 q 78 35 26 25 q 154 66 128 43 q 181 136 181 89 l 181 764 q 160 833 181 813 q 92 864 140 854 q 42 892 42 872 q 82 907 42 907 l 244 903 l 396 907 q 436 892 436 907 q 386 864 436 872 q 314 833 336 854 q 292 764 292 811 l 292 136 q 319 66 292 89 q 397 35 346 43 q 447 10 447 25 q 407 -7 447 -7 l 244 0 z "},"Ï":{"ha":472,"x_min":26,"x_max":456,"o":"m 338 1093 q 386 1113 357 1113 q 435 1092 415 1113 q 456 1043 456 1072 q 435 994 456 1014 q 386 974 415 974 q 337 994 357 974 q 317 1043 317 1014 q 338 1093 317 1072 m 67 1093 q 115 1113 86 1113 q 165 1092 144 1113 q 185 1043 185 1072 q 165 994 185 1014 q 115 974 144 974 q 66 994 86 974 q 46 1043 46 1014 q 67 1093 46 1072 m 244 0 l 67 -7 q 26 10 26 -7 q 78 35 26 25 q 154 66 128 43 q 181 136 181 89 l 181 764 q 160 833 181 813 q 92 864 140 854 q 42 892 42 872 q 82 907 42 907 l 244 903 l 396 907 q 436 892 436 907 q 386 864 436 872 q 314 833 336 854 q 292 764 292 811 l 292 136 q 319 66 292 89 q 397 35 346 43 q 447 10 447 25 q 407 -7 447 -7 l 244 0 z "},"Ĩ":{"ha":472,"x_min":26,"x_max":449,"o":"m 342 1097 q 396 1125 368 1097 q 425 1151 421 1151 q 449 1124 449 1151 q 431 1077 449 1104 q 385 1030 413 1050 q 333 1010 358 1010 l 165 1022 q 114 994 138 1022 q 86 965 89 965 q 68 972 76 965 q 60 989 60 979 q 80 1042 60 1014 q 128 1092 100 1071 q 181 1113 156 1113 l 342 1097 m 244 0 l 67 -7 q 26 10 26 -7 q 78 35 26 25 q 154 66 128 43 q 181 136 181 89 l 181 764 q 160 833 181 813 q 92 864 140 854 q 42 892 42 872 q 82 907 42 907 l 244 903 l 396 907 q 436 892 436 907 q 386 864 436 872 q 314 833 336 854 q 292 764 292 811 l 292 136 q 319 66 292 89 q 397 35 346 43 q 447 10 447 25 q 407 -7 447 -7 l 244 0 z "},"Ī":{"ha":472,"x_min":26,"x_max":460,"o":"m 442 1079 q 460 1056 460 1079 q 447 1023 460 1042 q 417 1004 433 1004 l 63 1004 q 49 1009 56 1004 q 43 1026 43 1014 q 51 1058 43 1038 q 76 1079 60 1079 l 442 1079 m 244 0 l 67 -7 q 26 10 26 -7 q 78 35 26 25 q 154 66 128 43 q 181 136 181 89 l 181 764 q 160 833 181 813 q 92 864 140 854 q 42 892 42 872 q 82 907 42 907 l 244 903 l 396 907 q 436 892 436 907 q 386 864 436 872 q 314 833 336 854 q 292 764 292 811 l 292 136 q 319 66 292 89 q 397 35 346 43 q 447 10 447 25 q 407 -7 447 -7 l 244 0 z "},"Ĭ":{"ha":472,"x_min":26,"x_max":460,"o":"m 244 0 l 67 -7 q 26 10 26 -7 q 78 35 26 25 q 154 66 128 43 q 181 136 181 89 l 181 764 q 160 833 181 813 q 92 864 140 854 q 42 892 42 872 q 82 907 42 907 l 244 903 l 396 907 q 436 892 436 907 q 386 864 436 872 q 314 833 336 854 q 292 764 292 811 l 292 136 q 319 66 292 89 q 397 35 346 43 q 447 10 447 25 q 407 -7 447 -7 l 244 0 m 43 1142 q 57 1175 43 1175 q 89 1144 71 1175 q 147 1086 106 1114 q 251 1058 188 1058 q 356 1086 315 1058 q 415 1144 397 1114 q 446 1175 432 1175 q 460 1142 460 1175 q 431 1056 460 1097 q 353 988 401 1014 q 250 961 306 961 q 147 985 194 961 q 72 1051 100 1010 q 43 1142 43 1092 z "},"Į":{"ha":472,"x_min":26,"x_max":447,"o":"m 292 -1 q 171 -215 171 -103 q 199 -276 171 -251 q 253 -300 226 -300 q 300 -292 281 -300 q 333 -275 319 -285 q 363 -253 351 -261 q 376 -244 374 -246 q 388 -242 383 -240 q 393 -253 393 -244 q 363 -316 393 -282 q 290 -374 333 -350 q 207 -399 247 -399 q 131 -378 167 -399 q 74 -321 96 -357 q 53 -240 53 -285 q 81 -153 53 -196 q 155 -70 110 -110 q 249 0 200 -31 l 244 0 l 67 -7 q 26 10 26 -7 q 78 35 26 25 q 154 66 128 43 q 181 136 181 89 l 181 764 q 160 833 181 813 q 92 864 140 854 q 42 892 42 872 q 82 907 42 907 l 244 903 l 396 907 q 436 892 436 907 q 386 864 436 872 q 314 833 336 854 q 292 764 292 811 l 292 136 q 319 66 292 89 q 397 35 346 43 q 447 10 447 25 q 407 -7 447 -7 l 292 -1 z "},"İ":{"ha":472,"x_min":26,"x_max":447,"o":"m 244 0 l 67 -7 q 26 10 26 -7 q 78 35 26 25 q 154 66 128 43 q 181 136 181 89 l 181 764 q 160 833 181 813 q 92 864 140 854 q 42 892 42 872 q 82 907 42 907 l 244 903 l 396 907 q 436 892 436 907 q 386 864 436 872 q 314 833 336 854 q 292 764 292 811 l 292 136 q 319 66 292 89 q 397 35 346 43 q 447 10 447 25 q 407 -7 447 -7 l 244 0 m 199 1103 q 251 1125 221 1125 q 305 1103 282 1125 q 328 1049 328 1081 q 305 994 328 1017 q 251 972 282 972 q 198 994 221 972 q 175 1049 175 1017 q 199 1103 175 1079 z "},"J":{"ha":417,"x_min":-96,"x_max":417,"o":"m 218 -186 q 47 -278 154 -278 q -56 -260 -18 -278 q -96 -217 -96 -243 q -80 -167 -96 -192 q -46 -143 -64 -143 q 25 -181 0 -143 q 89 -219 50 -219 q 181 0 181 -219 l 181 765 q 160 833 181 813 q 92 864 140 854 q 43 892 43 872 q 83 907 43 907 l 246 903 l 376 907 q 417 892 417 907 q 369 864 417 872 q 307 835 322 854 q 292 765 292 815 l 292 197 q 268 -86 292 -11 q 253 -128 260 -114 q 240 -154 247 -143 q 218 -186 232 -165 z "},"Ĵ":{"ha":417,"x_min":-96,"x_max":442,"o":"m 226 1050 q 169 1020 206 1039 q 99 988 132 1001 q 54 974 65 974 q 38 988 38 974 q 47 1004 38 996 l 183 1126 q 240 1157 218 1157 q 297 1126 263 1157 l 433 1004 q 442 988 442 999 q 426 972 442 972 q 397 981 418 972 q 349 1001 375 989 q 299 1026 322 1014 q 264 1044 276 1038 q 239 1053 250 1053 q 226 1050 231 1053 m 246 903 l 376 907 q 417 892 417 907 q 369 864 417 872 q 307 835 322 854 q 292 765 292 815 l 292 197 q 268 -86 292 -11 q 253 -128 260 -114 q 240 -154 247 -143 q 218 -186 232 -165 q 47 -278 154 -278 q -56 -260 -18 -278 q -96 -217 -96 -243 q -80 -167 -96 -192 q -46 -143 -64 -143 q 25 -181 0 -143 q 89 -219 50 -219 q 181 0 181 -219 l 181 765 q 160 833 181 813 q 92 864 140 854 q 43 892 43 872 q 83 907 43 907 l 246 903 z "},"K":{"ha":946,"x_min":43,"x_max":956,"o":"m 258 3 l 83 -7 q 43 10 43 -7 q 93 35 43 25 q 162 66 142 43 q 182 140 182 89 l 182 765 q 162 833 182 813 q 93 864 142 854 q 43 892 43 872 q 83 907 43 907 l 239 904 l 374 907 q 414 892 414 907 q 367 864 414 872 q 306 833 319 856 q 293 765 293 811 l 293 506 q 300 479 293 479 q 338 504 315 479 l 615 788 q 636 832 636 808 q 610 861 636 856 q 567 889 567 871 q 607 904 567 904 l 682 904 q 813 906 760 904 q 897 910 867 907 l 907 910 q 938 894 938 910 q 892 867 938 875 q 730 806 806 851 q 578 687 654 760 q 414 515 503 614 q 411 507 411 510 q 421 490 411 500 l 757 132 q 810 78 790 96 q 850 51 829 60 q 904 35 871 43 q 956 8 956 25 q 915 -7 956 -7 l 722 0 l 610 -1 q 569 14 569 -1 q 608 39 569 29 q 646 65 646 47 q 625 100 646 78 l 331 425 q 299 449 307 449 q 293 393 293 449 q 292 361 293 381 q 292 318 292 342 q 295 231 292 278 q 308 142 299 185 q 338 69 318 99 q 389 33 357 40 q 435 10 435 25 q 394 -7 435 -7 q 356 -6 375 -7 q 318 -1 336 -4 q 258 3 283 3 z "},"Ķ":{"ha":946,"x_min":43,"x_max":956,"o":"m 239 904 l 374 907 q 414 892 414 907 q 367 864 414 872 q 306 833 319 856 q 293 765 293 811 l 293 506 q 300 479 293 479 q 338 504 315 479 l 615 788 q 636 832 636 808 q 610 861 636 856 q 567 889 567 871 q 607 904 567 904 l 682 904 q 813 906 760 904 q 897 910 867 907 l 907 910 q 938 894 938 910 q 892 867 938 875 q 730 806 806 851 q 578 687 654 760 q 414 515 503 614 q 421 490 406 506 l 757 132 q 810 78 790 96 q 850 51 829 60 q 904 35 871 43 q 956 8 956 25 q 915 -7 956 -7 l 722 0 l 610 -1 q 569 14 569 -1 q 608 39 569 29 q 646 65 646 47 q 625 100 646 78 l 331 425 q 299 449 307 449 q 293 393 293 449 q 292 361 293 381 q 292 318 292 342 q 295 231 292 278 q 308 142 299 185 q 338 69 318 99 q 389 33 357 40 q 435 10 435 25 q 394 -7 435 -7 q 356 -6 375 -7 q 318 -1 336 -4 q 258 3 283 3 l 83 -7 q 43 10 43 -7 q 93 35 43 25 q 162 66 142 43 q 182 140 182 89 l 182 765 q 162 833 182 813 q 93 864 142 854 q 43 892 43 872 q 83 907 43 907 l 239 904 m 435 -382 q 417 -369 417 -382 q 446 -347 417 -357 q 492 -306 474 -336 q 510 -243 510 -275 q 468 -201 510 -211 q 420 -178 442 -196 q 399 -136 399 -160 q 416 -96 399 -112 q 463 -79 433 -79 q 549 -118 513 -79 q 585 -224 585 -157 q 558 -304 585 -268 q 497 -361 532 -340 q 435 -382 463 -382 z "},"L":{"ha":797,"x_min":38,"x_max":799,"o":"m 264 0 l 76 -7 q 38 10 38 -7 q 68 33 38 25 q 153 67 125 44 q 181 133 181 89 l 181 778 q 165 840 181 826 q 100 864 150 854 q 50 892 50 872 q 90 907 50 907 l 246 903 l 421 907 q 461 892 461 907 q 422 865 461 871 q 366 854 383 858 q 328 842 349 850 q 292 788 292 826 l 292 133 q 313 68 292 88 q 399 49 333 49 l 601 49 q 636 60 607 49 q 751 183 708 90 q 783 225 767 225 q 799 200 799 225 q 797 196 797 199 l 797 193 q 760 17 767 75 q 740 -7 757 -7 l 264 0 z "},"Ĺ":{"ha":797,"x_min":38,"x_max":799,"o":"m 239 981 q 214 968 222 968 q 206 978 206 968 q 319 1163 206 999 q 354 1181 332 1181 q 389 1176 369 1181 q 423 1165 408 1172 q 438 1150 438 1158 q 419 1122 438 1139 q 344 1060 389 1096 q 239 981 299 1025 m 246 903 l 421 907 q 461 892 461 907 q 422 865 461 871 q 366 854 383 858 q 328 842 349 850 q 292 788 292 826 l 292 133 q 313 68 292 88 q 399 49 333 49 l 601 49 q 636 60 607 49 q 751 183 708 90 q 783 225 767 225 q 799 200 799 225 q 797 196 797 199 l 797 193 q 760 17 767 75 q 740 -7 757 -7 l 264 0 l 76 -7 q 38 10 38 -7 q 68 33 38 25 q 153 67 125 44 q 181 133 181 89 l 181 778 q 165 840 181 826 q 100 864 150 854 q 50 892 50 872 q 90 907 50 907 l 246 903 z "},"Ļ":{"ha":797,"x_min":38,"x_max":799,"o":"m 246 903 l 421 907 q 461 892 461 907 q 422 865 461 871 q 366 854 383 858 q 328 842 349 850 q 292 788 292 826 l 292 133 q 313 68 292 88 q 399 49 333 49 l 601 49 q 636 60 607 49 q 751 183 708 90 q 783 225 767 225 q 799 200 799 225 q 797 196 797 199 l 797 193 q 760 17 767 75 q 740 -7 757 -7 l 264 0 l 76 -7 q 38 10 38 -7 q 68 33 38 25 q 153 67 125 44 q 181 133 181 89 l 181 778 q 165 840 181 826 q 100 864 150 854 q 50 892 50 872 q 90 907 50 907 l 246 903 m 378 -382 q 360 -369 360 -382 q 389 -347 360 -357 q 435 -306 417 -336 q 453 -243 453 -275 q 411 -201 453 -211 q 363 -178 385 -196 q 342 -136 342 -160 q 359 -96 342 -112 q 406 -79 376 -79 q 492 -118 456 -79 q 528 -224 528 -157 q 501 -304 528 -268 q 440 -361 475 -340 q 378 -382 406 -382 z "},"Ľ":{"ha":797,"x_min":38,"x_max":799,"o":"m 635 690 q 617 667 629 678 q 597 656 604 656 q 590 679 590 656 q 590 703 589 690 q 592 728 590 715 q 594 748 593 740 q 594 758 594 756 q 594 771 594 761 q 592 797 593 781 q 589 825 590 813 q 588 849 588 838 q 593 878 588 864 q 614 903 599 892 q 663 924 642 924 q 689 882 689 924 q 688 863 689 867 q 635 690 675 774 m 246 903 l 421 907 q 461 892 461 907 q 422 865 461 871 q 366 854 383 858 q 328 842 349 850 q 292 788 292 826 l 292 133 q 313 68 292 88 q 399 49 333 49 l 601 49 q 636 60 607 49 q 751 183 708 90 q 783 225 767 225 q 799 200 799 225 q 797 196 797 199 l 797 193 q 760 17 767 75 q 740 -7 757 -7 l 264 0 l 76 -7 q 38 10 38 -7 q 68 33 38 25 q 153 67 125 44 q 181 133 181 89 l 181 778 q 165 840 181 826 q 100 864 150 854 q 50 892 50 872 q 90 907 50 907 l 246 903 z "},"M":{"ha":1251,"x_min":26,"x_max":1201,"o":"m 582 19 q 560 -14 568 -14 q 539 22 551 -14 q 438 297 500 139 q 290 654 376 456 q 279 669 285 669 q 272 654 274 669 q 239 362 250 490 q 228 142 228 233 q 250 75 228 108 q 318 33 272 42 q 364 10 364 25 q 324 -7 364 -7 l 193 0 l 67 -7 q 26 10 26 -7 q 72 33 26 25 q 158 142 144 46 q 201 507 186 356 q 215 747 215 658 l 214 779 q 200 816 214 799 q 175 840 186 833 q 150 852 165 847 q 125 860 135 857 q 113 863 119 861 q 99 867 107 865 q 70 874 82 869 q 58 894 58 878 q 90 910 58 910 l 321 899 q 358 817 339 899 q 366 787 363 799 q 371 769 369 775 l 590 213 q 607 192 599 192 q 622 208 614 192 l 896 778 q 903 800 900 788 q 910 828 907 813 q 935 900 922 900 l 985 900 q 1024 901 1001 900 q 1074 906 1046 903 q 1117 910 1101 908 q 1139 911 1133 911 l 1143 911 q 1172 897 1172 911 q 1155 875 1172 885 q 1116 859 1138 865 q 1083 849 1094 853 q 1043 826 1065 843 q 1021 789 1021 810 q 1024 597 1021 696 q 1035 396 1028 499 q 1051 139 1049 190 q 1078 66 1054 89 q 1153 35 1103 43 q 1201 10 1201 24 q 1161 -7 1201 -7 l 999 0 l 853 -7 q 813 8 813 -7 q 856 33 813 28 q 914 61 899 39 q 929 133 929 83 q 913 644 929 269 q 906 667 913 667 q 890 644 900 667 l 582 19 z "},"N":{"ha":1069,"x_min":3,"x_max":1056,"o":"m 919 11 q 890 -24 919 -24 q 842 0 876 -24 q 775 69 807 24 q 634 244 757 93 q 283 672 511 394 q 254 694 265 694 q 242 665 242 694 q 237 363 239 493 q 235 144 235 233 q 324 33 235 50 q 369 10 369 25 q 329 -7 369 -7 l 199 0 l 72 -7 q 32 10 32 -7 q 72 32 32 25 q 117 58 99 38 q 145 105 135 79 q 158 149 156 131 q 183 704 183 357 q 150 806 183 772 q 60 857 117 839 q 3 894 3 876 q 35 914 3 914 l 249 907 q 282 883 263 907 q 317 839 288 876 q 391 744 346 801 q 489 621 436 688 q 595 487 542 554 q 694 362 649 419 q 772 266 740 304 q 810 219 803 228 q 847 189 835 189 q 860 218 858 189 q 862 374 861 263 q 863 663 863 485 l 863 783 q 835 833 861 808 q 772 863 808 857 q 736 888 736 869 q 776 903 736 903 l 856 903 l 1015 907 q 1056 892 1056 907 q 1007 864 1056 872 q 942 839 958 854 q 922 774 925 824 q 920 557 921 747 q 919 11 919 367 z "},"Ñ":{"ha":1069,"x_min":3,"x_max":1056,"o":"m 661 1097 q 715 1125 688 1097 q 744 1151 740 1151 q 768 1124 768 1151 q 750 1077 768 1104 q 705 1030 732 1050 q 653 1010 678 1010 l 485 1022 q 433 994 457 1022 q 406 965 408 965 q 388 972 396 965 q 379 989 379 979 q 399 1042 379 1014 q 447 1092 419 1071 q 500 1113 475 1113 l 661 1097 m 249 907 q 282 883 263 907 q 317 839 288 876 q 391 744 346 801 q 489 621 436 688 q 595 487 542 554 q 694 362 649 419 q 772 266 740 304 q 810 219 803 228 q 847 189 835 189 q 860 218 858 189 q 862 374 861 263 q 863 663 863 485 l 863 783 q 835 833 861 808 q 772 863 808 857 q 736 888 736 869 q 776 903 736 903 l 856 903 l 1015 907 q 1056 892 1056 907 q 1007 864 1056 872 q 942 839 958 854 q 922 774 925 824 q 920 557 921 747 q 919 11 919 367 q 890 -24 919 -24 q 842 0 876 -24 q 775 69 807 24 q 634 244 757 93 q 283 672 511 394 q 254 694 265 694 q 242 665 242 694 q 237 363 239 493 q 235 144 235 233 q 324 33 235 50 q 369 10 369 25 q 329 -7 369 -7 l 199 0 l 72 -7 q 32 10 32 -7 q 72 32 32 25 q 117 58 99 38 q 145 105 135 79 q 158 149 156 131 q 183 704 183 357 q 150 806 183 772 q 60 857 117 839 q 3 894 3 876 q 35 914 3 914 l 249 907 z "},"Ń":{"ha":1069,"x_min":3,"x_max":1056,"o":"m 551 981 q 526 968 535 968 q 518 978 518 968 q 632 1163 518 999 q 667 1181 644 1181 q 701 1176 682 1181 q 735 1165 721 1172 q 750 1150 750 1158 q 732 1122 750 1139 q 656 1060 701 1096 q 551 981 611 1025 m 249 907 q 282 883 263 907 q 317 839 288 876 q 391 744 346 801 q 489 621 436 688 q 595 487 542 554 q 694 362 649 419 q 772 266 740 304 q 810 219 803 228 q 847 189 835 189 q 860 218 858 189 q 862 374 861 263 q 863 663 863 485 l 863 783 q 835 833 861 808 q 772 863 808 857 q 736 888 736 869 q 776 903 736 903 l 856 903 l 1015 907 q 1056 892 1056 907 q 1007 864 1056 872 q 942 839 958 854 q 922 774 925 824 q 920 557 921 747 q 919 11 919 367 q 890 -24 919 -24 q 842 0 876 -24 q 775 69 807 24 q 634 244 757 93 q 283 672 511 394 q 254 694 265 694 q 242 665 242 694 q 237 363 239 493 q 235 144 235 233 q 324 33 235 50 q 369 10 369 25 q 329 -7 369 -7 l 199 0 l 72 -7 q 32 10 32 -7 q 72 32 32 25 q 117 58 99 38 q 145 105 135 79 q 158 149 156 131 q 183 704 183 357 q 150 806 183 772 q 60 857 117 839 q 3 894 3 876 q 35 914 3 914 l 249 907 z "},"Ņ":{"ha":1069,"x_min":3,"x_max":1056,"o":"m 249 907 q 282 883 263 907 q 317 839 288 876 q 391 744 346 801 q 489 621 436 688 q 595 487 542 554 q 694 362 649 419 q 772 266 740 304 q 810 219 803 228 q 847 189 835 189 q 860 218 858 189 q 862 374 861 263 q 863 663 863 485 l 863 783 q 835 833 861 808 q 772 863 808 857 q 736 888 736 869 q 776 903 736 903 l 856 903 l 1015 907 q 1056 892 1056 907 q 1007 864 1056 872 q 942 839 958 854 q 922 774 925 824 q 920 557 921 747 q 919 11 919 367 q 890 -24 919 -24 q 842 0 876 -24 q 775 69 807 24 q 634 244 757 93 q 283 672 511 394 q 254 694 265 694 q 242 665 242 694 q 237 363 239 493 q 235 144 235 233 q 324 33 235 50 q 369 10 369 25 q 329 -7 369 -7 l 199 0 l 72 -7 q 32 10 32 -7 q 72 32 32 25 q 117 58 99 38 q 145 105 135 79 q 158 149 156 131 q 183 704 183 357 q 150 806 183 772 q 60 857 117 839 q 3 894 3 876 q 35 914 3 914 l 249 907 m 504 -382 q 486 -369 486 -382 q 515 -347 486 -357 q 561 -306 543 -336 q 579 -243 579 -275 q 538 -201 579 -211 q 490 -178 511 -196 q 468 -136 468 -160 q 485 -96 468 -112 q 532 -79 503 -79 q 618 -118 582 -79 q 654 -224 654 -157 q 628 -304 654 -268 q 567 -361 601 -340 q 504 -382 532 -382 z "},"Ň":{"ha":1069,"x_min":3,"x_max":1056,"o":"m 368 1142 q 385 1156 368 1156 q 415 1147 393 1156 q 464 1126 438 1139 q 514 1103 490 1114 q 549 1085 538 1092 q 572 1076 564 1076 q 585 1079 581 1076 q 644 1111 607 1093 q 713 1143 681 1129 q 757 1157 746 1157 q 772 1142 772 1157 q 764 1125 772 1132 l 628 1003 q 571 972 593 972 q 514 1003 549 972 l 378 1125 q 368 1142 368 1133 m 249 907 q 282 883 263 907 q 317 839 288 876 q 391 744 346 801 q 489 621 436 688 q 595 487 542 554 q 694 362 649 419 q 772 266 740 304 q 810 219 803 228 q 847 189 835 189 q 860 218 858 189 q 862 374 861 263 q 863 663 863 485 l 863 783 q 835 833 861 808 q 772 863 808 857 q 736 888 736 869 q 776 903 736 903 l 856 903 l 1015 907 q 1056 892 1056 907 q 1007 864 1056 872 q 942 839 958 854 q 922 774 925 824 q 920 557 921 747 q 919 11 919 367 q 890 -24 919 -24 q 842 0 876 -24 q 775 69 807 24 q 634 244 757 93 q 283 672 511 394 q 254 694 265 694 q 242 665 242 694 q 237 363 239 493 q 235 144 235 233 q 324 33 235 50 q 369 10 369 25 q 329 -7 369 -7 l 199 0 l 72 -7 q 32 10 32 -7 q 72 32 32 25 q 117 58 99 38 q 145 105 135 79 q 158 149 156 131 q 183 704 183 357 q 150 806 183 772 q 60 857 117 839 q 3 894 3 876 q 35 914 3 914 l 249 907 z "},"O":{"ha":1060,"x_min":63,"x_max":997,"o":"m 878 129 q 731 21 821 61 q 531 -19 640 -19 q 353 16 438 -19 q 203 115 268 51 q 100 263 138 179 q 63 444 63 347 q 116 680 63 574 q 281 854 169 786 q 542 922 390 922 q 717 889 635 922 q 863 794 800 856 q 961 649 925 732 q 997 465 997 565 q 878 129 997 269 m 197 472 q 224 309 197 388 q 298 169 250 231 q 410 71 346 107 q 550 35 475 35 q 782 138 701 35 q 863 435 863 242 q 822 660 863 563 q 708 813 782 758 q 529 868 633 868 q 351 816 426 868 q 237 674 276 764 q 197 472 197 585 z "},"Ò":{"ha":1060,"x_min":63,"x_max":997,"o":"m 585 976 q 576 968 585 968 q 551 981 568 968 q 447 1060 492 1025 q 371 1122 403 1096 q 353 1150 353 1139 q 367 1165 353 1158 q 402 1176 382 1172 q 436 1181 422 1181 q 471 1163 458 1181 q 585 976 585 999 m 63 444 q 116 680 63 574 q 281 854 169 786 q 542 922 390 922 q 717 889 635 922 q 863 794 800 856 q 961 649 925 732 q 997 465 997 565 q 878 129 997 269 q 731 21 821 61 q 531 -19 640 -19 q 353 16 438 -19 q 203 115 268 51 q 100 263 138 179 q 63 444 63 347 m 863 435 q 822 660 863 563 q 708 813 782 758 q 529 868 633 868 q 351 816 426 868 q 237 674 276 764 q 197 472 197 585 q 224 309 197 388 q 298 169 250 231 q 410 71 346 107 q 550 35 475 35 q 782 138 701 35 q 863 435 863 242 z "},"Ó":{"ha":1060,"x_min":63,"x_max":997,"o":"m 513 981 q 488 968 496 968 q 479 978 479 968 q 593 1163 479 999 q 628 1181 606 1181 q 663 1176 643 1181 q 697 1165 682 1172 q 711 1150 711 1158 q 693 1122 711 1139 q 617 1060 663 1096 q 513 981 572 1025 m 63 444 q 116 680 63 574 q 281 854 169 786 q 542 922 390 922 q 717 889 635 922 q 863 794 800 856 q 961 649 925 732 q 997 465 997 565 q 878 129 997 269 q 731 21 821 61 q 531 -19 640 -19 q 353 16 438 -19 q 203 115 268 51 q 100 263 138 179 q 63 444 63 347 m 863 435 q 822 660 863 563 q 708 813 782 758 q 529 868 633 868 q 351 816 426 868 q 237 674 276 764 q 197 472 197 585 q 224 309 197 388 q 298 169 250 231 q 410 71 346 107 q 550 35 475 35 q 782 138 701 35 q 863 435 863 242 z "},"Ô":{"ha":1060,"x_min":63,"x_max":997,"o":"m 518 1050 q 460 1020 497 1039 q 390 988 424 1001 q 346 974 357 974 q 329 988 329 974 q 339 1004 329 996 l 475 1126 q 532 1157 510 1157 q 589 1126 554 1157 l 725 1004 q 733 988 733 999 q 718 972 733 972 q 688 981 710 972 q 640 1001 667 989 q 591 1026 614 1014 q 556 1044 568 1038 q 531 1053 542 1053 q 518 1050 522 1053 m 63 444 q 116 680 63 574 q 281 854 169 786 q 542 922 390 922 q 717 889 635 922 q 863 794 800 856 q 961 649 925 732 q 997 465 997 565 q 878 129 997 269 q 731 21 821 61 q 531 -19 640 -19 q 353 16 438 -19 q 203 115 268 51 q 100 263 138 179 q 63 444 63 347 m 863 435 q 822 660 863 563 q 708 813 782 758 q 529 868 633 868 q 351 816 426 868 q 237 674 276 764 q 197 472 197 585 q 224 309 197 388 q 298 169 250 231 q 410 71 346 107 q 550 35 475 35 q 782 138 701 35 q 863 435 863 242 z "},"Õ":{"ha":1060,"x_min":63,"x_max":997,"o":"m 622 1097 q 676 1125 649 1097 q 706 1151 701 1151 q 729 1124 729 1151 q 711 1077 729 1104 q 666 1030 693 1050 q 614 1010 639 1010 l 446 1022 q 394 994 418 1022 q 367 965 369 965 q 349 972 357 965 q 340 989 340 979 q 360 1042 340 1014 q 408 1092 381 1071 q 461 1113 436 1113 l 622 1097 m 63 444 q 116 680 63 574 q 281 854 169 786 q 542 922 390 922 q 717 889 635 922 q 863 794 800 856 q 961 649 925 732 q 997 465 997 565 q 878 129 997 269 q 731 21 821 61 q 531 -19 640 -19 q 353 16 438 -19 q 203 115 268 51 q 100 263 138 179 q 63 444 63 347 m 863 435 q 822 660 863 563 q 708 813 782 758 q 529 868 633 868 q 351 816 426 868 q 237 674 276 764 q 197 472 197 585 q 224 309 197 388 q 298 169 250 231 q 410 71 346 107 q 550 35 475 35 q 782 138 701 35 q 863 435 863 242 z "},"Ö":{"ha":1060,"x_min":63,"x_max":997,"o":"m 618 1093 q 667 1113 638 1113 q 716 1092 696 1113 q 736 1043 736 1072 q 716 994 736 1014 q 667 974 696 974 q 617 994 638 974 q 597 1043 597 1014 q 618 1093 597 1072 m 347 1093 q 396 1113 367 1113 q 445 1092 425 1113 q 465 1043 465 1072 q 445 994 465 1014 q 396 974 425 974 q 347 994 367 974 q 326 1043 326 1014 q 347 1093 326 1072 m 63 444 q 116 680 63 574 q 281 854 169 786 q 542 922 390 922 q 717 889 635 922 q 863 794 800 856 q 961 649 925 732 q 997 465 997 565 q 878 129 997 269 q 731 21 821 61 q 531 -19 640 -19 q 353 16 438 -19 q 203 115 268 51 q 100 263 138 179 q 63 444 63 347 m 863 435 q 822 660 863 563 q 708 813 782 758 q 529 868 633 868 q 351 816 426 868 q 237 674 276 764 q 197 472 197 585 q 224 309 197 388 q 298 169 250 231 q 410 71 346 107 q 550 35 475 35 q 782 138 701 35 q 863 435 863 242 z "},"Ō":{"ha":1060,"x_min":63,"x_max":997,"o":"m 722 1079 q 740 1056 740 1079 q 727 1023 740 1042 q 697 1004 714 1004 l 343 1004 q 330 1009 336 1004 q 324 1026 324 1014 q 332 1058 324 1038 q 357 1079 340 1079 l 722 1079 m 63 444 q 116 680 63 574 q 281 854 169 786 q 542 922 390 922 q 717 889 635 922 q 863 794 800 856 q 961 649 925 732 q 997 465 997 565 q 878 129 997 269 q 731 21 821 61 q 531 -19 640 -19 q 353 16 438 -19 q 203 115 268 51 q 100 263 138 179 q 63 444 63 347 m 863 435 q 822 660 863 563 q 708 813 782 758 q 529 868 633 868 q 351 816 426 868 q 237 674 276 764 q 197 472 197 585 q 224 309 197 388 q 298 169 250 231 q 410 71 346 107 q 550 35 475 35 q 782 138 701 35 q 863 435 863 242 z "},"Ŏ":{"ha":1060,"x_min":63,"x_max":997,"o":"m 878 129 q 731 21 821 61 q 531 -19 640 -19 q 353 16 438 -19 q 203 115 268 51 q 100 263 138 179 q 63 444 63 347 q 116 680 63 574 q 281 854 169 786 q 542 922 390 922 q 717 889 635 922 q 863 794 800 856 q 961 649 925 732 q 997 465 997 565 q 878 129 997 269 m 197 472 q 224 309 197 388 q 298 169 250 231 q 410 71 346 107 q 550 35 475 35 q 782 138 701 35 q 863 435 863 242 q 822 660 863 563 q 708 813 782 758 q 529 868 633 868 q 351 816 426 868 q 237 674 276 764 q 197 472 197 585 m 325 1142 q 339 1175 325 1175 q 371 1144 353 1175 q 428 1086 388 1114 q 533 1058 469 1058 q 638 1086 597 1058 q 697 1144 679 1114 q 728 1175 714 1175 q 742 1142 742 1175 q 713 1056 742 1097 q 635 988 683 1014 q 532 961 588 961 q 429 985 476 961 q 353 1051 382 1010 q 325 1142 325 1092 z "},"Ő":{"ha":1060,"x_min":63,"x_max":997,"o":"m 614 981 q 589 968 597 968 q 581 978 581 968 q 694 1163 581 999 q 729 1181 707 1181 q 764 1176 744 1181 q 798 1165 783 1172 q 813 1150 813 1158 q 794 1122 813 1139 q 719 1060 764 1096 q 614 981 674 1025 m 431 981 q 406 968 414 968 q 397 978 397 968 q 511 1163 397 999 q 546 1181 524 1181 q 581 1176 561 1181 q 615 1165 600 1172 q 629 1150 629 1158 q 611 1122 629 1139 q 535 1060 581 1096 q 431 981 490 1025 m 63 444 q 116 680 63 574 q 281 854 169 786 q 542 922 390 922 q 717 889 635 922 q 863 794 800 856 q 961 649 925 732 q 997 465 997 565 q 878 129 997 269 q 731 21 821 61 q 531 -19 640 -19 q 353 16 438 -19 q 203 115 268 51 q 100 263 138 179 q 63 444 63 347 m 863 435 q 822 660 863 563 q 708 813 782 758 q 529 868 633 868 q 351 816 426 868 q 237 674 276 764 q 197 472 197 585 q 224 309 197 388 q 298 169 250 231 q 410 71 346 107 q 550 35 475 35 q 782 138 701 35 q 863 435 863 242 z "},"P":{"ha":767,"x_min":33,"x_max":738,"o":"m 254 3 l 74 -7 q 33 10 33 -7 q 83 35 33 25 q 157 66 133 43 q 181 139 181 89 l 181 725 q 164 824 181 792 q 99 864 147 856 q 50 892 50 872 q 90 907 50 907 l 226 906 l 381 914 q 566 884 486 914 q 692 799 646 854 q 738 669 738 744 q 701 507 738 579 q 594 394 664 435 q 421 353 524 353 q 376 361 393 353 q 358 379 358 369 q 366 390 358 385 q 381 394 374 394 l 401 392 l 444 388 q 613 636 613 388 q 550 817 613 758 q 381 875 488 875 q 292 817 292 875 l 292 154 q 385 33 292 50 q 431 10 431 25 q 390 -7 431 -7 q 351 -6 371 -7 q 314 -1 332 -4 q 254 3 279 3 z "},"Q":{"ha":1119,"x_min":63,"x_max":1233,"o":"m 1208 -299 q 1040 -344 1129 -344 q 932 -333 982 -344 q 833 -297 882 -322 q 726 -231 785 -272 q 631 -161 683 -200 q 519 -75 579 -122 q 472 -44 506 -64 q 402 -6 438 -24 q 347 18 367 13 q 269 58 318 25 q 172 143 219 92 q 94 269 125 194 q 63 426 63 344 q 99 620 63 531 q 203 777 136 710 q 361 882 271 844 q 558 919 451 919 q 795 872 683 919 q 982 722 907 824 q 1057 486 1057 621 q 1031 311 1057 392 q 968 178 1006 231 q 860 71 929 125 q 690 -11 790 17 q 671 -24 671 -18 q 676 -36 671 -31 q 774 -126 721 -82 q 881 -202 828 -169 q 972 -247 933 -235 q 1101 -267 1035 -267 q 1189 -258 1171 -267 q 1221 -251 1210 -251 q 1233 -267 1233 -251 q 1208 -299 1233 -283 m 193 492 q 224 313 193 399 q 311 161 256 228 q 440 56 367 94 q 597 17 514 17 q 721 49 664 17 q 821 134 778 81 q 889 251 864 188 q 925 450 925 351 q 894 608 925 533 q 811 742 864 683 q 689 835 758 801 q 540 869 619 869 q 358 817 436 869 q 236 678 279 764 q 193 492 193 593 z "},"R":{"ha":957,"x_min":33,"x_max":997,"o":"m 997 19 q 960 -18 997 -7 q 885 -29 924 -29 q 766 0 819 -29 q 671 72 713 29 q 599 159 629 115 q 549 232 568 203 q 513 286 529 261 q 486 331 497 311 q 313 419 438 406 l 310 419 q 292 392 292 419 l 292 153 q 385 33 292 50 q 431 10 431 25 q 390 -7 431 -7 q 351 -6 371 -7 q 314 -1 332 -4 q 254 3 279 3 l 74 -7 q 33 10 33 -7 q 83 35 33 25 q 157 66 133 43 q 181 139 181 89 l 181 725 q 164 824 181 792 q 99 864 147 856 q 50 892 50 872 q 90 907 50 907 l 226 906 l 386 913 q 699 685 699 913 q 535 451 699 535 q 529 444 529 449 q 531 440 529 443 q 535 433 533 438 q 586 356 567 386 q 622 303 606 326 q 656 258 638 281 q 701 203 674 236 q 758 139 729 169 q 817 81 786 108 q 885 43 850 51 q 976 35 919 35 q 997 19 997 35 m 292 506 q 308 465 292 474 q 365 457 325 457 q 474 485 428 457 q 547 561 521 513 q 574 669 574 610 q 534 815 574 760 q 386 871 494 871 q 316 851 333 871 q 297 796 299 832 q 293 656 294 728 q 292 506 292 583 z "},"Ŕ":{"ha":957,"x_min":33,"x_max":997,"o":"m 374 981 q 349 968 357 968 q 340 978 340 968 q 454 1163 340 999 q 489 1181 467 1181 q 524 1176 504 1181 q 558 1165 543 1172 q 572 1150 572 1158 q 554 1122 572 1139 q 478 1060 524 1096 q 374 981 433 1025 m 226 906 l 386 913 q 699 685 699 913 q 535 451 699 535 q 535 433 525 447 q 586 356 567 386 q 622 303 606 326 q 656 258 638 281 q 701 203 674 236 q 758 139 729 169 q 817 81 786 108 q 885 43 850 51 q 976 35 919 35 q 997 19 997 35 q 960 -18 997 -7 q 885 -29 924 -29 q 766 0 819 -29 q 671 72 713 29 q 599 159 629 115 q 549 232 568 203 q 513 286 529 261 q 486 331 497 311 q 313 419 438 406 q 292 392 292 422 l 292 153 q 385 33 292 50 q 431 10 431 25 q 390 -7 431 -7 q 351 -6 371 -7 q 314 -1 332 -4 q 254 3 279 3 l 74 -7 q 33 10 33 -7 q 83 35 33 25 q 157 66 133 43 q 181 139 181 89 l 181 725 q 164 824 181 792 q 99 864 147 856 q 50 892 50 872 q 90 907 50 907 l 226 906 m 365 457 q 474 485 428 457 q 547 561 521 513 q 574 669 574 610 q 534 815 574 760 q 386 871 494 871 q 316 851 333 871 q 297 796 299 832 q 293 656 294 728 q 292 506 292 583 q 308 465 292 474 q 365 457 325 457 z "},"Ŗ":{"ha":957,"x_min":33,"x_max":997,"o":"m 226 906 l 386 913 q 699 685 699 913 q 535 451 699 535 q 535 433 525 447 q 586 356 567 386 q 622 303 606 326 q 656 258 638 281 q 701 203 674 236 q 758 139 729 169 q 817 81 786 108 q 885 43 850 51 q 976 35 919 35 q 997 19 997 35 q 960 -18 997 -7 q 885 -29 924 -29 q 766 0 819 -29 q 671 72 713 29 q 599 159 629 115 q 549 232 568 203 q 513 286 529 261 q 486 331 497 311 q 313 419 438 406 q 292 392 292 422 l 292 153 q 385 33 292 50 q 431 10 431 25 q 390 -7 431 -7 q 351 -6 371 -7 q 314 -1 332 -4 q 254 3 279 3 l 74 -7 q 33 10 33 -7 q 83 35 33 25 q 157 66 133 43 q 181 139 181 89 l 181 725 q 164 824 181 792 q 99 864 147 856 q 50 892 50 872 q 90 907 50 907 l 226 906 m 365 457 q 474 485 428 457 q 547 561 521 513 q 574 669 574 610 q 534 815 574 760 q 386 871 494 871 q 316 851 333 871 q 297 796 299 832 q 293 656 294 728 q 292 506 292 583 q 308 465 292 474 q 365 457 325 457 m 461 -382 q 443 -369 443 -382 q 472 -347 443 -357 q 518 -306 500 -336 q 536 -243 536 -275 q 494 -201 536 -211 q 447 -178 468 -196 q 425 -136 425 -160 q 442 -96 425 -112 q 489 -79 460 -79 q 575 -118 539 -79 q 611 -224 611 -157 q 585 -304 611 -268 q 524 -361 558 -340 q 461 -382 489 -382 z "},"Ř":{"ha":957,"x_min":33,"x_max":997,"o":"m 190 1142 q 207 1156 190 1156 q 238 1147 215 1156 q 286 1126 260 1139 q 336 1103 313 1114 q 371 1085 360 1092 q 394 1076 386 1076 q 407 1079 403 1076 q 466 1111 429 1093 q 535 1143 503 1129 q 579 1157 568 1157 q 594 1142 594 1157 q 586 1125 594 1132 l 450 1003 q 393 972 415 972 q 336 1003 371 972 l 200 1125 q 190 1142 190 1133 m 226 906 l 386 913 q 699 685 699 913 q 535 451 699 535 q 535 433 525 447 q 586 356 567 386 q 622 303 606 326 q 656 258 638 281 q 701 203 674 236 q 758 139 729 169 q 817 81 786 108 q 885 43 850 51 q 976 35 919 35 q 997 19 997 35 q 960 -18 997 -7 q 885 -29 924 -29 q 766 0 819 -29 q 671 72 713 29 q 599 159 629 115 q 549 232 568 203 q 513 286 529 261 q 486 331 497 311 q 313 419 438 406 q 292 392 292 422 l 292 153 q 385 33 292 50 q 431 10 431 25 q 390 -7 431 -7 q 351 -6 371 -7 q 314 -1 332 -4 q 254 3 279 3 l 74 -7 q 33 10 33 -7 q 83 35 33 25 q 157 66 133 43 q 181 139 181 89 l 181 725 q 164 824 181 792 q 99 864 147 856 q 50 892 50 872 q 90 907 50 907 l 226 906 m 365 457 q 474 485 428 457 q 547 561 521 513 q 574 669 574 610 q 534 815 574 760 q 386 871 494 871 q 316 851 333 871 q 297 796 299 832 q 293 656 294 728 q 292 506 292 583 q 308 465 292 474 q 365 457 325 457 z "},"S":{"ha":646,"x_min":57,"x_max":586,"o":"m 586 222 q 554 103 586 158 q 458 13 522 47 q 297 -22 394 -22 q 111 11 182 -22 q 82 35 89 21 q 57 194 57 88 q 66 220 57 206 q 88 235 75 235 q 128 143 99 235 q 315 24 168 24 q 428 67 386 24 q 469 183 469 110 q 258 442 469 300 q 128 557 174 499 q 82 700 82 615 q 118 808 82 757 q 217 890 154 858 q 361 922 281 922 q 476 908 433 922 q 526 894 519 894 q 548 868 540 894 q 559 808 556 842 q 563 749 563 774 q 553 711 563 711 q 504 750 513 711 q 451 843 494 810 q 346 876 408 876 q 235 835 282 876 q 189 726 189 794 q 219 647 189 685 q 293 577 250 608 q 374 521 336 546 q 586 222 586 383 z "},"Ś":{"ha":646,"x_min":57,"x_max":586,"o":"m 314 981 q 289 968 297 968 q 281 978 281 968 q 394 1163 281 999 q 429 1181 407 1181 q 464 1176 444 1181 q 498 1165 483 1172 q 513 1150 513 1158 q 494 1122 513 1139 q 419 1060 464 1096 q 314 981 374 1025 m 128 143 q 315 24 168 24 q 428 67 386 24 q 469 183 469 110 q 258 442 469 300 q 128 557 174 499 q 82 700 82 615 q 118 808 82 757 q 217 890 154 858 q 361 922 281 922 q 476 908 433 922 q 526 894 519 894 q 548 868 540 894 q 559 808 556 842 q 563 749 563 774 q 553 711 563 711 q 504 750 513 711 q 451 843 494 810 q 346 876 408 876 q 235 835 282 876 q 189 726 189 794 q 219 647 189 685 q 293 577 250 608 q 374 521 336 546 q 586 222 586 383 q 554 103 586 158 q 458 13 522 47 q 297 -22 394 -22 q 111 11 182 -22 q 82 35 89 21 q 57 194 57 88 q 66 220 57 206 q 88 235 75 235 q 128 143 99 235 z "},"Ŝ":{"ha":646,"x_min":57,"x_max":586,"o":"m 319 1050 q 262 1020 299 1039 q 192 988 225 1001 q 147 974 158 974 q 131 988 131 974 q 140 1004 131 996 l 276 1126 q 333 1157 311 1157 q 390 1126 356 1157 l 526 1004 q 535 988 535 999 q 519 972 535 972 q 490 981 511 972 q 442 1001 468 989 q 392 1026 415 1014 q 357 1044 369 1038 q 332 1053 343 1053 q 319 1050 324 1053 m 128 143 q 315 24 168 24 q 428 67 386 24 q 469 183 469 110 q 258 442 469 300 q 128 557 174 499 q 82 700 82 615 q 118 808 82 757 q 217 890 154 858 q 361 922 281 922 q 476 908 433 922 q 526 894 519 894 q 548 868 540 894 q 559 808 556 842 q 563 749 563 774 q 553 711 563 711 q 504 750 513 711 q 451 843 494 810 q 346 876 408 876 q 235 835 282 876 q 189 726 189 794 q 219 647 189 685 q 293 577 250 608 q 374 521 336 546 q 586 222 586 383 q 554 103 586 158 q 458 13 522 47 q 297 -22 394 -22 q 111 11 182 -22 q 82 35 89 21 q 57 194 57 88 q 66 220 57 206 q 88 235 75 235 q 128 143 99 235 z "},"Ş":{"ha":646,"x_min":57,"x_max":586,"o":"m 325 -21 l 297 -22 q 111 11 182 -22 q 82 35 89 21 q 57 194 57 88 q 66 220 57 206 q 88 235 75 235 q 128 143 99 235 q 196 53 147 83 q 315 24 244 24 q 428 67 386 24 q 469 183 469 110 q 258 442 469 300 q 128 557 174 499 q 82 700 82 615 q 118 808 82 757 q 217 890 154 858 q 361 922 281 922 q 476 908 433 922 q 526 894 519 894 q 548 868 540 894 q 559 808 556 842 q 563 749 563 774 q 553 711 563 711 q 504 750 513 711 q 451 843 494 810 q 346 876 408 876 q 235 835 282 876 q 189 726 189 794 q 219 647 189 685 q 293 577 250 608 q 374 521 336 546 q 586 222 586 383 q 533 74 586 142 q 374 -15 479 6 l 335 -75 q 356 -100 325 -87 q 413 -144 385 -112 q 440 -221 440 -176 q 410 -301 440 -264 q 338 -360 381 -337 q 257 -382 296 -382 q 199 -337 199 -382 q 221 -290 199 -290 q 232 -294 224 -290 q 293 -308 254 -308 q 367 -254 367 -308 q 351 -202 367 -225 q 301 -179 335 -179 l 265 -183 q 239 -175 249 -183 q 229 -158 229 -167 q 238 -139 229 -149 l 325 -21 z "},"Š":{"ha":646,"x_min":57,"x_max":586,"o":"m 131 1142 q 147 1156 131 1156 q 178 1147 156 1156 q 226 1126 200 1139 q 276 1103 253 1114 q 311 1085 300 1092 q 335 1076 326 1076 q 347 1079 343 1076 q 406 1111 369 1093 q 476 1143 443 1129 q 519 1157 508 1157 q 535 1142 535 1157 q 526 1125 535 1132 l 390 1003 q 333 972 356 972 q 276 1003 311 972 l 140 1125 q 131 1142 131 1133 m 128 143 q 315 24 168 24 q 428 67 386 24 q 469 183 469 110 q 258 442 469 300 q 128 557 174 499 q 82 700 82 615 q 118 808 82 757 q 217 890 154 858 q 361 922 281 922 q 476 908 433 922 q 526 894 519 894 q 548 868 540 894 q 559 808 556 842 q 563 749 563 774 q 553 711 563 711 q 504 750 513 711 q 451 843 494 810 q 346 876 408 876 q 235 835 282 876 q 189 726 189 794 q 219 647 189 685 q 293 577 250 608 q 374 521 336 546 q 586 222 586 383 q 554 103 586 158 q 458 13 522 47 q 297 -22 394 -22 q 111 11 182 -22 q 82 35 89 21 q 57 194 57 88 q 66 220 57 206 q 88 235 75 235 q 128 143 99 235 z "},"T":{"ha":931,"x_min":38,"x_max":932,"o":"m 475 0 l 297 -7 q 257 10 257 -7 q 307 33 257 25 q 411 142 411 53 l 411 774 q 394 828 411 818 q 332 839 378 839 l 218 839 q 150 825 182 839 q 107 790 118 811 q 78 750 96 768 q 47 732 61 732 q 38 749 38 732 q 44 778 38 761 q 88 932 75 840 q 111 964 92 964 q 146 919 122 964 q 243 892 161 892 l 772 892 q 853 911 825 892 q 878 932 864 918 q 903 953 893 946 q 922 961 913 961 q 932 929 932 961 l 931 917 q 914 837 919 871 q 908 779 908 803 l 908 763 q 902 733 908 749 q 886 718 896 718 q 860 775 871 718 q 722 839 850 839 q 614 838 658 839 q 544 833 569 836 q 522 774 522 832 l 522 142 q 632 33 522 51 q 678 10 678 25 q 638 -7 678 -7 l 475 0 z "},"Ţ":{"ha":931,"x_min":38,"x_max":932,"o":"m 392 -169 q 365 -161 375 -169 q 356 -144 356 -153 q 364 -125 356 -135 l 457 0 l 297 -7 q 257 10 257 -7 q 307 33 257 25 q 411 142 411 53 l 411 774 q 394 828 411 818 q 332 839 378 839 l 218 839 q 150 825 182 839 q 107 790 118 811 q 78 750 96 768 q 47 732 61 732 q 38 749 38 732 q 44 778 38 761 q 88 932 75 840 q 111 964 92 964 q 146 919 122 964 q 243 892 161 892 l 772 892 q 853 911 825 892 q 878 932 864 918 q 903 953 893 946 q 922 961 913 961 q 932 929 932 961 l 931 917 q 914 837 919 871 q 908 779 908 803 l 908 763 q 902 733 908 749 q 886 718 896 718 q 860 775 871 718 q 722 839 850 839 q 614 838 658 839 q 544 833 569 836 q 522 774 522 832 l 522 142 q 632 33 522 51 q 678 10 678 25 q 638 -7 678 -7 l 501 0 l 461 -61 q 482 -86 451 -74 q 539 -131 511 -99 q 567 -207 567 -162 q 537 -287 567 -250 q 465 -346 507 -324 q 383 -368 422 -368 q 325 -324 325 -368 q 347 -276 325 -276 q 358 -281 350 -276 q 419 -294 381 -294 q 493 -240 493 -294 q 477 -188 493 -211 q 428 -165 461 -165 l 392 -169 z "},"Ť":{"ha":931,"x_min":38,"x_max":932,"o":"m 271 1142 q 288 1156 271 1156 q 318 1147 296 1156 q 367 1126 340 1139 q 417 1103 393 1114 q 451 1085 440 1092 q 475 1076 467 1076 q 488 1079 483 1076 q 547 1111 510 1093 q 616 1143 583 1129 q 660 1157 649 1157 q 675 1142 675 1157 q 667 1125 675 1132 l 531 1003 q 474 972 496 972 q 417 1003 451 972 l 281 1125 q 271 1142 271 1133 m 931 917 q 914 837 919 871 q 908 779 908 803 l 908 763 q 902 733 908 749 q 886 718 896 718 q 860 775 871 718 q 722 839 850 839 q 614 838 658 839 q 544 833 569 836 q 522 774 522 832 l 522 142 q 632 33 522 51 q 678 10 678 25 q 638 -7 678 -7 l 475 0 l 297 -7 q 257 10 257 -7 q 307 33 257 25 q 411 142 411 53 l 411 774 q 394 828 411 818 q 332 839 378 839 l 218 839 q 150 825 182 839 q 107 790 118 811 q 78 750 96 768 q 47 732 61 732 q 38 749 38 732 q 44 778 38 761 q 88 932 75 840 q 111 964 92 964 q 146 919 122 964 q 243 892 161 892 l 772 892 q 853 911 825 892 q 878 932 864 918 q 903 953 893 946 q 922 961 913 961 q 932 929 932 961 l 931 917 z "},"U":{"ha":1025,"x_min":33,"x_max":1011,"o":"m 882 347 q 832 157 879 240 q 706 27 785 74 q 528 -19 628 -19 q 237 83 331 -19 q 143 390 143 185 l 143 760 q 79 861 143 843 q 33 892 33 874 q 74 907 33 907 l 207 903 l 318 906 q 358 890 358 906 q 313 863 358 878 q 274 828 293 857 q 254 763 254 800 l 254 351 q 295 199 254 268 q 406 90 336 131 q 561 50 476 50 q 756 147 689 50 q 822 411 822 243 q 821 528 822 454 q 817 710 819 603 q 760 861 814 846 q 714 889 714 874 q 754 904 714 904 l 858 903 l 971 907 q 1011 892 1011 907 q 965 864 1011 875 q 896 760 900 851 q 892 649 894 753 q 882 347 889 546 z "},"Ù":{"ha":1025,"x_min":33,"x_max":1011,"o":"m 594 976 q 586 968 594 968 q 561 981 578 968 q 457 1060 501 1025 q 381 1122 413 1096 q 363 1150 363 1139 q 377 1165 363 1158 q 412 1176 392 1172 q 446 1181 432 1181 q 481 1163 468 1181 q 594 976 594 999 m 858 903 l 971 907 q 1011 892 1011 907 q 965 864 1011 875 q 896 760 900 851 q 892 649 894 753 q 882 347 889 546 q 832 157 879 240 q 706 27 785 74 q 528 -19 628 -19 q 237 83 331 -19 q 143 390 143 185 l 143 760 q 79 861 143 843 q 33 892 33 874 q 74 907 33 907 l 207 903 l 318 906 q 358 890 358 906 q 313 863 358 878 q 274 828 293 857 q 254 763 254 800 l 254 351 q 295 199 254 268 q 406 90 336 131 q 561 50 476 50 q 756 147 689 50 q 822 411 822 243 q 821 528 822 454 q 817 710 819 603 q 760 861 814 846 q 714 889 714 874 q 754 904 714 904 l 858 903 z "},"Ú":{"ha":1025,"x_min":33,"x_max":1011,"o":"m 522 981 q 497 968 506 968 q 489 978 489 968 q 603 1163 489 999 q 638 1181 615 1181 q 672 1176 653 1181 q 706 1165 692 1172 q 721 1150 721 1158 q 703 1122 721 1139 q 627 1060 672 1096 q 522 981 582 1025 m 858 903 l 971 907 q 1011 892 1011 907 q 965 864 1011 875 q 896 760 900 851 q 892 649 894 753 q 882 347 889 546 q 832 157 879 240 q 706 27 785 74 q 528 -19 628 -19 q 237 83 331 -19 q 143 390 143 185 l 143 760 q 79 861 143 843 q 33 892 33 874 q 74 907 33 907 l 207 903 l 318 906 q 358 890 358 906 q 313 863 358 878 q 274 828 293 857 q 254 763 254 800 l 254 351 q 295 199 254 268 q 406 90 336 131 q 561 50 476 50 q 756 147 689 50 q 822 411 822 243 q 821 528 822 454 q 817 710 819 603 q 760 861 814 846 q 714 889 714 874 q 754 904 714 904 l 858 903 z "},"Û":{"ha":1025,"x_min":33,"x_max":1011,"o":"m 528 1050 q 470 1020 507 1039 q 400 988 433 1001 q 356 974 367 974 q 339 988 339 974 q 349 1004 339 996 l 485 1126 q 542 1157 519 1157 q 599 1126 564 1157 l 735 1004 q 743 988 743 999 q 728 972 743 972 q 698 981 719 972 q 650 1001 676 989 q 601 1026 624 1014 q 565 1044 578 1038 q 540 1053 551 1053 q 528 1050 532 1053 m 858 903 l 971 907 q 1011 892 1011 907 q 965 864 1011 875 q 896 760 900 851 q 892 649 894 753 q 882 347 889 546 q 832 157 879 240 q 706 27 785 74 q 528 -19 628 -19 q 237 83 331 -19 q 143 390 143 185 l 143 760 q 79 861 143 843 q 33 892 33 874 q 74 907 33 907 l 207 903 l 318 906 q 358 890 358 906 q 313 863 358 878 q 274 828 293 857 q 254 763 254 800 l 254 351 q 295 199 254 268 q 406 90 336 131 q 561 50 476 50 q 756 147 689 50 q 822 411 822 243 q 821 528 822 454 q 817 710 819 603 q 760 861 814 846 q 714 889 714 874 q 754 904 714 904 l 858 903 z "},"Ü":{"ha":1025,"x_min":33,"x_max":1011,"o":"m 628 1093 q 676 1113 647 1113 q 726 1092 706 1113 q 746 1043 746 1072 q 726 994 746 1014 q 676 974 706 974 q 627 994 647 974 q 607 1043 607 1014 q 628 1093 607 1072 m 357 1093 q 406 1113 376 1113 q 455 1092 435 1113 q 475 1043 475 1072 q 455 994 475 1014 q 406 974 435 974 q 356 994 376 974 q 336 1043 336 1014 q 357 1093 336 1072 m 858 903 l 971 907 q 1011 892 1011 907 q 965 864 1011 875 q 896 760 900 851 q 892 649 894 753 q 882 347 889 546 q 832 157 879 240 q 706 27 785 74 q 528 -19 628 -19 q 237 83 331 -19 q 143 390 143 185 l 143 760 q 79 861 143 843 q 33 892 33 874 q 74 907 33 907 l 207 903 l 318 906 q 358 890 358 906 q 313 863 358 878 q 274 828 293 857 q 254 763 254 800 l 254 351 q 295 199 254 268 q 406 90 336 131 q 561 50 476 50 q 756 147 689 50 q 822 411 822 243 q 821 528 822 454 q 817 710 819 603 q 760 861 814 846 q 714 889 714 874 q 754 904 714 904 l 858 903 z "},"Ũ":{"ha":1025,"x_min":33,"x_max":1011,"o":"m 632 1097 q 686 1125 658 1097 q 715 1151 711 1151 q 739 1124 739 1151 q 720 1077 739 1104 q 675 1030 701 1050 q 624 1010 649 1010 l 456 1022 q 404 994 428 1022 q 376 965 379 965 q 358 972 367 965 q 350 989 350 979 q 370 1042 350 1014 q 418 1092 390 1071 q 471 1113 446 1113 l 632 1097 m 858 903 l 971 907 q 1011 892 1011 907 q 965 864 1011 875 q 896 760 900 851 q 892 649 894 753 q 882 347 889 546 q 832 157 879 240 q 706 27 785 74 q 528 -19 628 -19 q 237 83 331 -19 q 143 390 143 185 l 143 760 q 79 861 143 843 q 33 892 33 874 q 74 907 33 907 l 207 903 l 318 906 q 358 890 358 906 q 313 863 358 878 q 274 828 293 857 q 254 763 254 800 l 254 351 q 295 199 254 268 q 406 90 336 131 q 561 50 476 50 q 756 147 689 50 q 822 411 822 243 q 821 528 822 454 q 817 710 819 603 q 760 861 814 846 q 714 889 714 874 q 754 904 714 904 l 858 903 z "},"Ū":{"ha":1025,"x_min":33,"x_max":1011,"o":"m 732 1079 q 750 1056 750 1079 q 737 1023 750 1042 q 707 1004 724 1004 l 353 1004 q 340 1009 346 1004 q 333 1026 333 1014 q 342 1058 333 1038 q 367 1079 350 1079 l 732 1079 m 858 903 l 971 907 q 1011 892 1011 907 q 965 864 1011 875 q 896 760 900 851 q 892 649 894 753 q 882 347 889 546 q 832 157 879 240 q 706 27 785 74 q 528 -19 628 -19 q 237 83 331 -19 q 143 390 143 185 l 143 760 q 79 861 143 843 q 33 892 33 874 q 74 907 33 907 l 207 903 l 318 906 q 358 890 358 906 q 313 863 358 878 q 274 828 293 857 q 254 763 254 800 l 254 351 q 295 199 254 268 q 406 90 336 131 q 561 50 476 50 q 756 147 689 50 q 822 411 822 243 q 821 528 822 454 q 817 710 819 603 q 760 861 814 846 q 714 889 714 874 q 754 904 714 904 l 858 903 z "},"Ŭ":{"ha":1025,"x_min":33,"x_max":1011,"o":"m 882 347 q 832 157 879 240 q 706 27 785 74 q 528 -19 628 -19 q 237 83 331 -19 q 143 390 143 185 l 143 760 q 79 861 143 843 q 33 892 33 874 q 74 907 33 907 l 207 903 l 318 906 q 358 890 358 906 q 313 863 358 878 q 274 828 293 857 q 254 763 254 800 l 254 351 q 295 199 254 268 q 406 90 336 131 q 561 50 476 50 q 756 147 689 50 q 822 411 822 243 q 821 528 822 454 q 817 710 819 603 q 760 861 814 846 q 714 889 714 874 q 754 904 714 904 l 858 903 l 971 907 q 1011 892 1011 907 q 965 864 1011 875 q 896 760 900 851 q 892 649 894 753 q 882 347 889 546 m 333 1142 q 347 1175 333 1175 q 379 1144 361 1175 q 437 1086 396 1114 q 542 1058 478 1058 q 647 1086 606 1058 q 706 1144 688 1114 q 736 1175 722 1175 q 750 1142 750 1175 q 721 1056 750 1097 q 644 988 692 1014 q 540 961 596 961 q 438 985 485 961 q 362 1051 390 1010 q 333 1142 333 1092 z "},"Ů":{"ha":1025,"x_min":33,"x_max":1011,"o":"m 418 1082 q 457 1166 418 1132 q 547 1200 496 1200 q 633 1171 600 1200 q 665 1092 665 1142 q 627 1007 665 1042 q 539 972 589 972 q 453 1002 488 972 q 418 1082 418 1032 m 539 1168 q 490 1143 508 1168 q 471 1086 471 1118 q 494 1028 471 1053 q 547 1003 517 1003 q 596 1028 579 1003 q 613 1088 613 1054 q 591 1144 613 1119 q 539 1168 569 1168 m 858 903 l 971 907 q 1011 892 1011 907 q 965 864 1011 875 q 896 760 900 851 q 892 649 894 753 q 882 347 889 546 q 832 157 879 240 q 706 27 785 74 q 528 -19 628 -19 q 237 83 331 -19 q 143 390 143 185 l 143 760 q 79 861 143 843 q 33 892 33 874 q 74 907 33 907 l 207 903 l 318 906 q 358 890 358 906 q 313 863 358 878 q 274 828 293 857 q 254 763 254 800 l 254 351 q 295 199 254 268 q 406 90 336 131 q 561 50 476 50 q 756 147 689 50 q 822 411 822 243 q 821 528 822 454 q 817 710 819 603 q 760 861 814 846 q 714 889 714 874 q 754 904 714 904 l 858 903 z "},"Ű":{"ha":1025,"x_min":33,"x_max":1011,"o":"m 624 981 q 599 968 607 968 q 590 978 590 968 q 704 1163 590 999 q 739 1181 717 1181 q 774 1176 754 1181 q 808 1165 793 1172 q 822 1150 822 1158 q 804 1122 822 1139 q 728 1060 774 1096 q 624 981 683 1025 m 440 981 q 415 968 424 968 q 407 978 407 968 q 521 1163 407 999 q 556 1181 533 1181 q 590 1176 571 1181 q 624 1165 610 1172 q 639 1150 639 1158 q 621 1122 639 1139 q 545 1060 590 1096 q 440 981 500 1025 m 858 903 l 971 907 q 1011 892 1011 907 q 965 864 1011 875 q 896 760 900 851 q 892 649 894 753 q 882 347 889 546 q 832 157 879 240 q 706 27 785 74 q 528 -19 628 -19 q 237 83 331 -19 q 143 390 143 185 l 143 760 q 79 861 143 843 q 33 892 33 874 q 74 907 33 907 l 207 903 l 318 906 q 358 890 358 906 q 313 863 358 878 q 274 828 293 857 q 254 763 254 800 l 254 351 q 295 199 254 268 q 406 90 336 131 q 561 50 476 50 q 756 147 689 50 q 822 411 822 243 q 821 528 822 454 q 817 710 819 603 q 760 861 814 846 q 714 889 714 874 q 754 904 714 904 l 858 903 z "},"Ų":{"ha":1025,"x_min":33,"x_max":1011,"o":"m 858 903 l 971 907 q 1011 892 1011 907 q 965 864 1011 875 q 896 760 900 851 q 892 649 894 753 q 882 347 889 546 q 829 151 879 238 q 694 21 779 65 q 641 -22 668 1 q 579 -103 614 -46 q 544 -206 544 -158 q 572 -276 544 -251 q 626 -300 600 -300 q 674 -292 654 -300 q 706 -275 693 -285 q 736 -253 725 -261 q 750 -244 747 -246 q 762 -242 757 -240 q 767 -253 767 -244 q 737 -316 767 -282 q 664 -374 707 -350 q 581 -399 621 -399 q 505 -378 540 -399 q 448 -321 469 -357 q 426 -242 426 -285 q 604 -11 426 -131 q 528 -19 567 -19 q 237 83 331 -19 q 143 390 143 185 l 143 760 q 79 861 143 843 q 33 892 33 874 q 74 907 33 907 l 207 903 l 318 906 q 358 890 358 906 q 313 863 358 878 q 274 828 293 857 q 254 763 254 800 l 254 351 q 295 199 254 268 q 406 90 336 131 q 561 50 476 50 q 756 147 689 50 q 822 411 822 243 q 821 528 822 454 q 817 710 819 603 q 760 861 814 846 q 714 889 714 874 q 754 904 714 904 l 858 903 z "},"V":{"ha":933,"x_min":0,"x_max":942,"o":"m 467 19 q 439 -21 451 -21 q 397 78 433 -21 l 143 760 q 46 861 111 843 q 0 892 0 876 q 40 907 0 907 l 210 903 l 351 906 q 392 890 392 906 q 353 864 392 869 q 286 840 314 856 q 258 801 258 825 q 271 740 258 778 l 447 274 q 472 235 461 235 q 497 274 481 235 l 693 760 q 704 804 704 785 q 611 861 704 835 q 565 889 565 874 q 606 904 565 904 l 743 903 l 901 907 q 942 892 942 907 q 896 864 942 875 q 813 819 849 854 q 760 743 778 785 l 499 110 q 496 103 497 108 q 492 90 494 99 q 486 72 489 81 q 481 56 483 64 q 474 38 478 47 q 467 19 469 29 z "},"W":{"ha":1272,"x_min":0,"x_max":1292,"o":"m 496 21 q 465 -22 482 -22 q 446 17 460 -22 l 146 769 q 46 861 113 843 q 0 892 0 876 q 40 907 0 907 l 164 903 l 293 906 q 333 890 333 906 q 288 863 333 875 q 260 817 260 856 q 271 757 260 793 q 381 484 324 621 q 499 211 439 347 q 510 197 504 197 q 519 210 515 197 l 628 478 q 636 510 636 499 q 625 550 636 519 l 546 747 q 492 819 529 789 q 411 863 454 850 q 368 892 368 875 q 408 907 368 907 l 539 903 l 646 906 q 686 890 686 906 q 658 864 686 879 q 629 832 629 850 l 644 783 q 682 692 660 736 q 707 646 703 646 q 729 686 710 646 q 752 746 742 714 q 769 803 763 778 q 776 831 776 828 q 751 864 776 850 q 725 890 725 878 q 765 906 725 906 l 838 903 l 919 907 q 960 892 960 907 q 917 864 960 874 q 872 851 888 858 q 844 831 856 844 q 815 789 832 817 q 790 738 803 768 q 764 675 776 707 q 744 619 751 643 q 736 589 736 596 q 738 574 736 575 l 881 206 q 886 200 882 200 q 896 214 890 200 q 965 418 922 283 q 1065 751 1007 553 q 1074 801 1074 776 q 1031 863 1074 850 q 986 889 986 874 q 1026 904 986 904 l 1126 903 l 1251 907 q 1292 892 1292 907 q 1246 864 1292 875 q 1132 742 1171 847 l 908 81 q 864 -17 874 -17 q 840 10 850 -17 q 740 256 797 108 q 669 439 685 404 q 664 446 667 446 q 658 440 660 446 q 654 431 656 433 q 576 238 615 340 q 496 21 536 135 z "},"Ŵ":{"ha":1272,"x_min":0,"x_max":1292,"o":"m 654 1050 q 597 1020 633 1039 q 526 988 560 1001 q 482 974 493 974 q 465 988 465 974 q 475 1004 465 996 l 611 1126 q 668 1157 646 1157 q 725 1126 690 1157 l 861 1004 q 869 988 869 999 q 854 972 869 972 q 824 981 846 972 q 776 1001 803 989 q 727 1026 750 1014 q 692 1044 704 1038 q 667 1053 678 1053 q 654 1050 658 1053 m 293 906 q 333 890 333 906 q 288 863 333 875 q 260 817 260 856 q 271 757 260 793 q 381 484 324 621 q 499 211 439 347 q 510 197 504 197 q 519 210 515 197 l 628 478 q 636 510 636 499 q 625 550 636 519 l 546 747 q 492 819 529 789 q 411 863 454 850 q 368 892 368 875 q 408 907 368 907 l 539 903 l 646 906 q 686 890 686 906 q 658 864 686 879 q 629 832 629 850 q 644 783 629 832 q 682 692 660 736 q 707 646 703 646 q 729 686 710 646 q 752 746 742 714 q 769 803 763 778 q 776 831 776 828 q 751 864 776 850 q 725 890 725 878 q 765 906 725 906 l 838 903 l 919 907 q 960 892 960 907 q 917 864 960 874 q 872 851 888 858 q 844 831 856 844 q 815 789 832 817 q 790 738 803 768 q 764 675 776 707 q 744 619 751 643 q 736 589 736 596 q 738 574 736 575 l 881 206 q 896 214 886 193 q 965 418 922 283 q 1065 751 1007 553 q 1074 801 1074 776 q 1031 863 1074 850 q 986 889 986 874 q 1026 904 986 904 l 1126 903 l 1251 907 q 1292 892 1292 907 q 1246 864 1292 875 q 1132 742 1171 847 l 908 81 q 864 -17 874 -17 q 840 10 850 -17 q 740 256 797 108 q 669 439 685 404 q 660 444 664 453 q 654 431 656 436 q 576 238 615 340 q 496 21 536 135 q 465 -22 482 -22 q 446 17 460 -22 l 146 769 q 46 861 113 843 q 0 892 0 876 q 40 907 0 907 q 72 906 40 907 q 164 903 103 906 l 293 906 z "},"X":{"ha":982,"x_min":-7,"x_max":971,"o":"m 208 1 l 33 -7 q -7 10 -7 -7 q 38 39 -7 24 q 140 88 82 51 q 238 172 199 124 l 411 389 q 436 436 436 425 q 433 451 436 449 l 232 735 q 119 846 168 821 q 63 867 101 856 q 25 894 25 878 q 65 910 25 910 l 264 903 l 401 906 q 442 892 442 906 q 408 867 442 878 q 380 858 390 861 q 365 853 369 854 q 340 843 356 850 q 325 817 325 836 q 371 733 325 799 l 497 556 q 519 535 513 535 q 539 551 526 535 l 688 747 q 724 818 724 792 q 661 861 724 851 q 615 889 615 872 q 656 904 615 904 l 768 903 l 926 911 q 967 896 967 911 q 921 868 967 881 q 740 708 865 854 l 581 519 q 556 483 556 490 q 561 464 556 474 l 776 154 q 925 36 840 60 q 971 8 971 24 q 931 -7 971 -7 l 732 1 l 589 0 q 549 15 549 0 q 583 40 549 31 q 656 108 656 60 q 639 154 656 132 l 494 364 q 476 378 485 378 q 464 371 471 378 l 276 129 q 264 97 264 113 q 326 42 264 57 q 372 14 372 29 q 332 -1 372 -1 l 208 1 z "},"Y":{"ha":803,"x_min":0,"x_max":863,"o":"m 431 0 l 253 -7 q 213 10 213 -7 q 258 33 213 25 q 367 150 367 53 l 367 356 q 332 458 367 397 l 169 725 q 47 861 93 846 q 0 892 0 875 q 40 907 0 907 l 203 903 l 314 906 q 354 890 354 906 q 310 863 354 874 q 264 828 264 853 q 282 778 264 808 l 410 549 q 449 496 442 496 q 611 742 472 496 q 636 813 636 783 q 579 861 636 853 q 549 872 564 864 q 533 889 533 881 q 574 904 533 904 l 678 903 l 822 907 q 863 893 863 907 q 789 857 863 878 q 733 822 756 847 q 513 481 678 763 q 489 435 496 453 q 480 401 482 418 q 478 356 478 385 l 478 150 q 506 73 478 103 q 585 35 535 43 q 633 10 633 24 q 593 -7 633 -7 l 431 0 z "},"Ý":{"ha":803,"x_min":0,"x_max":863,"o":"m 425 981 q 400 968 408 968 q 392 978 392 968 q 506 1163 392 999 q 540 1181 518 1181 q 575 1176 556 1181 q 609 1165 594 1172 q 624 1150 624 1158 q 606 1122 624 1139 q 530 1060 575 1096 q 425 981 485 1025 m 431 0 l 253 -7 q 213 10 213 -7 q 258 33 213 25 q 367 150 367 53 l 367 356 q 332 458 367 397 l 169 725 q 47 861 93 846 q 0 892 0 875 q 40 907 0 907 l 203 903 l 314 906 q 354 890 354 906 q 310 863 354 874 q 264 828 264 853 q 282 778 264 808 l 410 549 q 449 496 442 496 q 611 742 472 496 q 636 813 636 783 q 579 861 636 853 q 549 872 564 864 q 533 889 533 881 q 574 904 533 904 l 678 903 l 822 907 q 863 893 863 907 q 789 857 863 878 q 733 822 756 847 q 513 481 678 763 q 489 435 496 453 q 480 401 482 418 q 478 356 478 385 l 478 150 q 506 73 478 103 q 585 35 535 43 q 633 10 633 24 q 593 -7 633 -7 l 431 0 z "},"Ŷ":{"ha":803,"x_min":0,"x_max":863,"o":"m 431 1050 q 373 1020 410 1039 q 303 988 336 1001 q 258 974 269 974 q 242 988 242 974 q 251 1004 242 996 l 388 1126 q 444 1157 422 1157 q 501 1126 467 1157 l 638 1004 q 646 988 646 999 q 631 972 646 972 q 601 981 622 972 q 553 1001 579 989 q 503 1026 526 1014 q 468 1044 481 1038 q 443 1053 454 1053 q 431 1050 435 1053 m 431 0 l 253 -7 q 213 10 213 -7 q 258 33 213 25 q 367 150 367 53 l 367 356 q 332 458 367 397 l 169 725 q 47 861 93 846 q 0 892 0 875 q 40 907 0 907 l 203 903 l 314 906 q 354 890 354 906 q 310 863 354 874 q 264 828 264 853 q 282 778 264 808 l 410 549 q 449 496 442 496 q 611 742 472 496 q 636 813 636 783 q 579 861 636 853 q 549 872 564 864 q 533 889 533 881 q 574 904 533 904 l 678 903 l 822 907 q 863 893 863 907 q 789 857 863 878 q 733 822 756 847 q 513 481 678 763 q 489 435 496 453 q 480 401 482 418 q 478 356 478 385 l 478 150 q 506 73 478 103 q 585 35 535 43 q 633 10 633 24 q 593 -7 633 -7 l 431 0 z "},"Ÿ":{"ha":803,"x_min":0,"x_max":863,"o":"m 531 1093 q 579 1113 550 1113 q 628 1092 608 1113 q 649 1043 649 1072 q 628 994 649 1014 q 579 974 608 974 q 530 994 550 974 q 510 1043 510 1014 q 531 1093 510 1072 m 260 1093 q 308 1113 279 1113 q 358 1092 338 1113 q 378 1043 378 1072 q 358 994 378 1014 q 308 974 338 974 q 259 994 279 974 q 239 1043 239 1014 q 260 1093 239 1072 m 431 0 l 253 -7 q 213 10 213 -7 q 258 33 213 25 q 367 150 367 53 l 367 356 q 332 458 367 397 l 169 725 q 47 861 93 846 q 0 892 0 875 q 40 907 0 907 l 203 903 l 314 906 q 354 890 354 906 q 310 863 354 874 q 264 828 264 853 q 282 778 264 808 l 410 549 q 449 496 442 496 q 611 742 472 496 q 636 813 636 783 q 579 861 636 853 q 549 872 564 864 q 533 889 533 881 q 574 904 533 904 l 678 903 l 822 907 q 863 893 863 907 q 789 857 863 878 q 733 822 756 847 q 513 481 678 763 q 489 435 496 453 q 480 401 482 418 q 478 356 478 385 l 478 150 q 506 73 478 103 q 585 35 535 43 q 633 10 633 24 q 593 -7 633 -7 l 431 0 z "},"Z":{"ha":838,"x_min":39,"x_max":817,"o":"m 765 17 q 740 -7 753 -7 l 321 -3 l 49 -4 q 39 11 39 -4 l 39 15 q 119 144 39 38 q 402 535 283 368 q 594 817 521 703 q 600 828 600 824 q 574 839 600 838 q 473 841 524 840 q 369 842 422 842 q 281 841 317 842 q 228 839 246 840 q 154 813 190 836 q 101 744 118 790 q 63 699 83 699 q 50 713 50 699 q 71 786 50 726 q 88 847 82 817 q 97 906 94 876 q 118 929 100 929 q 153 910 126 929 q 247 899 168 899 q 344 897 288 897 q 475 897 401 897 q 776 901 622 897 q 790 892 783 901 q 792 876 796 882 l 707 764 q 440 396 557 563 q 238 97 322 229 q 233 75 233 92 q 249 57 233 60 q 321 52 282 54 q 404 50 360 50 q 448 49 425 50 q 494 49 471 49 q 601 58 547 49 q 700 99 654 68 q 774 197 746 131 q 804 226 785 226 q 817 211 817 226 q 811 177 817 203 q 797 118 806 151 q 780 57 789 85 q 765 17 771 29 z "},"Ź":{"ha":838,"x_min":39,"x_max":817,"o":"m 418 981 q 393 968 401 968 q 385 978 385 968 q 499 1163 385 999 q 533 1181 511 1181 q 568 1176 549 1181 q 602 1165 588 1172 q 617 1150 617 1158 q 599 1122 617 1139 q 523 1060 568 1096 q 418 981 478 1025 m 321 -3 l 156 -4 l 49 -4 q 39 11 39 -4 l 39 15 q 119 144 39 38 q 402 535 283 368 q 594 817 521 703 q 600 828 600 824 q 574 839 600 838 q 473 841 524 840 q 369 842 422 842 q 281 841 317 842 q 228 839 246 840 q 154 813 190 836 q 101 744 118 790 q 63 699 83 699 q 50 713 50 699 q 71 786 50 726 q 88 847 82 817 q 97 906 94 876 q 118 929 100 929 q 153 910 126 929 q 247 899 168 899 q 344 897 288 897 q 475 897 401 897 q 776 901 622 897 q 788 894 783 901 q 793 881 793 888 q 792 876 793 878 l 707 764 q 440 396 557 563 q 238 97 322 229 q 233 75 233 92 q 249 57 233 60 q 321 52 282 54 q 404 50 360 50 q 448 49 425 50 q 494 49 471 49 q 601 58 547 49 q 700 99 654 68 q 774 197 746 131 q 804 226 785 226 q 817 211 817 226 q 811 177 817 203 q 797 118 806 151 q 780 57 789 85 q 765 17 771 29 q 740 -7 753 -7 l 321 -3 z "},"Ż":{"ha":838,"x_min":39,"x_max":817,"o":"m 765 17 q 740 -7 753 -7 l 321 -3 l 49 -4 q 39 11 39 -4 l 39 15 q 119 144 39 38 q 402 535 283 368 q 594 817 521 703 q 600 828 600 824 q 574 839 600 838 q 473 841 524 840 q 369 842 422 842 q 281 841 317 842 q 228 839 246 840 q 154 813 190 836 q 101 744 118 790 q 63 699 83 699 q 50 713 50 699 q 71 786 50 726 q 88 847 82 817 q 97 906 94 876 q 118 929 100 929 q 153 910 126 929 q 247 899 168 899 q 344 897 288 897 q 475 897 401 897 q 776 901 622 897 q 790 892 783 901 q 792 876 796 882 l 707 764 q 440 396 557 563 q 238 97 322 229 q 233 75 233 92 q 249 57 233 60 q 321 52 282 54 q 404 50 360 50 q 448 49 425 50 q 494 49 471 49 q 601 58 547 49 q 700 99 654 68 q 774 197 746 131 q 804 226 785 226 q 817 211 817 226 q 811 177 817 203 q 797 118 806 151 q 780 57 789 85 q 765 17 771 29 m 385 1103 q 438 1125 407 1125 q 491 1103 468 1125 q 514 1049 514 1081 q 491 994 514 1017 q 438 972 468 972 q 384 994 407 972 q 361 1049 361 1017 q 385 1103 361 1079 z "},"Ž":{"ha":838,"x_min":39,"x_max":817,"o":"m 235 1142 q 251 1156 235 1156 q 282 1147 260 1156 q 331 1126 304 1139 q 381 1103 357 1114 q 415 1085 404 1092 q 439 1076 431 1076 q 451 1079 447 1076 q 510 1111 474 1093 q 580 1143 547 1129 q 624 1157 613 1157 q 639 1142 639 1157 q 631 1125 639 1132 l 494 1003 q 438 972 460 972 q 381 1003 415 972 l 244 1125 q 235 1142 235 1133 m 321 -3 l 156 -4 l 49 -4 q 39 11 39 -4 l 39 15 q 119 144 39 38 q 402 535 283 368 q 594 817 521 703 q 600 828 600 824 q 574 839 600 838 q 473 841 524 840 q 369 842 422 842 q 281 841 317 842 q 228 839 246 840 q 154 813 190 836 q 101 744 118 790 q 63 699 83 699 q 50 713 50 699 q 71 786 50 726 q 88 847 82 817 q 97 906 94 876 q 118 929 100 929 q 153 910 126 929 q 247 899 168 899 q 344 897 288 897 q 475 897 401 897 q 776 901 622 897 q 788 894 783 901 q 793 881 793 888 q 792 876 793 878 l 707 764 q 440 396 557 563 q 238 97 322 229 q 233 75 233 92 q 249 57 233 60 q 321 52 282 54 q 404 50 360 50 q 448 49 425 50 q 494 49 471 49 q 601 58 547 49 q 700 99 654 68 q 774 197 746 131 q 804 226 785 226 q 817 211 817 226 q 811 177 817 203 q 797 118 806 151 q 780 57 789 85 q 765 17 771 29 q 740 -7 753 -7 l 321 -3 z "},"Æ":{"ha":1203,"x_min":-7,"x_max":1176,"o":"m 660 900 l 1078 907 l 1089 907 q 1114 894 1113 907 q 1131 751 1129 813 q 1115 739 1131 739 q 1096 753 1100 739 q 1055 831 1079 803 q 971 858 1031 858 l 789 858 q 757 849 774 858 q 740 822 740 839 l 740 492 q 747 470 740 479 q 764 461 754 461 q 886 465 831 461 q 958 482 942 468 q 979 508 974 497 q 994 530 985 521 q 1008 539 1003 539 q 1019 532 1013 539 q 1024 510 1024 528 l 1024 497 q 1022 467 1022 483 q 1021 432 1021 450 q 1025 333 1021 394 q 1013 310 1025 310 q 981 342 992 310 q 935 390 968 381 q 849 399 901 399 l 772 399 q 740 367 740 399 l 740 154 q 763 80 740 111 q 831 49 786 49 l 975 49 q 1006 53 983 49 q 1051 63 1028 57 q 1081 74 1074 68 q 1139 161 1108 94 q 1160 175 1147 175 q 1176 160 1176 175 q 1170 98 1176 133 q 1153 17 1164 63 q 1133 -7 1146 -7 l 711 1 l 683 1 l 524 -7 q 483 10 483 -7 q 533 35 483 25 q 606 65 582 43 q 631 133 631 88 l 631 371 q 625 390 631 383 q 600 396 619 396 l 404 396 q 363 364 379 396 q 309 269 338 321 q 249 156 281 217 q 236 114 236 133 q 326 42 236 65 q 372 14 372 29 q 332 -1 372 -1 l 208 1 l 33 -7 q -7 10 -7 -7 q 33 38 -7 25 q 114 87 74 49 q 183 175 154 125 l 563 825 q 560 840 568 833 q 539 849 553 847 l 417 869 q 403 890 403 875 q 417 904 403 904 l 660 900 m 419 476 q 414 461 414 467 q 436 456 414 456 l 608 456 q 628 458 625 456 q 631 476 631 461 l 631 806 q 626 831 631 831 q 608 807 621 831 l 419 476 z "},"Ð":{"ha":1047,"x_min":40,"x_max":978,"o":"m 235 904 l 472 915 q 764 863 653 915 q 926 711 875 810 q 978 475 978 613 q 943 284 978 372 q 845 130 908 196 q 698 27 782 64 q 515 -10 614 -10 q 485 -8 514 -10 q 401 -4 457 -7 q 226 0 292 0 l 81 -7 q 40 10 40 -7 q 90 35 40 25 q 159 65 139 43 q 179 138 179 88 l 179 440 l 83 440 q 69 449 75 440 q 64 467 64 457 q 74 483 64 475 q 97 490 85 490 l 179 490 l 179 763 q 159 833 179 811 q 90 864 139 854 q 40 892 40 872 q 81 907 40 907 l 225 904 l 235 904 m 522 42 q 647 72 590 42 q 745 156 703 103 q 811 274 788 208 q 846 481 846 369 q 799 681 846 592 q 670 821 753 769 q 479 872 588 872 q 322 853 350 872 q 292 788 292 832 l 292 490 l 524 490 q 537 485 531 490 q 543 475 543 481 l 542 474 l 542 471 q 499 440 525 440 l 292 440 l 292 168 q 303 109 292 129 q 349 64 315 89 q 440 39 381 39 l 522 42 z "},"Ø":{"ha":1074,"x_min":68,"x_max":1008,"o":"m 119 -15 q 104 -19 115 -19 q 80 -10 92 -19 q 68 11 68 -1 q 82 36 68 22 l 186 139 q 69 444 69 271 q 123 680 69 574 q 288 854 176 786 q 549 922 397 922 q 860 804 729 922 l 971 914 q 986 919 976 919 q 1001 914 994 919 q 1008 894 1008 908 q 999 863 1008 872 l 899 763 q 1004 465 1004 640 q 886 129 1004 268 q 738 21 828 61 q 538 -19 647 -19 q 231 96 367 -19 l 119 -15 m 528 868 q 358 815 431 868 q 244 676 285 763 q 204 488 204 590 q 265 224 204 335 l 789 735 q 528 868 700 868 m 300 171 q 557 35 404 35 q 728 82 658 35 q 833 214 797 129 q 869 411 869 299 q 818 683 869 581 l 300 171 z "},"Þ":{"ha":776,"x_min":31,"x_max":719,"o":"m 246 903 l 411 907 q 451 892 451 907 q 401 864 451 872 q 324 832 350 854 q 297 763 297 810 l 297 739 q 306 711 297 711 q 311 712 307 711 q 322 714 315 713 l 338 718 q 438 728 372 728 q 582 699 518 728 q 683 616 646 671 q 719 482 719 561 q 704 405 719 449 q 665 321 689 361 q 610 258 640 281 q 537 219 581 236 q 445 194 493 203 q 356 186 397 186 l 308 190 q 297 178 297 190 l 297 133 q 407 33 297 51 q 453 10 453 25 q 413 -7 453 -7 l 250 0 l 71 -7 q 31 10 31 -7 q 82 35 31 25 q 159 67 132 43 q 186 138 186 90 l 186 763 q 171 832 186 808 q 108 864 156 856 q 61 892 61 872 q 101 907 61 907 l 246 903 m 296 254 q 308 239 296 246 q 368 226 328 226 q 477 248 426 226 q 560 322 528 269 q 592 465 592 374 q 569 572 592 522 q 506 651 546 621 q 415 682 467 682 l 401 682 q 353 681 371 682 q 317 669 335 679 q 297 642 299 660 q 295 502 296 558 q 294 417 294 446 l 296 254 z "},"Đ":{"ha":1047,"x_min":40,"x_max":978,"o":"m 235 904 l 472 915 q 764 863 653 915 q 926 711 875 810 q 978 475 978 613 q 943 284 978 372 q 845 130 908 196 q 698 27 782 64 q 515 -10 614 -10 q 485 -8 514 -10 q 401 -4 457 -7 q 226 0 292 0 l 81 -7 q 40 10 40 -7 q 90 35 40 25 q 159 65 139 43 q 179 138 179 88 l 179 440 l 83 440 q 69 449 75 440 q 64 467 64 457 q 74 483 64 475 q 97 490 85 490 l 179 490 l 179 763 q 159 833 179 811 q 90 864 139 854 q 40 892 40 872 q 81 907 40 907 l 225 904 l 235 904 m 522 42 q 647 72 590 42 q 745 156 703 103 q 811 274 788 208 q 846 481 846 369 q 799 681 846 592 q 670 821 753 769 q 479 872 588 872 q 322 853 350 872 q 292 788 292 832 l 292 490 l 524 490 q 537 485 531 490 q 543 475 543 481 l 542 474 l 542 471 q 499 440 525 440 l 292 440 l 292 168 q 303 109 292 129 q 349 64 315 89 q 440 39 381 39 l 522 42 z "},"Ħ":{"ha":1125,"x_min":51,"x_max":1069,"o":"m 1026 907 q 1067 892 1067 907 q 1021 864 1067 872 q 960 834 974 856 q 947 767 947 813 l 947 683 l 1040 683 q 1053 679 1047 683 q 1060 668 1060 675 q 1059 666 1060 667 q 1058 664 1058 665 q 1015 633 1042 633 l 947 633 l 947 139 q 961 63 947 85 q 1022 33 975 42 q 1069 10 1069 25 q 1029 -7 1069 -7 l 885 0 l 736 -7 q 696 10 696 -7 q 742 33 696 25 q 836 135 836 53 l 836 399 q 829 419 836 419 l 299 419 q 292 404 292 419 l 292 147 q 322 73 292 104 q 400 33 353 42 q 447 10 447 25 q 407 -7 447 -7 l 244 0 l 92 -7 q 51 10 51 -7 q 100 35 51 24 q 165 65 149 43 q 181 138 181 86 l 181 633 l 92 633 q 78 642 83 633 q 72 660 72 650 q 83 676 72 668 q 106 683 93 683 l 181 683 l 181 765 q 168 836 181 817 q 108 864 156 856 q 61 892 61 872 q 101 907 61 907 l 244 903 q 281 904 244 903 q 392 907 318 906 q 432 892 432 907 q 386 864 432 872 q 292 765 292 847 l 292 683 l 836 683 l 836 767 q 744 864 836 847 q 699 892 699 872 q 739 907 699 907 q 779 906 739 907 q 900 903 819 906 l 1026 907 m 836 633 l 292 633 l 292 499 q 311 486 292 486 l 826 486 q 836 503 836 486 l 836 633 z "},"Ĳ":{"ha":929,"x_min":26,"x_max":907,"o":"m 736 903 l 867 907 q 907 892 907 907 q 860 864 907 872 q 797 835 813 854 q 782 765 782 815 l 782 197 q 758 -86 782 -11 q 744 -128 750 -114 q 730 -154 738 -143 q 708 -186 722 -165 q 538 -278 644 -278 q 435 -260 472 -278 q 394 -217 394 -243 q 410 -167 394 -192 q 444 -143 426 -143 q 515 -181 490 -143 q 579 -219 540 -219 q 671 0 671 -219 l 671 765 q 651 833 671 813 q 582 864 631 854 q 533 892 533 872 q 574 907 533 907 l 736 903 m 244 0 l 67 -7 q 26 10 26 -7 q 78 35 26 25 q 154 66 128 43 q 181 136 181 89 l 181 764 q 160 833 181 813 q 92 864 140 854 q 42 892 42 872 q 82 907 42 907 l 244 903 l 396 907 q 436 892 436 907 q 386 864 436 872 q 314 833 336 854 q 292 764 292 811 l 292 136 q 319 66 292 89 q 397 35 346 43 q 447 10 447 25 q 407 -7 447 -7 l 244 0 z "},"Ŀ":{"ha":797,"x_min":38,"x_max":799,"o":"m 246 903 l 421 907 q 461 892 461 907 q 422 865 461 871 q 366 854 383 858 q 328 842 349 850 q 292 788 292 826 l 292 133 q 313 68 292 88 q 399 49 333 49 l 601 49 q 636 60 607 49 q 751 183 708 90 q 783 225 767 225 q 799 200 799 225 q 797 196 797 199 l 797 193 q 760 17 767 75 q 740 -7 757 -7 l 264 0 l 76 -7 q 38 10 38 -7 q 68 33 38 25 q 153 67 125 44 q 181 133 181 89 l 181 778 q 165 840 181 826 q 100 864 150 854 q 50 892 50 872 q 90 907 50 907 l 246 903 m 508 556 q 558 575 528 575 q 608 556 589 575 q 628 506 628 536 q 608 456 628 475 q 558 436 589 436 q 508 456 528 436 q 489 506 489 475 q 508 556 489 536 z "},"Ł":{"ha":814,"x_min":31,"x_max":792,"o":"m 239 903 l 414 907 q 454 892 454 907 q 415 865 454 871 q 359 854 376 858 q 322 842 342 850 q 285 788 285 828 l 285 489 l 521 576 q 537 578 528 581 q 546 568 546 575 q 521 517 546 525 l 285 431 l 285 133 q 306 68 285 88 q 392 49 326 49 l 594 49 q 629 60 600 49 q 744 183 701 90 q 776 225 760 225 q 792 200 792 225 l 792 196 l 790 193 q 753 17 760 75 q 733 -7 750 -7 l 257 0 l 69 -7 q 31 10 31 -7 q 61 33 31 25 q 146 67 118 44 q 174 133 174 89 l 174 390 l 83 357 q 71 354 75 354 q 54 365 54 354 q 74 411 54 404 l 174 447 l 174 778 q 158 840 174 826 q 93 864 143 854 q 43 892 43 872 q 83 907 43 907 l 239 903 z "},"Ŋ":{"ha":1069,"x_min":24,"x_max":1076,"o":"m 876 903 l 1036 907 q 1076 892 1076 907 q 1028 864 1076 872 q 961 839 979 854 q 943 789 943 824 l 943 19 q 933 -86 943 -24 q 903 -208 922 -149 q 854 -301 883 -267 q 750 -354 810 -354 q 671 -345 708 -354 q 609 -319 633 -336 q 585 -276 585 -301 q 595 -232 585 -254 q 622 -210 606 -210 q 689 -242 665 -210 q 778 -293 724 -293 q 817 -262 799 -293 q 847 -185 835 -232 q 858 -87 858 -137 q 831 28 858 -12 q 685 208 817 47 q 304 672 553 369 q 275 694 286 694 q 263 665 263 694 q 258 363 260 493 q 256 144 256 233 q 344 33 256 50 q 390 10 390 25 q 350 -7 390 -7 l 219 0 l 93 -7 q 53 10 53 -7 q 93 32 53 25 q 138 58 119 38 q 166 105 156 79 q 179 149 176 131 q 204 704 204 357 q 171 806 204 772 q 81 857 138 839 q 24 894 24 876 q 56 914 24 914 l 269 907 q 303 883 283 907 q 338 839 308 876 q 412 744 367 801 q 510 621 457 688 q 616 487 563 554 q 715 362 669 419 q 792 266 761 304 q 831 219 824 228 q 868 189 856 189 q 881 218 879 189 q 883 374 882 263 q 883 663 883 485 l 883 783 q 856 833 882 808 q 793 863 829 857 q 757 888 757 869 q 797 903 757 903 l 876 903 z "},"Œ":{"ha":1296,"x_min":63,"x_max":1282,"o":"m 796 1 q 747 1 769 1 q 706 -1 725 0 q 657 -6 667 -6 l 647 -7 q 531 -19 593 -19 q 353 16 438 -19 q 203 115 268 51 q 100 263 138 179 q 63 444 63 347 q 116 680 63 574 q 281 854 169 786 q 542 922 390 922 q 668 906 601 922 q 783 901 685 901 l 1189 907 q 1214 894 1213 907 q 1235 757 1235 782 q 1215 731 1235 731 q 1200 744 1204 731 q 1173 813 1186 789 q 1138 848 1160 838 q 1076 858 1117 858 l 894 858 q 863 845 881 858 q 844 814 844 832 l 844 519 q 852 498 844 507 q 869 489 860 489 l 1003 489 q 1088 543 1065 489 q 1099 558 1090 549 q 1114 567 1108 567 q 1124 560 1118 567 q 1131 544 1131 554 l 1126 468 l 1129 374 q 1117 350 1129 350 q 1085 382 1096 350 q 1021 444 1064 444 l 892 444 q 855 438 865 444 q 844 408 844 431 l 844 142 q 866 69 844 90 q 936 49 888 49 l 1081 49 q 1158 58 1131 49 q 1205 92 1186 68 q 1244 161 1224 117 q 1265 175 1253 175 q 1282 160 1282 175 q 1276 97 1282 132 q 1258 17 1269 61 q 1239 -7 1251 -7 l 796 1 m 735 506 l 733 663 l 733 750 q 521 868 719 868 q 351 816 424 868 q 238 674 278 764 q 197 472 197 585 q 224 309 197 388 q 298 169 250 231 q 410 71 346 107 q 549 35 474 35 q 719 68 694 35 q 733 111 733 83 l 733 113 l 735 447 l 735 506 z "},"Ŧ":{"ha":931,"x_min":38,"x_max":931,"o":"m 475 0 l 297 -7 q 257 10 257 -7 q 307 35 257 25 q 384 69 357 43 q 411 146 411 94 l 411 503 l 238 503 q 224 511 229 503 q 218 529 218 519 q 228 545 218 538 q 251 553 239 553 l 411 553 l 411 774 q 395 828 411 818 q 331 839 379 839 l 218 839 q 150 825 182 839 q 107 790 118 811 q 78 750 96 768 q 47 732 61 732 q 38 749 38 732 q 44 778 38 761 q 88 932 75 840 q 111 964 92 964 q 146 919 122 964 q 267 892 161 893 q 483 888 374 888 q 775 896 594 888 q 879 926 860 897 q 908 953 897 953 q 931 931 931 953 q 928 900 931 919 q 919 853 925 881 q 911 805 914 825 q 908 774 908 785 l 908 767 q 890 732 908 732 l 888 732 q 868 755 875 735 q 861 776 861 775 q 856 788 860 779 q 850 800 853 796 q 843 811 847 803 q 831 822 838 818 q 814 831 824 826 q 756 839 792 839 q 622 838 675 839 q 544 833 569 836 q 522 774 522 832 l 522 553 l 706 553 q 719 549 713 553 q 725 538 725 544 q 724 535 725 536 q 724 533 724 535 q 681 503 707 503 l 522 503 l 522 146 q 549 69 522 94 q 628 35 576 43 q 678 10 678 25 q 638 -7 678 -7 l 475 0 z "},"Ω":{"ha":1153,"x_min":54,"x_max":1099,"o":"m 243 0 l 132 -7 q 114 13 118 -7 q 102 56 110 32 q 79 118 94 79 l 56 181 l 56 183 l 54 186 q 67 199 54 199 q 108 160 86 199 q 166 109 131 121 q 260 97 201 97 l 289 97 q 335 97 317 97 q 363 99 353 97 q 385 106 383 101 q 385 113 386 111 q 207 260 275 163 q 139 479 139 358 q 174 651 139 571 q 269 793 208 732 q 410 888 331 854 q 578 922 489 922 q 746 890 667 922 q 885 800 825 857 q 980 668 946 743 q 1014 507 1014 593 q 983 349 1014 424 q 898 215 953 274 q 771 118 843 156 q 760 103 757 110 q 800 99 775 100 q 858 97 825 97 l 893 97 q 1043 157 1010 97 q 1086 199 1067 199 q 1099 186 1099 199 l 1097 183 l 1097 181 l 1075 118 q 1040 15 1044 39 q 1021 -7 1035 -7 l 910 0 l 804 1 l 667 0 q 656 15 656 0 q 667 61 656 31 q 699 107 678 92 q 786 199 746 143 q 851 324 826 256 q 875 458 875 392 q 840 653 875 558 q 731 813 804 749 q 567 876 658 876 q 451 847 504 876 q 360 767 399 818 q 299 654 321 717 q 278 525 278 592 q 326 277 278 390 q 463 99 374 164 q 497 15 486 81 l 497 11 q 486 0 497 0 l 347 1 l 243 0 z "},"µ":{"ha":708,"x_min":43,"x_max":700,"o":"m 190 -353 q 151 -396 190 -396 q 74 -348 92 -396 q 50 -194 57 -300 q 45 -93 47 -142 q 43 0 43 -44 l 53 128 l 43 461 q 60 546 43 511 q 115 581 78 581 q 169 476 169 581 q 149 329 169 449 q 132 233 138 269 q 126 182 126 197 q 142 135 126 163 q 182 89 157 108 q 235 69 207 69 q 320 92 285 69 q 378 151 356 115 q 414 226 401 188 q 431 293 426 264 q 438 358 436 322 q 440 435 440 393 l 440 461 q 458 542 440 507 q 508 576 475 576 q 563 489 563 576 q 529 365 563 468 q 496 221 496 264 q 506 162 496 193 q 536 110 517 131 q 583 89 556 89 q 674 144 647 89 q 685 151 678 151 q 696 147 692 151 q 700 139 700 142 l 700 131 q 679 54 700 83 q 626 -7 650 7 q 567 -21 603 -21 q 512 -3 532 -21 q 471 67 492 15 q 460 109 465 86 q 453 158 456 132 q 361 24 426 93 q 292 -18 322 -18 q 233 -8 261 -18 q 189 14 206 1 q 151 41 171 25 q 122 67 131 57 q 97 86 103 86 q 83 38 83 86 q 89 -39 83 6 q 106 -129 94 -83 q 131 -211 117 -175 q 152 -262 142 -239 q 172 -304 163 -285 q 190 -353 190 -342 z "},"ℓ":{"ha":335,"x_min":26,"x_max":307,"o":"m 167 3 l 54 -4 q 26 10 26 -4 q 65 35 26 22 q 111 61 106 47 q 118 86 118 75 l 118 786 q 54 888 118 874 q 43 906 43 890 q 53 922 43 921 q 214 978 89 931 l 215 978 l 217 979 q 225 969 225 979 l 222 944 q 217 877 219 918 q 215 781 215 836 l 215 86 q 233 50 215 58 q 279 32 250 42 q 307 10 307 21 q 279 -4 307 -4 l 167 3 z "},"a":{"ha":554,"x_min":49,"x_max":553,"o":"m 314 35 q 256 -1 294 17 q 172 -19 218 -19 q 113 -3 142 -19 q 67 38 85 13 q 49 90 49 64 q 150 215 49 174 l 292 274 q 324 293 318 285 q 331 329 329 301 l 333 415 l 333 418 q 310 481 333 454 q 258 507 288 507 q 201 492 228 507 q 168 465 175 478 q 161 436 161 451 l 163 417 q 143 397 163 408 q 101 377 124 386 q 69 368 79 368 q 56 381 56 368 q 78 442 56 413 q 135 497 100 471 q 210 544 171 524 q 318 575 267 575 q 400 539 367 575 q 432 451 433 503 l 425 151 l 425 143 q 475 44 425 44 q 531 64 508 44 q 538 67 533 67 q 548 63 543 67 q 553 51 553 58 l 553 50 q 529 22 547 39 q 488 -7 511 6 q 442 -19 464 -19 q 384 -1 407 -19 q 351 35 361 17 q 339 53 342 53 q 314 35 332 53 m 160 121 q 182 65 160 85 q 236 44 204 44 q 297 69 268 44 q 328 138 326 94 l 331 206 l 331 213 q 318 235 331 235 q 299 231 310 235 q 160 121 160 183 z "},"à":{"ha":554,"x_min":49,"x_max":553,"o":"m 197 876 q 310 657 310 681 q 297 633 310 633 q 249 672 283 633 q 204 722 231 692 q 152 783 178 751 q 109 840 126 815 q 92 869 92 864 q 160 901 92 901 q 197 876 183 901 m 163 417 q 143 397 163 408 q 101 377 124 386 q 69 368 79 368 q 56 381 56 368 q 78 442 56 413 q 135 497 100 471 q 210 544 171 524 q 318 575 267 575 q 400 539 367 575 q 432 451 433 503 l 425 151 l 425 143 q 475 44 425 44 q 531 64 508 44 q 544 65 536 69 q 553 51 553 60 l 553 50 q 529 22 547 39 q 488 -7 511 6 q 442 -19 464 -19 q 384 -1 407 -19 q 351 35 361 17 q 339 53 342 53 q 314 35 332 53 q 256 -1 294 17 q 172 -19 218 -19 q 113 -3 142 -19 q 67 38 85 13 q 49 90 49 64 q 150 215 49 174 l 292 274 q 324 293 318 285 q 331 329 329 301 l 333 415 l 333 418 q 310 481 333 454 q 258 507 288 507 q 201 492 228 507 q 168 465 175 478 q 161 436 161 451 l 163 417 m 160 121 q 182 65 160 85 q 236 44 204 44 q 297 69 268 44 q 328 138 326 94 l 331 206 q 318 235 333 235 q 299 231 310 235 q 160 121 160 183 z "},"á":{"ha":554,"x_min":49,"x_max":553,"o":"m 439 869 q 422 840 439 864 q 378 783 404 815 q 327 722 353 751 q 283 672 301 692 q 235 633 249 633 q 221 657 221 633 q 333 876 221 681 q 371 901 349 901 q 439 869 439 901 m 163 417 q 143 397 163 408 q 101 377 124 386 q 69 368 79 368 q 56 381 56 368 q 78 442 56 413 q 135 497 100 471 q 210 544 171 524 q 318 575 267 575 q 400 539 367 575 q 432 451 433 503 l 425 151 l 425 143 q 475 44 425 44 q 531 64 508 44 q 544 65 536 69 q 553 51 553 60 l 553 50 q 529 22 547 39 q 488 -7 511 6 q 442 -19 464 -19 q 384 -1 407 -19 q 351 35 361 17 q 339 53 342 53 q 314 35 332 53 q 256 -1 294 17 q 172 -19 218 -19 q 113 -3 142 -19 q 67 38 85 13 q 49 90 49 64 q 150 215 49 174 l 292 274 q 324 293 318 285 q 331 329 329 301 l 333 415 l 333 418 q 310 481 333 454 q 258 507 288 507 q 201 492 228 507 q 168 465 175 478 q 161 436 161 451 l 163 417 m 160 121 q 182 65 160 85 q 236 44 204 44 q 297 69 268 44 q 328 138 326 94 l 331 206 q 318 235 333 235 q 299 231 310 235 q 160 121 160 183 z "},"â":{"ha":554,"x_min":49,"x_max":553,"o":"m 261 768 q 169 651 219 718 q 128 621 147 621 q 115 638 115 621 q 128 674 115 646 q 162 740 142 703 q 201 811 182 776 q 231 864 219 846 q 265 900 251 900 q 301 863 279 900 q 331 810 313 844 q 370 740 350 776 q 403 674 390 703 q 417 638 417 646 q 400 621 417 621 q 363 651 383 621 q 271 768 338 685 q 261 768 265 774 m 163 417 q 143 397 163 408 q 101 377 124 386 q 69 368 79 368 q 56 381 56 368 q 78 442 56 413 q 135 497 100 471 q 210 544 171 524 q 318 575 267 575 q 400 539 367 575 q 432 451 433 503 l 425 151 l 425 143 q 475 44 425 44 q 531 64 508 44 q 544 65 536 69 q 553 51 553 60 l 553 50 q 529 22 547 39 q 488 -7 511 6 q 442 -19 464 -19 q 384 -1 407 -19 q 351 35 361 17 q 339 53 342 53 q 314 35 332 53 q 256 -1 294 17 q 172 -19 218 -19 q 113 -3 142 -19 q 67 38 85 13 q 49 90 49 64 q 150 215 49 174 l 292 274 q 324 293 318 285 q 331 329 329 301 l 333 415 l 333 418 q 310 481 333 454 q 258 507 288 507 q 201 492 228 507 q 168 465 175 478 q 161 436 161 451 l 163 417 m 160 121 q 182 65 160 85 q 236 44 204 44 q 297 69 268 44 q 328 138 326 94 l 331 206 q 318 235 333 235 q 299 231 310 235 q 160 121 160 183 z "},"ã":{"ha":554,"x_min":49,"x_max":553,"o":"m 189 704 q 140 679 168 704 q 110 653 114 653 q 90 681 90 653 q 104 706 90 688 q 139 746 118 725 q 180 782 160 767 q 213 797 200 797 l 361 786 q 415 810 389 786 q 440 833 439 833 q 463 810 463 833 q 449 785 463 803 q 415 746 435 767 q 376 710 396 725 q 344 694 357 694 l 189 704 m 163 417 q 143 397 163 408 q 101 377 124 386 q 69 368 79 368 q 56 381 56 368 q 78 442 56 413 q 135 497 100 471 q 210 544 171 524 q 318 575 267 575 q 400 539 367 575 q 432 451 433 503 l 425 151 l 425 143 q 475 44 425 44 q 531 64 508 44 q 544 65 536 69 q 553 51 553 60 l 553 50 q 529 22 547 39 q 488 -7 511 6 q 442 -19 464 -19 q 384 -1 407 -19 q 351 35 361 17 q 339 53 342 53 q 314 35 332 53 q 256 -1 294 17 q 172 -19 218 -19 q 113 -3 142 -19 q 67 38 85 13 q 49 90 49 64 q 150 215 49 174 l 292 274 q 324 293 318 285 q 331 329 329 301 l 333 415 l 333 418 q 310 481 333 454 q 258 507 288 507 q 201 492 228 507 q 168 465 175 478 q 161 436 161 451 l 163 417 m 160 121 q 182 65 160 85 q 236 44 204 44 q 297 69 268 44 q 328 138 326 94 l 331 206 q 318 235 333 235 q 299 231 310 235 q 160 121 160 183 z "},"ä":{"ha":554,"x_min":49,"x_max":553,"o":"m 347 803 q 394 824 368 824 q 442 802 421 824 q 464 754 464 781 q 442 706 464 728 q 394 685 421 685 q 347 706 368 685 q 325 754 325 728 q 347 803 325 781 m 101 803 q 149 824 122 824 q 197 802 175 824 q 218 754 218 781 q 197 706 218 728 q 149 685 175 685 q 101 706 122 685 q 79 754 79 728 q 101 803 79 781 m 163 417 q 143 397 163 408 q 101 377 124 386 q 69 368 79 368 q 56 381 56 368 q 78 442 56 413 q 135 497 100 471 q 210 544 171 524 q 318 575 267 575 q 400 539 367 575 q 432 451 433 503 l 425 151 l 425 143 q 475 44 425 44 q 531 64 508 44 q 544 65 536 69 q 553 51 553 60 l 553 50 q 529 22 547 39 q 488 -7 511 6 q 442 -19 464 -19 q 384 -1 407 -19 q 351 35 361 17 q 339 53 342 53 q 314 35 332 53 q 256 -1 294 17 q 172 -19 218 -19 q 113 -3 142 -19 q 67 38 85 13 q 49 90 49 64 q 150 215 49 174 l 292 274 q 324 293 318 285 q 331 329 329 301 l 333 415 l 333 418 q 310 481 333 454 q 258 507 288 507 q 201 492 228 507 q 168 465 175 478 q 161 436 161 451 l 163 417 m 160 121 q 182 65 160 85 q 236 44 204 44 q 297 69 268 44 q 328 138 326 94 l 331 206 q 318 235 333 235 q 299 231 310 235 q 160 121 160 183 z "},"å":{"ha":554,"x_min":49,"x_max":553,"o":"m 188 864 q 271 899 224 899 q 350 867 317 899 q 383 788 383 836 q 347 702 383 738 q 264 667 310 667 q 183 701 217 667 q 150 782 150 736 q 188 864 150 829 m 207 789 q 226 728 207 754 q 272 703 244 703 q 326 781 326 703 q 306 836 326 811 q 258 861 286 861 q 207 789 207 861 m 163 417 q 143 397 163 408 q 101 377 124 386 q 69 368 79 368 q 56 381 56 368 q 78 442 56 413 q 135 497 100 471 q 210 544 171 524 q 318 575 267 575 q 400 539 367 575 q 432 451 433 503 l 425 151 l 425 143 q 475 44 425 44 q 531 64 508 44 q 544 65 536 69 q 553 51 553 60 l 553 50 q 529 22 547 39 q 488 -7 511 6 q 442 -19 464 -19 q 384 -1 407 -19 q 351 35 361 17 q 339 53 342 53 q 314 35 332 53 q 256 -1 294 17 q 172 -19 218 -19 q 113 -3 142 -19 q 67 38 85 13 q 49 90 49 64 q 150 215 49 174 l 292 274 q 324 293 318 285 q 331 329 329 301 l 333 415 l 333 418 q 310 481 333 454 q 258 507 288 507 q 201 492 228 507 q 168 465 175 478 q 161 436 161 451 l 163 417 m 160 121 q 182 65 160 85 q 236 44 204 44 q 297 69 268 44 q 328 138 326 94 l 331 206 q 318 235 333 235 q 299 231 310 235 q 160 121 160 183 z "},"ā":{"ha":554,"x_min":49,"x_max":553,"o":"m 414 771 q 426 765 421 771 q 432 744 432 760 q 421 712 432 729 q 389 694 410 694 l 118 694 q 105 700 111 694 q 99 717 99 706 q 107 749 99 728 q 132 771 115 771 l 414 771 m 163 417 q 143 397 163 408 q 101 377 124 386 q 69 368 79 368 q 56 381 56 368 q 78 442 56 413 q 135 497 100 471 q 210 544 171 524 q 318 575 267 575 q 400 539 367 575 q 432 451 433 503 l 425 151 l 425 143 q 475 44 425 44 q 531 64 508 44 q 544 65 536 69 q 553 51 553 60 l 553 50 q 529 22 547 39 q 488 -7 511 6 q 442 -19 464 -19 q 384 -1 407 -19 q 351 35 361 17 q 339 53 342 53 q 314 35 332 53 q 256 -1 294 17 q 172 -19 218 -19 q 113 -3 142 -19 q 67 38 85 13 q 49 90 49 64 q 150 215 49 174 l 292 274 q 324 293 318 285 q 331 329 329 301 l 333 415 l 333 418 q 310 481 333 454 q 258 507 288 507 q 201 492 228 507 q 168 465 175 478 q 161 436 161 451 l 163 417 m 160 121 q 182 65 160 85 q 236 44 204 44 q 297 69 268 44 q 328 138 326 94 l 331 206 q 318 235 333 235 q 299 231 310 235 q 160 121 160 183 z "},"ă":{"ha":554,"x_min":49,"x_max":553,"o":"m 158 815 q 265 747 172 747 q 372 815 358 747 q 393 844 379 844 q 414 811 414 844 q 374 709 414 754 q 265 664 333 664 q 157 709 197 664 q 117 811 117 754 q 138 844 117 844 q 158 815 153 844 m 163 417 q 143 397 163 408 q 101 377 124 386 q 69 368 79 368 q 56 381 56 368 q 78 442 56 413 q 135 497 100 471 q 210 544 171 524 q 318 575 267 575 q 400 539 367 575 q 432 451 433 503 l 425 151 l 425 143 q 475 44 425 44 q 531 64 508 44 q 544 65 536 69 q 553 51 553 60 l 553 50 q 529 22 547 39 q 488 -7 511 6 q 442 -19 464 -19 q 384 -1 407 -19 q 351 35 361 17 q 339 53 342 53 q 314 35 332 53 q 256 -1 294 17 q 172 -19 218 -19 q 113 -3 142 -19 q 67 38 85 13 q 49 90 49 64 q 150 215 49 174 l 292 274 q 324 293 318 285 q 331 329 329 301 l 333 415 l 333 418 q 310 481 333 454 q 258 507 288 507 q 201 492 228 507 q 168 465 175 478 q 161 436 161 451 l 163 417 m 160 121 q 182 65 160 85 q 236 44 204 44 q 297 69 268 44 q 328 138 326 94 l 331 206 q 318 235 333 235 q 299 231 310 235 q 160 121 160 183 z "},"ą":{"ha":554,"x_min":49,"x_max":553,"o":"m 163 417 q 143 397 163 408 q 101 377 124 386 q 69 368 79 368 q 56 381 56 368 q 78 442 56 413 q 135 497 100 471 q 210 544 171 524 q 318 575 267 575 q 400 539 367 575 q 432 451 433 503 l 425 151 l 425 143 q 475 44 425 44 q 531 64 508 44 q 544 65 536 69 q 553 51 553 60 l 553 50 q 524 18 546 38 q 476 -12 501 -1 q 368 -211 368 -101 q 392 -281 368 -256 q 444 -307 415 -307 q 491 -299 472 -307 q 521 -285 510 -292 q 533 -278 532 -278 q 544 -287 544 -278 q 524 -331 544 -304 q 472 -378 504 -357 q 400 -399 439 -399 q 303 -360 342 -399 q 265 -249 265 -322 q 415 -17 265 -133 q 350 39 372 -6 q 339 53 342 53 q 314 35 332 53 q 256 -1 294 17 q 172 -19 218 -19 q 113 -3 142 -19 q 67 38 85 13 q 49 90 49 64 q 150 215 49 174 l 292 274 q 324 293 318 285 q 331 329 329 301 l 333 415 l 333 418 q 310 481 333 454 q 258 507 288 507 q 201 492 228 507 q 168 465 175 478 q 161 436 161 451 l 163 417 m 160 121 q 182 65 160 85 q 236 44 204 44 q 297 69 268 44 q 328 138 326 94 l 331 206 q 318 235 333 235 q 299 231 310 235 q 160 121 160 183 z "},"b":{"ha":715,"x_min":28,"x_max":667,"o":"m 667 292 q 631 138 667 210 q 528 24 596 67 q 360 -19 460 -19 q 233 1 308 -19 q 176 16 196 11 q 153 21 156 21 q 133 8 149 21 q 114 -4 119 -4 q 101 1 108 -4 q 94 13 94 6 l 94 19 q 95 29 94 24 q 97 40 96 35 l 101 67 q 103 103 103 83 q 104 146 104 124 l 104 786 q 39 888 104 872 q 28 906 28 890 q 38 922 28 921 q 135 954 85 932 l 194 978 l 197 979 q 206 969 206 979 l 201 824 l 201 539 q 214 493 201 496 q 319 554 263 533 q 417 575 376 575 q 545 539 489 575 q 634 439 601 503 q 667 292 667 375 m 201 183 q 228 100 201 136 q 298 44 254 64 q 393 24 342 24 q 483 56 444 24 q 542 143 521 89 q 563 264 563 197 q 540 388 563 331 q 473 482 517 446 q 368 518 429 518 q 293 506 335 518 q 231 469 251 493 q 201 351 201 439 l 201 183 z "},"c":{"ha":524,"x_min":49,"x_max":517,"o":"m 517 110 q 483 52 517 82 q 395 1 450 22 q 278 -19 340 -19 q 163 17 215 -19 q 80 117 111 54 q 49 261 49 181 q 88 413 49 342 q 192 529 126 485 q 336 574 257 574 q 508 507 454 574 q 515 486 515 496 q 495 458 515 474 q 458 443 475 443 q 428 457 442 443 q 386 499 403 485 q 350 517 369 513 q 297 522 331 522 q 185 460 225 522 q 144 304 144 399 q 173 184 144 242 q 251 90 201 126 q 365 53 301 53 q 433 69 407 53 q 488 122 458 85 q 500 129 494 129 q 511 123 506 129 q 517 110 517 117 z "},"ç":{"ha":524,"x_min":49,"x_max":517,"o":"m 210 -179 q 193 -172 201 -179 q 185 -160 185 -165 q 192 -144 185 -156 l 290 -19 l 286 -19 q 164 17 218 -19 q 79 117 110 54 q 49 261 49 181 q 88 413 49 342 q 192 529 126 485 q 336 574 257 574 q 508 507 454 574 q 515 486 515 496 q 495 458 515 474 q 458 443 475 443 q 428 457 442 443 q 386 499 403 485 q 350 517 369 513 q 297 522 331 522 q 185 460 225 522 q 144 304 144 399 q 173 184 144 242 q 251 90 201 126 q 365 53 301 53 q 433 69 407 53 q 488 122 458 85 q 500 129 494 129 q 511 123 506 129 q 517 110 517 117 q 492 61 517 88 q 426 14 467 35 q 338 -15 386 -7 l 303 -60 q 297 -71 297 -65 q 324 -93 297 -83 q 373 -131 349 -103 q 397 -193 397 -160 q 367 -285 397 -243 q 296 -354 336 -328 q 224 -381 256 -381 q 182 -324 182 -381 q 188 -304 182 -311 q 200 -297 194 -297 l 222 -306 q 243 -312 231 -308 q 269 -315 256 -315 q 310 -302 292 -315 q 328 -250 328 -289 q 306 -192 328 -212 q 246 -171 283 -171 l 210 -179 z "},"ć":{"ha":524,"x_min":49,"x_max":517,"o":"m 493 869 q 476 840 493 864 q 433 783 458 815 q 381 722 407 751 q 338 672 356 692 q 289 633 303 633 q 275 657 275 633 q 388 876 275 681 q 425 901 403 901 q 493 869 493 901 m 515 486 q 495 458 515 474 q 458 443 475 443 q 428 457 442 443 q 386 499 403 485 q 350 517 369 513 q 297 522 331 522 q 185 460 225 522 q 144 304 144 399 q 173 184 144 242 q 251 90 201 126 q 365 53 301 53 q 433 69 407 53 q 488 122 458 85 q 500 129 494 129 q 511 123 506 129 q 517 110 517 117 q 483 52 517 82 q 395 1 450 22 q 278 -19 340 -19 q 163 17 215 -19 q 80 117 111 54 q 49 261 49 181 q 88 413 49 342 q 192 529 126 485 q 336 574 257 574 q 508 507 454 574 q 515 486 515 496 z "},"č":{"ha":524,"x_min":49,"x_max":517,"o":"m 314 764 q 324 764 318 758 q 456 913 431 913 q 468 892 468 913 q 346 681 468 869 q 318 656 332 656 q 290 681 306 656 q 168 892 168 869 q 182 913 168 913 q 314 764 207 913 m 515 486 q 495 458 515 474 q 458 443 475 443 q 428 457 442 443 q 386 499 403 485 q 350 517 369 513 q 297 522 331 522 q 185 460 225 522 q 144 304 144 399 q 173 184 144 242 q 251 90 201 126 q 365 53 301 53 q 433 69 407 53 q 488 122 458 85 q 500 129 494 129 q 511 123 506 129 q 517 110 517 117 q 483 52 517 82 q 395 1 450 22 q 278 -19 340 -19 q 163 17 215 -19 q 80 117 111 54 q 49 261 49 181 q 88 413 49 342 q 192 529 126 485 q 336 574 257 574 q 508 507 454 574 q 515 486 515 496 z "},"d":{"ha":703,"x_min":49,"x_max":700,"o":"m 556 -3 q 492 -26 500 -26 q 481 -21 481 -26 l 488 71 l 488 79 q 415 10 463 40 q 306 -19 368 -19 q 172 21 231 -19 q 81 127 114 61 q 49 272 49 193 q 88 421 49 351 q 197 533 126 490 q 361 575 268 575 q 403 570 381 575 q 446 558 426 565 q 471 544 465 551 q 485 533 479 533 q 489 567 489 533 l 489 786 q 473 859 489 839 q 418 888 457 879 q 407 906 407 890 q 417 922 407 921 q 472 938 444 929 q 525 957 499 946 q 588 978 579 978 q 596 972 594 978 q 596 963 596 969 q 594 944 596 956 q 586 781 586 865 l 586 153 q 615 63 586 63 q 679 67 658 63 l 683 67 q 700 50 700 67 q 681 29 700 29 q 613 16 644 24 q 556 -3 582 8 m 232 90 q 356 43 296 43 q 451 79 414 43 q 489 167 489 115 l 489 354 q 467 436 489 397 q 408 501 446 475 q 318 526 369 526 q 228 492 268 526 q 169 410 188 458 q 151 292 151 364 q 174 169 151 222 q 232 90 197 115 z "},"ď":{"ha":703,"x_min":49,"x_max":732,"o":"m 639 735 q 640 758 639 746 q 642 783 640 771 q 642 794 642 789 q 643 803 643 799 q 642 817 643 810 q 640 831 642 825 q 636 911 636 854 q 662 958 636 938 q 710 979 688 979 q 732 938 732 979 q 731 918 732 922 q 661 722 711 789 q 646 711 653 711 q 639 735 639 711 m 488 71 l 488 79 q 415 10 463 40 q 306 -19 368 -19 q 172 21 231 -19 q 81 127 114 61 q 49 272 49 193 q 88 421 49 351 q 197 533 126 490 q 361 575 268 575 q 403 570 381 575 q 446 558 426 565 q 471 544 465 551 q 485 533 479 533 q 489 567 489 533 l 489 786 q 473 859 489 839 q 418 888 457 879 q 407 906 407 890 q 417 922 407 921 q 472 938 444 929 q 525 957 499 946 q 588 978 579 978 q 596 972 594 978 q 596 963 596 969 q 594 944 596 956 q 586 781 586 865 l 586 153 q 615 63 586 63 q 679 67 658 63 q 700 50 700 71 q 681 29 700 29 q 613 16 644 24 q 556 -3 582 8 q 492 -26 500 -26 q 481 -21 481 -26 l 488 71 m 318 526 q 228 492 268 526 q 169 410 188 458 q 151 292 151 364 q 174 169 151 222 q 232 90 197 115 q 356 43 296 43 q 451 79 414 43 q 489 167 489 115 l 489 354 q 467 436 489 397 q 408 501 446 475 q 318 526 369 526 z "},"e":{"ha":539,"x_min":42,"x_max":497,"o":"m 489 99 q 454 47 483 75 q 378 0 425 19 q 269 -19 331 -19 q 156 19 208 -19 q 73 124 104 57 q 42 275 42 190 q 78 428 42 360 q 178 535 115 496 q 318 575 240 575 q 449 540 401 575 q 497 446 497 506 q 467 372 497 386 q 390 357 438 357 l 163 357 q 135 348 143 357 q 128 306 128 339 q 156 186 128 242 q 230 97 183 131 q 335 64 276 64 q 468 125 419 64 q 483 135 478 135 q 493 121 493 135 q 489 99 493 111 m 154 421 q 181 400 154 400 l 294 400 q 352 402 326 400 q 396 407 378 404 q 410 447 410 408 q 375 508 410 485 q 292 532 340 532 q 227 513 258 532 q 175 469 196 494 q 154 421 154 443 z "},"è":{"ha":539,"x_min":42,"x_max":497,"o":"m 236 876 q 349 657 349 681 q 336 633 349 633 q 288 672 322 633 q 243 722 269 692 q 191 783 217 751 q 148 840 165 815 q 131 869 131 864 q 199 901 131 901 q 236 876 222 901 m 318 575 q 449 540 401 575 q 497 446 497 506 q 467 372 497 386 q 390 357 438 357 l 163 357 q 135 348 143 357 q 128 306 128 339 q 156 186 128 242 q 230 97 183 131 q 335 64 276 64 q 468 125 419 64 q 483 135 478 135 q 493 121 493 135 q 489 99 493 111 q 454 47 483 75 q 378 0 425 19 q 269 -19 331 -19 q 156 19 208 -19 q 73 124 104 57 q 42 275 42 190 q 78 428 42 360 q 178 535 115 496 q 318 575 240 575 m 410 447 q 375 508 410 485 q 292 532 340 532 q 227 513 258 532 q 175 469 196 494 q 154 421 154 443 q 181 400 154 400 l 294 400 q 352 402 326 400 q 396 407 378 404 q 410 447 410 408 z "},"é":{"ha":539,"x_min":42,"x_max":497,"o":"m 478 869 q 460 840 478 864 q 417 783 443 815 q 366 722 392 751 q 322 672 340 692 q 274 633 288 633 q 260 657 260 633 q 372 876 260 681 q 410 901 388 901 q 478 869 478 901 m 318 575 q 449 540 401 575 q 497 446 497 506 q 467 372 497 386 q 390 357 438 357 l 163 357 q 135 348 143 357 q 128 306 128 339 q 156 186 128 242 q 230 97 183 131 q 335 64 276 64 q 468 125 419 64 q 483 135 478 135 q 493 121 493 135 q 489 99 493 111 q 454 47 483 75 q 378 0 425 19 q 269 -19 331 -19 q 156 19 208 -19 q 73 124 104 57 q 42 275 42 190 q 78 428 42 360 q 178 535 115 496 q 318 575 240 575 m 410 447 q 375 508 410 485 q 292 532 340 532 q 227 513 258 532 q 175 469 196 494 q 154 421 154 443 q 181 400 154 400 l 294 400 q 352 402 326 400 q 396 407 378 404 q 410 447 410 408 z "},"ê":{"ha":539,"x_min":42,"x_max":497,"o":"m 300 768 q 208 651 258 718 q 167 621 186 621 q 154 638 154 621 q 167 674 154 646 q 201 740 181 703 q 240 811 221 776 q 269 864 258 846 q 304 900 290 900 q 340 863 318 900 q 370 810 351 844 q 409 740 389 776 q 442 674 429 703 q 456 638 456 646 q 439 621 456 621 q 401 651 422 621 q 310 768 376 685 q 300 768 304 774 m 318 575 q 449 540 401 575 q 497 446 497 506 q 467 372 497 386 q 390 357 438 357 l 163 357 q 135 348 143 357 q 128 306 128 339 q 156 186 128 242 q 230 97 183 131 q 335 64 276 64 q 468 125 419 64 q 483 135 478 135 q 493 121 493 135 q 489 99 493 111 q 454 47 483 75 q 378 0 425 19 q 269 -19 331 -19 q 156 19 208 -19 q 73 124 104 57 q 42 275 42 190 q 78 428 42 360 q 178 535 115 496 q 318 575 240 575 m 410 447 q 375 508 410 485 q 292 532 340 532 q 227 513 258 532 q 175 469 196 494 q 154 421 154 443 q 181 400 154 400 l 294 400 q 352 402 326 400 q 396 407 378 404 q 410 447 410 408 z "},"ë":{"ha":539,"x_min":42,"x_max":503,"o":"m 386 803 q 433 824 407 824 q 481 802 460 824 q 503 754 503 781 q 481 706 503 728 q 433 685 460 685 q 385 706 407 685 q 364 754 364 728 q 386 803 364 781 m 140 803 q 188 824 161 824 q 235 802 214 824 q 257 754 257 781 q 235 706 257 728 q 188 685 214 685 q 140 706 161 685 q 118 754 118 728 q 140 803 118 781 m 318 575 q 449 540 401 575 q 497 446 497 506 q 467 372 497 386 q 390 357 438 357 l 163 357 q 135 348 143 357 q 128 306 128 339 q 156 186 128 242 q 230 97 183 131 q 335 64 276 64 q 468 125 419 64 q 483 135 478 135 q 493 121 493 135 q 489 99 493 111 q 454 47 483 75 q 378 0 425 19 q 269 -19 331 -19 q 156 19 208 -19 q 73 124 104 57 q 42 275 42 190 q 78 428 42 360 q 178 535 115 496 q 318 575 240 575 m 410 447 q 375 508 410 485 q 292 532 340 532 q 227 513 258 532 q 175 469 196 494 q 154 421 154 443 q 181 400 154 400 l 294 400 q 352 402 326 400 q 396 407 378 404 q 410 447 410 408 z "},"ē":{"ha":539,"x_min":42,"x_max":497,"o":"m 453 771 q 465 765 460 771 q 471 744 471 760 q 460 712 471 729 q 428 694 449 694 l 157 694 q 144 700 150 694 q 138 717 138 706 q 146 749 138 728 q 171 771 154 771 l 453 771 m 318 575 q 449 540 401 575 q 497 446 497 506 q 467 372 497 386 q 390 357 438 357 l 163 357 q 135 348 143 357 q 128 306 128 339 q 156 186 128 242 q 230 97 183 131 q 335 64 276 64 q 468 125 419 64 q 483 135 478 135 q 493 121 493 135 q 489 99 493 111 q 454 47 483 75 q 378 0 425 19 q 269 -19 331 -19 q 156 19 208 -19 q 73 124 104 57 q 42 275 42 190 q 78 428 42 360 q 178 535 115 496 q 318 575 240 575 m 410 447 q 375 508 410 485 q 292 532 340 532 q 227 513 258 532 q 175 469 196 494 q 154 421 154 443 q 181 400 154 400 l 294 400 q 352 402 326 400 q 396 407 378 404 q 410 447 410 408 z "},"ė":{"ha":539,"x_min":42,"x_max":497,"o":"m 307 685 q 256 705 276 685 q 236 756 236 725 q 256 805 236 785 q 307 825 276 825 q 356 805 336 825 q 376 756 376 785 q 356 705 376 725 q 307 685 336 685 m 318 575 q 449 540 401 575 q 497 446 497 506 q 467 372 497 386 q 390 357 438 357 l 163 357 q 135 348 143 357 q 128 306 128 339 q 156 186 128 242 q 230 97 183 131 q 335 64 276 64 q 468 125 419 64 q 483 135 478 135 q 493 121 493 135 q 489 99 493 111 q 454 47 483 75 q 378 0 425 19 q 269 -19 331 -19 q 156 19 208 -19 q 73 124 104 57 q 42 275 42 190 q 78 428 42 360 q 178 535 115 496 q 318 575 240 575 m 410 447 q 375 508 410 485 q 292 532 340 532 q 227 513 258 532 q 175 469 196 494 q 154 421 154 443 q 181 400 154 400 l 294 400 q 352 402 326 400 q 396 407 378 404 q 410 447 410 408 z "},"ę":{"ha":539,"x_min":42,"x_max":497,"o":"m 476 -287 q 456 -331 476 -304 q 403 -378 436 -357 q 332 -399 371 -399 q 235 -360 274 -399 q 197 -249 197 -322 q 340 -12 197 -131 q 308 -17 325 -15 q 275 -19 292 -19 q 158 19 211 -19 q 73 124 104 57 q 42 275 42 190 q 78 428 42 360 q 178 535 115 496 q 318 575 240 575 q 449 540 401 575 q 497 446 497 506 q 467 372 497 386 q 390 357 438 357 l 163 357 q 135 348 143 357 q 128 306 128 339 q 156 186 128 242 q 230 97 183 131 q 335 64 276 64 q 468 125 419 64 q 483 135 478 135 q 493 121 493 135 q 492 107 493 113 q 421 22 479 63 q 378 -16 400 7 q 328 -94 356 -39 q 300 -203 300 -153 q 324 -281 300 -256 q 376 -307 347 -307 q 423 -299 404 -307 q 453 -285 442 -292 q 465 -278 464 -278 q 476 -287 476 -278 m 410 447 q 375 508 410 485 q 292 532 340 532 q 227 513 258 532 q 175 469 196 494 q 154 421 154 443 q 181 400 154 400 l 294 400 q 352 402 326 400 q 396 407 378 404 q 410 447 410 408 z "},"ě":{"ha":539,"x_min":42,"x_max":497,"o":"m 299 764 q 308 764 303 758 q 440 913 415 913 q 453 892 453 913 q 331 681 453 869 q 303 656 317 656 q 275 681 290 656 q 153 892 153 869 q 167 913 153 913 q 299 764 192 913 m 318 575 q 449 540 401 575 q 497 446 497 506 q 467 372 497 386 q 390 357 438 357 l 163 357 q 135 348 143 357 q 128 306 128 339 q 156 186 128 242 q 230 97 183 131 q 335 64 276 64 q 468 125 419 64 q 483 135 478 135 q 493 121 493 135 q 489 99 493 111 q 454 47 483 75 q 378 0 425 19 q 269 -19 331 -19 q 156 19 208 -19 q 73 124 104 57 q 42 275 42 190 q 78 428 42 360 q 178 535 115 496 q 318 575 240 575 m 410 447 q 375 508 410 485 q 292 532 340 532 q 227 513 258 532 q 175 469 196 494 q 154 421 154 443 q 181 400 154 400 l 294 400 q 352 402 326 400 q 396 407 378 404 q 410 447 410 408 z "},"f":{"ha":424,"x_min":33,"x_max":583,"o":"m 176 3 l 61 -4 q 33 10 33 -4 q 65 33 33 22 q 125 94 125 51 l 125 486 q 85 487 103 486 q 53 489 68 488 q 41 499 49 490 q 33 513 33 507 q 43 522 33 517 q 74 534 54 525 q 125 558 94 543 q 155 758 125 672 q 233 890 185 844 q 431 981 328 981 q 583 897 583 981 q 569 858 583 875 q 540 842 556 842 q 510 854 525 842 q 481 883 494 867 q 438 911 467 899 q 372 924 408 924 q 265 859 304 924 q 225 660 225 794 l 225 586 q 260 556 225 556 l 424 556 q 429 540 429 556 q 424 506 429 524 q 411 489 418 489 l 281 489 q 236 483 246 489 q 225 465 225 476 l 225 94 q 285 33 226 51 q 317 10 317 22 q 289 -4 317 -4 l 176 3 z "},"g":{"ha":604,"x_min":15,"x_max":604,"o":"m 581 -107 q 553 -215 581 -162 q 480 -310 525 -268 q 381 -378 435 -353 q 274 -403 326 -403 q 144 -386 203 -403 q 51 -335 86 -369 q 15 -244 15 -300 q 37 -170 15 -201 q 110 -107 58 -139 q 181 -43 158 -76 q 94 -8 133 -33 q 56 61 56 18 q 88 113 56 88 q 114 129 97 121 q 169 176 151 151 q 117 213 151 181 q 49 367 49 276 q 83 475 49 428 q 175 550 118 522 q 296 578 232 578 q 334 574 314 578 q 378 563 354 569 q 518 535 468 535 l 563 536 l 579 536 q 597 532 590 536 q 604 510 604 528 q 592 485 604 485 q 533 482 542 485 l 522 478 q 513 474 517 475 q 507 410 507 461 q 476 281 507 340 q 393 184 446 221 q 274 147 340 147 q 199 164 231 147 q 138 96 138 115 q 271 39 138 51 q 483 8 454 22 q 527 -12 504 0 q 565 -45 550 -24 q 581 -107 581 -67 m 157 369 q 174 288 157 328 q 219 222 190 249 q 285 196 249 196 q 349 219 321 196 q 394 283 378 243 q 410 367 410 322 q 392 450 410 411 q 346 513 375 489 q 279 536 317 536 q 215 512 243 536 q 172 449 188 488 q 157 369 157 411 m 114 -186 q 162 -302 114 -257 q 292 -347 210 -347 q 393 -322 347 -347 q 467 -251 439 -296 q 496 -151 496 -207 q 462 -93 496 -117 q 381 -60 428 -69 q 249 -47 332 -51 l 217 -47 q 191 -69 208 -53 q 147 -111 174 -85 q 114 -186 114 -150 z "},"ğ":{"ha":604,"x_min":15,"x_max":604,"o":"m 179 815 q 286 747 193 747 q 393 815 379 747 q 414 844 400 844 q 435 811 435 844 q 394 709 435 754 q 286 664 354 664 q 178 709 218 664 q 138 811 138 754 q 158 844 138 844 q 179 815 174 844 m 563 536 q 592 535 579 536 q 604 510 604 533 q 592 485 604 485 q 533 482 542 485 q 522 478 525 479 q 513 474 517 475 q 507 410 507 461 q 476 281 507 340 q 393 184 446 221 q 274 147 340 147 q 199 164 231 147 q 138 96 138 115 q 271 39 138 51 q 483 8 454 22 q 527 -12 504 0 q 565 -45 550 -24 q 581 -107 581 -67 q 553 -215 581 -162 q 480 -310 525 -268 q 381 -378 435 -353 q 274 -403 326 -403 q 144 -386 203 -403 q 51 -335 86 -369 q 15 -244 15 -300 q 37 -170 15 -201 q 110 -107 58 -139 q 181 -43 158 -76 q 94 -8 133 -33 q 56 61 56 18 q 88 113 56 88 q 114 129 97 121 q 169 176 151 151 q 117 213 151 181 q 49 367 49 276 q 83 475 49 428 q 175 550 118 522 q 296 578 232 578 q 334 574 314 578 q 378 563 354 569 q 518 535 468 535 l 563 536 m 410 367 q 392 450 410 411 q 346 513 375 489 q 279 536 317 536 q 215 512 243 536 q 172 449 188 488 q 157 369 157 411 q 174 288 157 328 q 219 222 190 249 q 285 196 249 196 q 349 219 321 196 q 394 283 378 243 q 410 367 410 322 m 114 -186 q 162 -302 114 -257 q 292 -347 210 -347 q 393 -322 347 -347 q 467 -251 439 -296 q 496 -151 496 -207 q 462 -93 496 -117 q 381 -60 428 -69 q 249 -47 332 -51 l 217 -47 q 191 -69 208 -53 q 147 -111 174 -85 q 114 -186 114 -150 z "},"ģ":{"ha":604,"x_min":15,"x_max":604,"o":"m 254 828 q 266 779 254 799 q 303 760 278 760 q 344 742 326 760 q 363 704 363 725 q 344 667 363 683 q 297 651 325 651 q 215 690 247 651 q 182 789 182 728 q 209 868 182 831 q 276 931 236 906 q 354 957 317 956 l 357 957 q 382 943 382 957 q 363 928 382 932 q 285 888 317 918 q 254 828 254 857 m 563 536 q 592 535 579 536 q 604 510 604 533 q 592 485 604 485 q 533 482 542 485 q 522 478 525 479 q 513 474 517 475 q 507 410 507 461 q 476 281 507 340 q 393 184 446 221 q 274 147 340 147 q 199 164 231 147 q 138 96 138 115 q 271 39 138 51 q 483 8 454 22 q 527 -12 504 0 q 565 -45 550 -24 q 581 -107 581 -67 q 553 -215 581 -162 q 480 -310 525 -268 q 381 -378 435 -353 q 274 -403 326 -403 q 144 -386 203 -403 q 51 -335 86 -369 q 15 -244 15 -300 q 37 -170 15 -201 q 110 -107 58 -139 q 181 -43 158 -76 q 94 -8 133 -33 q 56 61 56 18 q 88 113 56 88 q 114 129 97 121 q 169 176 151 151 q 117 213 151 181 q 49 367 49 276 q 83 475 49 428 q 175 550 118 522 q 296 578 232 578 q 334 574 314 578 q 378 563 354 569 q 518 535 468 535 l 563 536 m 410 367 q 392 450 410 411 q 346 513 375 489 q 279 536 317 536 q 215 512 243 536 q 172 449 188 488 q 157 369 157 411 q 174 288 157 328 q 219 222 190 249 q 285 196 249 196 q 349 219 321 196 q 394 283 378 243 q 410 367 410 322 m 114 -186 q 162 -302 114 -257 q 292 -347 210 -347 q 393 -322 347 -347 q 467 -251 439 -296 q 496 -151 496 -207 q 462 -93 496 -117 q 381 -60 428 -69 q 249 -47 332 -51 l 217 -47 q 191 -69 208 -53 q 147 -111 174 -85 q 114 -186 114 -150 z "},"h":{"ha":715,"x_min":26,"x_max":683,"o":"m 167 3 l 54 -4 q 26 10 26 -4 q 51 31 26 22 q 97 49 76 39 q 118 90 118 58 l 118 786 q 56 888 118 875 q 44 906 44 890 q 54 922 44 921 q 215 978 90 931 l 218 979 q 226 963 226 979 q 225 950 226 954 q 217 877 219 919 q 215 781 215 835 l 215 539 q 226 488 215 503 q 436 575 346 575 q 549 521 504 575 q 594 386 594 467 l 594 94 q 651 33 594 50 q 683 10 683 22 q 656 -4 683 -4 l 547 3 l 439 -4 q 411 10 411 -4 q 443 33 411 22 q 497 94 497 50 l 497 378 q 478 440 497 411 q 429 485 458 468 q 368 503 400 503 q 253 472 292 503 q 223 434 231 454 q 215 372 215 414 l 215 90 q 268 33 218 47 q 300 10 300 22 q 272 -4 300 -4 l 167 3 z "},"i":{"ha":340,"x_min":33,"x_max":314,"o":"m 235 782 q 214 733 233 753 q 164 713 194 714 q 114 733 133 714 q 94 783 94 753 q 114 833 94 814 q 164 853 133 853 q 214 833 194 853 q 235 782 233 814 m 174 3 l 61 -4 q 33 10 33 -4 q 72 35 33 22 q 118 61 113 47 q 125 86 125 75 l 125 388 q 60 489 125 474 q 49 507 49 492 q 58 524 49 522 q 200 589 125 540 q 225 603 222 603 q 235 596 235 603 q 222 408 222 469 l 222 86 q 240 50 222 58 q 286 32 257 42 q 314 10 314 21 q 286 -4 314 -4 l 174 3 z "},"ì":{"ha":340,"x_min":-14,"x_max":314,"o":"m 92 876 q 204 657 204 681 q 192 633 204 633 q 143 672 178 633 q 99 722 125 692 q 47 783 72 751 q 3 840 21 815 q -14 869 -14 864 q 54 901 -14 901 q 92 876 78 901 m 174 3 l 61 -4 q 33 10 33 -4 q 72 35 33 22 q 118 61 113 47 q 125 86 125 75 l 125 388 q 60 489 125 474 q 49 507 49 492 q 58 524 49 522 q 200 589 125 540 q 225 603 222 603 q 235 596 235 603 q 222 408 222 469 l 222 86 q 240 50 222 58 q 286 32 257 42 q 314 10 314 21 q 286 -4 314 -4 l 174 3 z "},"í":{"ha":340,"x_min":33,"x_max":333,"o":"m 333 869 q 316 840 333 864 q 273 783 299 815 q 222 722 247 751 q 178 672 196 692 q 129 633 143 633 q 115 657 115 633 q 228 876 115 681 q 265 901 243 901 q 333 869 333 901 m 174 3 l 61 -4 q 33 10 33 -4 q 72 35 33 22 q 118 61 113 47 q 125 86 125 75 l 125 388 q 60 489 125 474 q 49 507 49 492 q 58 524 49 522 q 200 589 125 540 q 225 603 222 603 q 235 596 235 603 q 222 408 222 469 l 222 86 q 240 50 222 58 q 286 32 257 42 q 314 10 314 21 q 286 -4 314 -4 l 174 3 z "},"î":{"ha":340,"x_min":10,"x_max":314,"o":"m 156 768 q 64 651 114 718 q 22 621 42 621 q 10 638 10 621 q 23 674 10 646 q 56 740 36 703 q 95 811 76 776 q 125 864 114 846 q 160 900 146 900 q 196 863 174 900 q 226 810 207 844 q 265 740 244 776 q 298 674 285 703 q 311 638 311 646 q 294 621 311 621 q 257 651 278 621 q 165 768 232 685 q 156 768 160 774 m 174 3 l 61 -4 q 33 10 33 -4 q 72 35 33 22 q 118 61 113 47 q 125 86 125 75 l 125 388 q 60 489 125 474 q 49 507 49 492 q 58 524 49 522 q 200 589 125 540 q 225 603 222 603 q 235 596 235 603 q 222 408 222 469 l 222 86 q 240 50 222 58 q 286 32 257 42 q 314 10 314 21 q 286 -4 314 -4 l 174 3 z "},"ï":{"ha":340,"x_min":-26,"x_max":358,"o":"m 242 803 q 289 824 263 824 q 337 802 315 824 q 358 754 358 781 q 337 706 358 728 q 289 685 315 685 q 241 706 263 685 q 219 754 219 728 q 242 803 219 781 m -4 803 q 43 824 17 824 q 91 802 69 824 q 113 754 113 781 q 91 706 113 728 q 43 685 69 685 q -5 706 17 685 q -26 754 -26 728 q -4 803 -26 781 m 174 3 l 61 -4 q 33 10 33 -4 q 72 35 33 22 q 118 61 113 47 q 125 86 125 75 l 125 388 q 60 489 125 474 q 49 507 49 492 q 58 524 49 522 q 200 589 125 540 q 225 603 222 603 q 235 596 235 603 q 222 408 222 469 l 222 86 q 240 50 222 58 q 286 32 257 42 q 314 10 314 21 q 286 -4 314 -4 l 174 3 z "},"ī":{"ha":340,"x_min":-7,"x_max":326,"o":"m 308 771 q 321 765 315 771 q 326 744 326 760 q 315 712 326 729 q 283 694 304 694 l 13 694 q -1 700 6 694 q -7 717 -7 706 q 1 749 -7 728 q 26 771 10 771 l 308 771 m 174 3 l 61 -4 q 33 10 33 -4 q 72 35 33 22 q 118 61 113 47 q 125 86 125 75 l 125 388 q 60 489 125 474 q 49 507 49 492 q 58 524 49 522 q 200 589 125 540 q 225 603 222 603 q 235 596 235 603 q 222 408 222 469 l 222 86 q 240 50 222 58 q 286 32 257 42 q 314 10 314 21 q 286 -4 314 -4 l 174 3 z "},"į":{"ha":340,"x_min":28,"x_max":314,"o":"m 165 713 q 115 733 135 713 q 94 783 94 753 q 115 833 94 813 q 165 853 135 853 q 215 833 194 853 q 235 783 235 813 q 215 733 235 753 q 165 713 194 713 m 208 1 q 131 -226 131 -93 q 154 -297 131 -271 q 207 -322 178 -322 q 253 -315 235 -322 q 283 -300 272 -308 q 296 -293 294 -293 q 307 -303 307 -293 q 287 -346 307 -319 q 234 -393 267 -372 q 163 -414 201 -414 q 66 -376 104 -414 q 28 -271 28 -337 q 43 -184 28 -226 q 80 -106 58 -142 q 118 -51 101 -71 q 144 -23 132 -36 q 171 3 157 -10 l 61 -4 q 33 10 33 -4 q 72 35 33 22 q 118 61 113 47 q 125 86 125 75 l 125 388 q 60 489 125 474 q 49 507 49 492 q 58 524 49 522 q 200 589 125 540 q 225 603 222 603 q 235 596 235 603 q 222 408 222 469 l 222 86 q 240 50 222 58 q 286 32 257 42 q 314 10 314 21 q 286 -4 314 -4 l 208 1 z "},"j":{"ha":296,"x_min":-49,"x_max":211,"o":"m 211 783 q 192 733 211 753 q 140 713 172 714 q 92 733 111 714 q 71 782 72 753 q 92 833 72 814 q 142 853 111 853 q 192 833 172 853 q 211 783 211 814 m 158 -211 q 110 -301 142 -258 q 44 -372 78 -344 q -12 -399 11 -399 q -49 -383 -49 -399 q -33 -361 -49 -369 q 61 -268 24 -346 q 99 96 99 -189 l 99 388 q 35 489 99 476 q 24 507 24 492 q 33 524 24 522 q 175 589 100 540 q 200 603 197 603 q 210 596 210 603 q 202 492 204 546 q 200 382 200 439 l 200 126 q 158 -211 200 -96 z "},"k":{"ha":651,"x_min":26,"x_max":665,"o":"m 665 7 q 638 -7 665 -7 l 385 0 q 353 13 353 0 q 383 39 353 29 q 414 64 414 49 q 404 83 414 72 l 229 285 q 224 288 226 288 q 215 268 215 288 q 214 238 214 258 q 214 186 214 218 q 213 149 214 167 q 213 115 213 131 q 222 63 213 83 q 264 33 231 43 q 296 10 296 22 q 264 -4 296 -4 q 240 -2 264 -4 q 167 3 215 0 q 140 1 167 3 q 58 -4 113 -1 q 26 10 26 -4 q 51 31 26 22 q 97 49 76 39 q 118 90 118 58 l 118 786 q 103 858 118 835 q 54 888 89 881 q 43 906 43 890 q 53 922 43 921 q 115 942 74 928 q 217 978 156 956 l 218 978 l 219 979 q 228 971 228 979 q 227 958 228 965 q 225 939 226 950 q 217 860 219 900 q 215 781 215 821 l 215 321 q 221 311 215 311 q 272 340 239 311 q 374 435 335 396 q 431 497 414 474 q 432 501 432 499 q 396 525 432 517 q 379 536 379 532 q 410 556 379 556 l 478 556 q 557 564 507 556 q 611 572 607 572 q 622 564 622 572 q 613 545 622 554 q 594 533 604 536 q 553 521 575 529 q 510 499 532 513 q 440 446 488 485 q 319 343 393 407 q 315 319 304 331 q 390 234 349 281 q 467 150 431 188 q 519 97 503 113 q 633 31 569 49 q 665 7 665 19 z "},"ķ":{"ha":651,"x_min":26,"x_max":665,"o":"m 385 0 q 353 13 353 0 q 383 39 353 29 q 414 64 414 49 q 404 83 414 72 l 229 285 q 221 288 226 289 q 215 268 215 286 q 214 238 214 258 q 214 186 214 218 q 213 149 214 167 q 213 115 213 131 q 222 63 213 83 q 264 33 231 43 q 296 10 296 22 q 264 -4 296 -4 q 240 -2 264 -4 q 167 3 215 0 q 140 1 167 3 q 58 -4 113 -1 q 26 10 26 -4 q 51 31 26 22 q 97 49 76 39 q 118 90 118 58 l 118 786 q 103 858 118 835 q 54 888 89 881 q 43 906 43 890 q 53 922 43 921 q 115 942 74 928 q 217 978 156 956 l 218 978 l 219 979 q 228 971 228 979 q 227 958 228 965 q 225 939 226 950 q 217 860 219 900 q 215 781 215 821 l 215 321 q 221 311 215 311 l 224 311 q 272 340 243 315 q 374 435 335 396 q 431 497 414 474 q 432 501 432 499 q 396 525 432 517 q 379 536 379 532 q 410 556 379 556 l 478 556 q 557 564 507 556 q 611 572 607 572 q 622 564 622 572 q 613 545 622 554 q 594 533 604 536 q 553 521 575 529 q 510 499 532 513 q 440 446 488 485 q 319 343 393 407 q 311 329 311 338 q 315 319 311 324 q 390 234 349 281 q 467 150 431 188 q 519 97 503 113 q 633 31 569 49 q 665 7 665 19 q 638 -7 665 -7 l 385 0 m 265 -382 q 247 -369 247 -382 q 276 -347 247 -357 q 322 -306 304 -336 q 340 -243 340 -275 q 299 -201 340 -211 q 251 -178 272 -196 q 229 -136 229 -160 q 247 -96 229 -112 q 293 -79 264 -79 q 379 -118 343 -79 q 415 -224 415 -157 q 389 -304 415 -268 q 328 -361 363 -340 q 265 -382 293 -382 z "},"l":{"ha":335,"x_min":26,"x_max":307,"o":"m 167 3 l 54 -4 q 26 10 26 -4 q 65 35 26 22 q 111 61 106 47 q 118 86 118 75 l 118 786 q 54 888 118 874 q 43 906 43 890 q 53 922 43 921 q 214 978 89 931 l 215 978 l 217 979 q 225 969 225 979 l 222 944 q 217 877 219 918 q 215 781 215 836 l 215 86 q 233 50 215 58 q 279 32 250 42 q 307 10 307 21 q 279 -4 307 -4 l 167 3 z "},"ĺ":{"ha":335,"x_min":26,"x_max":335,"o":"m 171 1044 q 44 1014 61 1014 q 29 1025 29 1014 q 42 1046 29 1032 q 68 1067 46 1051 q 121 1101 90 1082 q 183 1139 151 1121 q 241 1169 215 1157 q 276 1182 267 1182 q 306 1169 293 1182 q 327 1140 319 1156 q 335 1117 335 1125 q 329 1100 335 1104 q 171 1044 283 1074 m 167 3 l 54 -4 q 26 10 26 -4 q 65 35 26 22 q 111 61 106 47 q 118 86 118 75 l 118 786 q 54 888 118 874 q 43 906 43 890 q 53 922 43 921 q 214 978 89 931 l 215 978 l 217 979 q 225 969 225 979 q 224 962 225 968 q 222 944 224 956 q 217 877 219 918 q 215 781 215 836 l 215 86 q 233 50 215 58 q 279 32 250 42 q 307 10 307 21 q 279 -4 307 -4 l 167 3 z "},"ļ":{"ha":335,"x_min":26,"x_max":307,"o":"m 167 3 l 54 -4 q 26 10 26 -4 q 65 35 26 22 q 111 61 106 47 q 118 86 118 75 l 118 786 q 54 888 118 874 q 43 906 43 890 q 53 922 43 921 q 214 978 89 931 l 215 978 l 217 979 q 225 969 225 979 q 224 962 225 968 q 222 944 224 956 q 217 877 219 918 q 215 781 215 836 l 215 86 q 233 50 215 58 q 279 32 250 42 q 307 10 307 21 q 279 -4 307 -4 l 167 3 m 108 -382 q 90 -369 90 -382 q 119 -347 90 -357 q 165 -306 147 -336 q 183 -243 183 -275 q 142 -201 183 -211 q 94 -178 115 -196 q 72 -136 72 -160 q 90 -96 72 -112 q 136 -79 107 -79 q 222 -118 186 -79 q 258 -224 258 -157 q 232 -304 258 -268 q 171 -361 206 -340 q 108 -382 136 -382 z "},"ľ":{"ha":342,"x_min":26,"x_max":363,"o":"m 269 735 q 270 758 269 746 q 272 783 271 771 q 273 794 272 789 q 274 803 274 799 q 273 817 274 810 q 271 831 272 825 q 267 911 267 854 q 292 958 267 938 q 340 979 318 979 q 363 938 363 979 q 361 918 363 922 q 292 722 342 789 q 276 711 283 711 q 269 735 269 711 m 167 3 l 54 -4 q 26 10 26 -4 q 65 35 26 22 q 111 61 106 47 q 118 86 118 75 l 118 786 q 54 888 118 874 q 43 906 43 890 q 53 922 43 921 q 214 978 89 931 l 215 978 l 217 979 q 225 969 225 979 q 224 962 225 968 q 222 944 224 956 q 217 877 219 918 q 215 781 215 836 l 215 86 q 233 50 215 58 q 279 32 250 42 q 307 10 307 21 q 279 -4 307 -4 l 167 3 z "},"m":{"ha":1081,"x_min":33,"x_max":1049,"o":"m 174 3 l 61 -4 q 33 10 33 -4 q 44 24 33 18 q 68 35 56 31 q 83 39 81 39 q 97 44 86 39 q 111 54 108 50 q 125 86 125 68 l 125 385 q 114 453 125 428 q 71 485 103 478 q 60 503 60 488 q 69 519 60 518 q 134 543 101 526 q 201 583 167 560 l 222 596 l 224 596 q 233 588 229 596 l 226 499 q 229 482 226 485 q 449 575 328 575 q 578 492 547 575 q 593 476 585 476 q 622 503 600 476 q 700 551 644 528 q 819 575 756 575 q 892 549 861 575 q 940 478 924 522 q 957 382 957 435 l 957 86 q 974 50 957 58 q 1021 32 992 42 q 1049 10 1049 21 q 1021 -4 1049 -4 l 911 3 l 796 -4 q 768 10 768 -4 q 800 33 768 22 q 806 35 803 33 q 858 72 853 50 q 860 79 860 75 q 860 86 860 83 l 860 378 q 826 469 860 429 q 749 510 793 510 q 632 476 675 510 q 589 372 589 443 l 589 86 q 593 67 589 71 l 599 58 q 606 51 601 53 q 614 47 613 50 q 624 43 617 44 q 632 39 631 42 q 651 33 643 33 q 683 10 683 22 q 656 -4 683 -4 l 542 3 l 426 -4 q 399 10 399 -4 q 438 35 399 22 q 485 61 476 47 q 492 86 492 75 l 492 378 q 458 469 492 429 q 381 510 425 510 q 265 477 307 510 q 222 372 222 444 l 222 86 q 238 51 222 60 q 260 40 254 42 q 314 8 314 26 q 286 -4 314 -4 l 174 3 z "},"n":{"ha":732,"x_min":33,"x_max":701,"o":"m 174 3 l 61 -4 q 33 10 33 -4 q 44 24 33 18 q 68 35 56 31 q 83 39 81 39 q 97 44 86 39 q 111 54 108 50 q 125 86 125 68 l 125 385 q 68 485 125 474 q 57 503 57 488 q 67 519 57 518 q 219 596 139 536 q 225 597 221 597 q 232 585 228 597 l 222 494 q 224 483 222 485 q 288 526 250 506 q 371 561 326 547 q 457 575 415 575 q 533 549 499 575 q 589 481 568 524 q 610 382 610 438 l 610 86 q 627 50 610 58 q 674 32 644 42 q 701 10 701 21 q 674 -4 701 -4 l 563 3 l 449 -4 q 421 10 421 -4 q 453 33 421 22 q 458 35 456 33 q 511 72 506 50 q 513 79 513 75 q 513 86 513 83 l 513 378 q 478 472 513 438 q 376 507 443 507 q 265 478 308 507 q 222 372 222 449 l 222 86 q 240 50 222 58 q 286 32 257 42 q 314 10 314 21 q 286 -4 314 -4 l 174 3 z "},"ñ":{"ha":732,"x_min":33,"x_max":701,"o":"m 282 704 q 233 679 261 704 q 203 653 207 653 q 183 681 183 653 q 197 706 183 688 q 232 746 211 725 q 273 782 253 767 q 306 797 293 797 l 454 786 q 508 810 482 786 q 533 833 532 833 q 556 810 556 833 q 542 785 556 803 q 508 746 528 767 q 469 710 489 725 q 438 694 450 694 l 282 704 m 563 3 l 449 -4 q 421 10 421 -4 q 453 33 421 22 q 458 35 456 33 q 511 72 506 50 q 513 79 513 75 q 513 86 513 83 l 513 378 q 478 472 513 438 q 376 507 443 507 q 265 478 308 507 q 222 372 222 449 l 222 86 q 240 50 222 58 q 286 32 257 42 q 314 10 314 21 q 286 -4 314 -4 l 174 3 l 61 -4 q 33 10 33 -4 q 44 24 33 18 q 68 35 56 31 q 83 39 81 39 q 97 44 86 39 q 111 54 108 50 q 125 86 125 68 l 125 385 q 68 485 125 474 q 57 503 57 488 q 67 519 57 518 q 219 596 139 536 q 225 597 221 597 q 232 585 228 597 l 222 494 q 224 483 222 485 q 288 526 250 506 q 371 561 326 547 q 457 575 415 575 q 533 549 499 575 q 589 481 568 524 q 610 382 610 438 l 610 86 q 627 50 610 58 q 674 32 644 42 q 701 10 701 21 q 674 -4 701 -4 l 563 3 z "},"ń":{"ha":732,"x_min":33,"x_max":701,"o":"m 532 869 q 515 840 532 864 q 472 783 497 815 q 420 722 446 751 q 376 672 394 692 q 328 633 342 633 q 314 657 314 633 q 426 876 314 681 q 464 901 442 901 q 532 869 532 901 m 563 3 l 449 -4 q 421 10 421 -4 q 453 33 421 22 q 458 35 456 33 q 511 72 506 50 q 513 79 513 75 q 513 86 513 83 l 513 378 q 478 472 513 438 q 376 507 443 507 q 265 478 308 507 q 222 372 222 449 l 222 86 q 240 50 222 58 q 286 32 257 42 q 314 10 314 21 q 286 -4 314 -4 l 174 3 l 61 -4 q 33 10 33 -4 q 44 24 33 18 q 68 35 56 31 q 83 39 81 39 q 97 44 86 39 q 111 54 108 50 q 125 86 125 68 l 125 385 q 68 485 125 474 q 57 503 57 488 q 67 519 57 518 q 219 596 139 536 q 225 597 221 597 q 232 585 228 597 l 222 494 q 224 483 222 485 q 288 526 250 506 q 371 561 326 547 q 457 575 415 575 q 533 549 499 575 q 589 481 568 524 q 610 382 610 438 l 610 86 q 627 50 610 58 q 674 32 644 42 q 701 10 701 21 q 674 -4 701 -4 l 563 3 z "},"ņ":{"ha":732,"x_min":33,"x_max":701,"o":"m 563 3 l 449 -4 q 421 10 421 -4 q 453 33 421 22 q 458 35 456 33 q 511 72 506 50 q 513 79 513 75 q 513 86 513 83 l 513 378 q 478 472 513 438 q 376 507 443 507 q 265 478 308 507 q 222 372 222 449 l 222 86 q 240 50 222 58 q 286 32 257 42 q 314 10 314 21 q 286 -4 314 -4 l 174 3 l 61 -4 q 33 10 33 -4 q 44 24 33 18 q 68 35 56 31 q 83 39 81 39 q 97 44 86 39 q 111 54 108 50 q 125 86 125 68 l 125 385 q 68 485 125 474 q 57 503 57 488 q 67 519 57 518 q 219 596 139 536 q 225 597 221 597 q 232 585 228 597 l 222 494 q 224 483 222 485 q 288 526 250 506 q 371 561 326 547 q 457 575 415 575 q 533 549 499 575 q 589 481 568 524 q 610 382 610 438 l 610 86 q 627 50 610 58 q 674 32 644 42 q 701 10 701 21 q 674 -4 701 -4 l 563 3 m 310 -382 q 292 -369 292 -382 q 321 -347 292 -357 q 367 -306 349 -336 q 385 -243 385 -275 q 343 -201 385 -211 q 295 -178 317 -196 q 274 -136 274 -160 q 291 -96 274 -112 q 338 -79 308 -79 q 424 -118 388 -79 q 460 -224 460 -157 q 433 -304 460 -268 q 372 -361 407 -340 q 310 -382 338 -382 z "},"ň":{"ha":732,"x_min":33,"x_max":701,"o":"m 353 764 q 363 764 357 758 q 494 913 469 913 q 507 892 507 913 q 385 681 507 869 q 357 656 371 656 q 329 681 344 656 q 207 892 207 869 q 221 913 207 913 q 353 764 246 913 m 563 3 l 449 -4 q 421 10 421 -4 q 453 33 421 22 q 458 35 456 33 q 511 72 506 50 q 513 79 513 75 q 513 86 513 83 l 513 378 q 478 472 513 438 q 376 507 443 507 q 265 478 308 507 q 222 372 222 449 l 222 86 q 240 50 222 58 q 286 32 257 42 q 314 10 314 21 q 286 -4 314 -4 l 174 3 l 61 -4 q 33 10 33 -4 q 44 24 33 18 q 68 35 56 31 q 83 39 81 39 q 97 44 86 39 q 111 54 108 50 q 125 86 125 68 l 125 385 q 68 485 125 474 q 57 503 57 488 q 67 519 57 518 q 219 596 139 536 q 225 597 221 597 q 232 585 228 597 l 222 494 q 224 483 222 485 q 288 526 250 506 q 371 561 326 547 q 457 575 415 575 q 533 549 499 575 q 589 481 568 524 q 610 382 610 438 l 610 86 q 627 50 610 58 q 674 32 644 42 q 701 10 701 21 q 674 -4 701 -4 l 563 3 z "},"o":{"ha":688,"x_min":49,"x_max":639,"o":"m 639 288 q 602 137 639 207 q 495 24 565 67 q 325 -19 425 -19 q 184 17 247 -19 q 85 116 121 53 q 49 260 49 179 q 72 376 49 319 q 138 477 96 432 q 235 549 181 522 q 350 575 289 575 q 497 537 432 575 q 601 434 563 499 q 639 288 639 369 m 163 292 q 188 159 163 221 q 258 60 214 97 q 354 22 301 22 q 460 52 424 22 q 511 135 497 82 q 525 260 525 189 q 499 394 525 332 q 430 494 474 456 q 329 532 386 532 q 163 292 163 532 z "},"ò":{"ha":688,"x_min":49,"x_max":639,"o":"m 274 876 q 386 657 386 681 q 374 633 386 633 q 325 672 360 633 q 281 722 307 692 q 228 783 254 751 q 185 840 203 815 q 168 869 168 864 q 236 901 168 901 q 274 876 260 901 m 49 260 q 72 376 49 319 q 138 477 96 432 q 235 549 181 522 q 350 575 289 575 q 497 537 432 575 q 601 434 563 499 q 639 288 639 369 q 602 137 639 207 q 495 24 565 67 q 325 -19 425 -19 q 184 17 247 -19 q 85 116 121 53 q 49 260 49 179 m 329 532 q 163 292 163 532 q 188 159 163 221 q 258 60 214 97 q 354 22 301 22 q 460 52 424 22 q 511 135 497 82 q 525 260 525 189 q 499 394 525 332 q 430 494 474 456 q 329 532 386 532 z "},"ó":{"ha":688,"x_min":49,"x_max":639,"o":"m 515 869 q 498 840 515 864 q 455 783 481 815 q 403 722 429 751 q 360 672 378 692 q 311 633 325 633 q 297 657 297 633 q 410 876 297 681 q 447 901 425 901 q 515 869 515 901 m 49 260 q 72 376 49 319 q 138 477 96 432 q 235 549 181 522 q 350 575 289 575 q 497 537 432 575 q 601 434 563 499 q 639 288 639 369 q 602 137 639 207 q 495 24 565 67 q 325 -19 425 -19 q 184 17 247 -19 q 85 116 121 53 q 49 260 49 179 m 329 532 q 163 292 163 532 q 188 159 163 221 q 258 60 214 97 q 354 22 301 22 q 460 52 424 22 q 511 135 497 82 q 525 260 525 189 q 499 394 525 332 q 430 494 474 456 q 329 532 386 532 z "},"ô":{"ha":688,"x_min":49,"x_max":639,"o":"m 338 768 q 246 651 296 718 q 204 621 224 621 q 192 638 192 621 q 205 674 192 646 q 238 740 218 703 q 277 811 258 776 q 307 864 296 846 q 342 900 328 900 q 378 863 356 900 q 408 810 389 844 q 447 740 426 776 q 480 674 467 703 q 493 638 493 646 q 476 621 493 621 q 439 651 460 621 q 347 768 414 685 q 338 768 342 774 m 49 260 q 72 376 49 319 q 138 477 96 432 q 235 549 181 522 q 350 575 289 575 q 497 537 432 575 q 601 434 563 499 q 639 288 639 369 q 602 137 639 207 q 495 24 565 67 q 325 -19 425 -19 q 184 17 247 -19 q 85 116 121 53 q 49 260 49 179 m 329 532 q 163 292 163 532 q 188 159 163 221 q 258 60 214 97 q 354 22 301 22 q 460 52 424 22 q 511 135 497 82 q 525 260 525 189 q 499 394 525 332 q 430 494 474 456 q 329 532 386 532 z "},"õ":{"ha":688,"x_min":49,"x_max":639,"o":"m 265 704 q 217 679 244 704 q 186 653 190 653 q 167 681 167 653 q 181 706 167 688 q 215 746 194 725 q 256 782 236 767 q 289 797 276 797 l 438 786 q 492 810 465 786 q 517 833 515 833 q 539 810 539 833 q 525 785 539 803 q 492 746 511 767 q 453 710 472 725 q 421 694 433 694 l 265 704 m 49 260 q 72 376 49 319 q 138 477 96 432 q 235 549 181 522 q 350 575 289 575 q 497 537 432 575 q 601 434 563 499 q 639 288 639 369 q 602 137 639 207 q 495 24 565 67 q 325 -19 425 -19 q 184 17 247 -19 q 85 116 121 53 q 49 260 49 179 m 329 532 q 163 292 163 532 q 188 159 163 221 q 258 60 214 97 q 354 22 301 22 q 460 52 424 22 q 511 135 497 82 q 525 260 525 189 q 499 394 525 332 q 430 494 474 456 q 329 532 386 532 z "},"ö":{"ha":688,"x_min":49,"x_max":639,"o":"m 424 803 q 471 824 444 824 q 519 802 497 824 q 540 754 540 781 q 519 706 540 728 q 471 685 497 685 q 423 706 444 685 q 401 754 401 728 q 424 803 401 781 m 178 803 q 225 824 199 824 q 273 802 251 824 q 294 754 294 781 q 273 706 294 728 q 225 685 251 685 q 177 706 199 685 q 156 754 156 728 q 178 803 156 781 m 49 260 q 72 376 49 319 q 138 477 96 432 q 235 549 181 522 q 350 575 289 575 q 497 537 432 575 q 601 434 563 499 q 639 288 639 369 q 602 137 639 207 q 495 24 565 67 q 325 -19 425 -19 q 184 17 247 -19 q 85 116 121 53 q 49 260 49 179 m 329 532 q 163 292 163 532 q 188 159 163 221 q 258 60 214 97 q 354 22 301 22 q 460 52 424 22 q 511 135 497 82 q 525 260 525 189 q 499 394 525 332 q 430 494 474 456 q 329 532 386 532 z "},"ō":{"ha":688,"x_min":49,"x_max":639,"o":"m 490 771 q 503 765 497 771 q 508 744 508 760 q 497 712 508 729 q 465 694 486 694 l 194 694 q 181 700 188 694 q 175 717 175 706 q 183 749 175 728 q 208 771 192 771 l 490 771 m 49 260 q 72 376 49 319 q 138 477 96 432 q 235 549 181 522 q 350 575 289 575 q 497 537 432 575 q 601 434 563 499 q 639 288 639 369 q 602 137 639 207 q 495 24 565 67 q 325 -19 425 -19 q 184 17 247 -19 q 85 116 121 53 q 49 260 49 179 m 329 532 q 163 292 163 532 q 188 159 163 221 q 258 60 214 97 q 354 22 301 22 q 460 52 424 22 q 511 135 497 82 q 525 260 525 189 q 499 394 525 332 q 430 494 474 456 q 329 532 386 532 z "},"ő":{"ha":688,"x_min":49,"x_max":639,"o":"m 600 869 q 583 840 600 864 q 540 783 565 815 q 488 722 514 751 q 444 672 463 692 q 396 633 410 633 q 382 657 382 633 q 494 876 382 681 q 532 901 510 901 q 600 869 600 901 m 428 869 q 410 840 428 864 q 367 783 393 815 q 316 722 342 751 q 272 672 290 692 q 224 633 238 633 q 210 657 210 633 q 322 876 210 681 q 360 901 338 901 q 428 869 428 901 m 49 260 q 72 376 49 319 q 138 477 96 432 q 235 549 181 522 q 350 575 289 575 q 497 537 432 575 q 601 434 563 499 q 639 288 639 369 q 602 137 639 207 q 495 24 565 67 q 325 -19 425 -19 q 184 17 247 -19 q 85 116 121 53 q 49 260 49 179 m 329 532 q 163 292 163 532 q 188 159 163 221 q 258 60 214 97 q 354 22 301 22 q 460 52 424 22 q 511 135 497 82 q 525 260 525 189 q 499 394 525 332 q 430 494 474 456 q 329 532 386 532 z "},"p":{"ha":721,"x_min":26,"x_max":672,"o":"m 167 -389 l 56 -396 q 26 -382 26 -396 q 65 -357 26 -369 q 111 -331 106 -344 q 118 -306 118 -317 l 118 399 q 110 437 118 415 q 89 477 103 458 q 54 500 75 496 q 43 518 43 503 q 53 535 43 533 q 122 556 82 542 q 214 590 163 569 l 215 592 l 217 592 q 225 579 225 592 l 218 496 q 219 483 218 485 q 276 522 238 501 q 360 559 314 543 q 444 575 406 575 q 565 538 514 575 q 644 442 615 501 q 672 313 672 382 q 648 189 672 249 q 581 83 624 129 q 481 8 538 36 q 360 -19 424 -19 q 313 -13 340 -19 q 260 3 285 -7 q 221 25 235 14 q 215 -46 215 25 l 215 -306 q 231 -335 215 -326 q 256 -347 247 -344 q 265 -350 258 -349 q 278 -353 271 -351 q 328 -383 328 -365 q 297 -396 328 -396 l 167 -389 m 256 56 q 381 24 290 24 q 477 63 433 24 q 542 153 521 101 q 561 274 561 204 q 541 396 561 343 q 489 472 521 449 q 368 513 428 513 q 263 481 306 513 q 217 374 221 449 l 215 285 l 215 242 q 222 134 215 186 q 256 56 228 82 z "},"q":{"ha":725,"x_min":49,"x_max":725,"o":"m 572 -389 l 460 -396 q 432 -382 432 -396 q 464 -358 432 -369 q 469 -357 467 -358 q 522 -319 517 -342 q 524 -312 524 -317 q 524 -306 524 -308 l 524 -7 q 517 35 524 35 q 503 28 510 35 q 331 -19 450 -19 q 188 13 251 -19 q 86 107 124 44 q 49 260 49 169 q 92 422 49 350 q 213 534 135 493 q 392 575 290 575 q 544 553 479 575 l 569 544 q 590 552 583 544 q 606 579 597 560 q 617 585 611 585 q 630 581 622 585 q 638 571 638 576 l 636 561 q 621 410 621 493 l 621 -306 q 647 -343 621 -333 l 661 -350 q 693 -358 685 -358 q 725 -382 725 -369 q 697 -396 725 -396 l 572 -389 m 163 279 q 194 145 163 200 q 276 62 226 90 q 378 33 326 33 q 463 43 431 33 q 510 91 494 53 q 525 217 525 129 q 525 323 525 282 q 524 382 525 364 q 473 488 521 444 q 351 531 425 531 q 258 501 301 531 q 189 415 215 471 q 163 279 163 360 z "},"r":{"ha":464,"x_min":40,"x_max":457,"o":"m 181 3 l 68 -4 q 40 10 40 -4 q 65 31 40 22 q 99 42 90 39 q 117 57 107 46 q 125 86 125 68 l 125 385 q 68 485 125 472 q 57 503 57 488 q 67 519 57 518 q 144 547 118 529 q 184 572 168 563 q 207 588 200 582 q 222 597 222 596 l 226 597 q 232 588 231 597 q 232 551 232 569 q 231 515 232 533 q 231 481 229 481 q 238 488 231 481 q 263 515 257 513 q 390 575 328 575 q 438 563 419 575 q 457 529 457 550 q 440 483 457 508 q 407 458 422 458 q 363 471 392 458 q 319 483 333 483 q 251 457 279 483 q 222 367 222 431 l 222 93 q 297 33 224 57 q 329 10 329 22 q 301 -4 329 -4 l 181 3 z "},"ŕ":{"ha":464,"x_min":40,"x_max":457,"o":"m 438 869 q 420 840 438 864 q 377 783 403 815 q 326 722 351 751 q 282 672 300 692 q 233 633 247 633 q 219 657 219 633 q 332 876 219 681 q 369 901 347 901 q 438 869 438 901 m 181 3 l 68 -4 q 40 10 40 -4 q 65 31 40 22 q 99 42 90 39 q 117 57 107 46 q 125 86 125 68 l 125 385 q 68 485 125 472 q 57 503 57 488 q 67 519 57 518 q 144 547 118 529 q 184 572 168 563 q 207 588 200 582 q 222 597 222 596 l 226 597 q 232 588 231 597 q 232 551 232 569 q 231 515 232 533 q 230 500 231 507 q 229 489 229 493 q 230 483 229 485 q 231 481 231 481 q 238 488 231 481 q 263 515 257 513 q 390 575 328 575 q 438 563 419 575 q 457 529 457 550 q 440 483 457 508 q 407 458 422 458 q 363 471 392 458 q 319 483 333 483 q 251 457 279 483 q 222 367 222 431 l 222 93 q 297 33 224 57 q 329 10 329 22 q 301 -4 329 -4 l 181 3 z "},"ŗ":{"ha":464,"x_min":40,"x_max":457,"o":"m 181 3 l 68 -4 q 40 10 40 -4 q 65 31 40 22 q 99 42 90 39 q 117 57 107 46 q 125 86 125 68 l 125 385 q 68 485 125 472 q 57 503 57 488 q 67 519 57 518 q 144 547 118 529 q 184 572 168 563 q 207 588 200 582 q 222 597 222 596 l 226 597 q 232 588 231 597 q 232 551 232 569 q 231 515 232 533 q 230 500 231 507 q 229 489 229 493 q 230 483 229 485 q 231 481 231 481 q 238 488 231 481 q 263 515 257 513 q 390 575 328 575 q 438 563 419 575 q 457 529 457 550 q 440 483 457 508 q 407 458 422 458 q 363 471 392 458 q 319 483 333 483 q 251 457 279 483 q 222 367 222 431 l 222 93 q 297 33 224 57 q 329 10 329 22 q 301 -4 329 -4 l 181 3 m 124 -382 q 106 -369 106 -382 q 135 -347 106 -357 q 181 -306 163 -336 q 199 -243 199 -275 q 157 -201 199 -211 q 109 -178 131 -196 q 88 -136 88 -160 q 105 -96 88 -112 q 151 -79 122 -79 q 238 -118 201 -79 q 274 -224 274 -157 q 247 -304 274 -268 q 186 -361 221 -340 q 124 -382 151 -382 z "},"ř":{"ha":464,"x_min":40,"x_max":457,"o":"m 258 764 q 268 764 263 758 q 400 913 375 913 q 413 892 413 913 q 290 681 413 869 q 263 656 276 656 q 235 681 250 656 q 113 892 113 869 q 126 913 113 913 q 258 764 151 913 m 181 3 l 68 -4 q 40 10 40 -4 q 65 31 40 22 q 99 42 90 39 q 117 57 107 46 q 125 86 125 68 l 125 385 q 68 485 125 472 q 57 503 57 488 q 67 519 57 518 q 144 547 118 529 q 184 572 168 563 q 207 588 200 582 q 222 597 222 596 l 226 597 q 232 588 231 597 q 232 551 232 569 q 231 515 232 533 q 230 500 231 507 q 229 489 229 493 q 230 483 229 485 q 231 481 231 481 q 238 488 231 481 q 263 515 257 513 q 390 575 328 575 q 438 563 419 575 q 457 529 457 550 q 440 483 457 508 q 407 458 422 458 q 363 471 392 458 q 319 483 333 483 q 251 457 279 483 q 222 367 222 431 l 222 93 q 297 33 224 57 q 329 10 329 22 q 301 -4 329 -4 l 181 3 z "},"s":{"ha":449,"x_min":42,"x_max":407,"o":"m 407 147 q 207 -19 407 -19 q 111 -2 156 -19 q 60 31 67 15 q 42 115 43 65 q 64 128 42 128 q 86 118 85 128 q 112 71 92 94 q 160 33 132 47 q 219 18 189 18 q 288 44 264 18 q 313 110 313 71 q 288 176 313 149 q 204 244 263 203 q 109 326 144 286 q 74 422 74 365 q 94 496 74 461 q 154 553 115 531 q 249 575 193 575 q 364 543 332 575 q 388 435 388 513 q 378 429 388 429 q 350 440 368 429 q 332 458 332 450 q 304 514 331 489 q 242 539 278 539 q 181 514 204 539 q 157 456 157 489 q 181 394 157 422 q 222 356 204 367 q 244 341 231 350 q 275 321 257 332 q 315 296 299 307 q 346 270 331 285 q 379 229 361 256 q 407 147 407 189 z "},"ś":{"ha":449,"x_min":42,"x_max":418,"o":"m 418 869 q 401 840 418 864 q 358 783 383 815 q 306 722 332 751 q 263 672 281 692 q 214 633 228 633 q 200 657 200 633 q 313 876 200 681 q 350 901 328 901 q 418 869 418 901 m 332 458 q 304 514 331 489 q 242 539 278 539 q 181 514 204 539 q 157 456 157 489 q 181 394 157 422 q 222 356 204 367 q 244 341 231 350 q 275 321 257 332 q 315 296 299 307 q 346 270 331 285 q 379 229 361 256 q 407 147 407 189 q 207 -19 407 -19 q 111 -2 156 -19 q 60 31 67 15 q 42 115 43 65 q 64 128 42 128 q 86 118 85 128 q 112 71 92 94 q 160 33 132 47 q 219 18 189 18 q 288 44 264 18 q 313 110 313 71 q 288 176 313 149 q 204 244 263 203 q 109 326 144 286 q 74 422 74 365 q 94 496 74 461 q 154 553 115 531 q 249 575 193 575 q 364 543 332 575 q 388 435 388 513 q 378 429 388 429 q 350 440 368 429 q 332 458 332 450 z "},"ş":{"ha":449,"x_min":42,"x_max":407,"o":"m 144 -179 q 128 -172 136 -179 q 119 -160 119 -165 q 126 -144 119 -156 l 225 -19 l 207 -19 q 111 -2 156 -19 q 60 31 67 15 q 42 115 43 65 q 64 128 42 128 q 86 118 85 128 q 112 71 92 94 q 160 33 132 47 q 219 18 189 18 q 288 44 264 18 q 313 110 313 71 q 288 176 313 149 q 204 244 263 203 q 109 326 144 286 q 74 422 74 365 q 94 496 74 461 q 154 553 115 531 q 249 575 193 575 q 364 543 332 575 q 388 435 388 513 q 378 429 388 429 q 350 440 368 429 q 332 458 332 450 q 304 514 331 489 q 242 539 278 539 q 181 514 204 539 q 157 456 157 489 q 181 394 157 422 q 222 356 204 367 q 244 341 231 350 q 275 321 257 332 q 315 296 299 307 q 346 270 331 285 q 379 229 361 256 q 407 147 407 189 q 272 -14 407 8 l 238 -60 q 232 -71 232 -65 q 258 -93 232 -83 q 308 -131 283 -103 q 332 -193 332 -160 q 301 -285 332 -243 q 231 -354 271 -328 q 158 -381 190 -381 q 117 -324 117 -381 q 123 -304 117 -311 q 135 -297 129 -297 l 158 -306 q 179 -312 167 -308 q 206 -315 192 -315 q 244 -302 226 -315 q 263 -250 263 -289 q 240 -192 263 -212 q 181 -171 218 -171 l 144 -179 z "},"š":{"ha":449,"x_min":42,"x_max":407,"o":"m 239 764 q 249 764 243 758 q 381 913 356 913 q 393 892 393 913 q 271 681 393 869 q 243 656 257 656 q 215 681 231 656 q 93 892 93 869 q 107 913 93 913 q 239 764 132 913 m 332 458 q 304 514 331 489 q 242 539 278 539 q 181 514 204 539 q 157 456 157 489 q 181 394 157 422 q 222 356 204 367 q 244 341 231 350 q 275 321 257 332 q 315 296 299 307 q 346 270 331 285 q 379 229 361 256 q 407 147 407 189 q 207 -19 407 -19 q 111 -2 156 -19 q 60 31 67 15 q 42 115 43 65 q 64 128 42 128 q 86 118 85 128 q 112 71 92 94 q 160 33 132 47 q 219 18 189 18 q 288 44 264 18 q 313 110 313 71 q 288 176 313 149 q 204 244 263 203 q 109 326 144 286 q 74 422 74 365 q 94 496 74 461 q 154 553 115 531 q 249 575 193 575 q 364 543 332 575 q 388 435 388 513 q 378 429 388 429 q 350 440 368 429 q 332 458 332 450 z "},"ș":{"ha":449,"x_min":42,"x_max":407,"o":"m 332 458 q 304 514 331 489 q 242 539 278 539 q 181 514 204 539 q 157 456 157 489 q 181 394 157 422 q 222 356 204 367 q 244 341 231 350 q 275 321 257 332 q 315 296 299 307 q 346 270 331 285 q 379 229 361 256 q 407 147 407 189 q 207 -19 407 -19 q 111 -2 156 -19 q 60 31 67 15 q 42 115 43 65 q 64 128 42 128 q 86 118 85 128 q 112 71 92 94 q 160 33 132 47 q 219 18 189 18 q 288 44 264 18 q 313 110 313 71 q 288 176 313 149 q 204 244 263 203 q 109 326 144 286 q 74 422 74 365 q 94 496 74 461 q 154 553 115 531 q 249 575 193 575 q 364 543 332 575 q 388 435 388 513 q 378 429 388 429 q 350 440 368 429 q 332 458 332 450 m 174 -382 q 156 -369 156 -382 q 185 -347 156 -357 q 231 -306 213 -336 q 249 -243 249 -275 q 207 -201 249 -211 q 159 -178 181 -196 q 138 -136 138 -160 q 155 -96 138 -112 q 201 -79 172 -79 q 288 -118 251 -79 q 324 -224 324 -157 q 297 -304 324 -268 q 236 -361 271 -340 q 174 -382 201 -382 z "},"t":{"ha":436,"x_min":49,"x_max":425,"o":"m 403 38 q 341 -1 381 17 q 263 -19 301 -19 q 156 22 194 -19 q 118 146 118 63 l 118 468 q 108 485 118 481 q 65 489 99 489 q 55 500 61 489 q 49 517 49 511 q 56 526 49 522 q 121 567 88 536 q 175 624 154 597 q 200 650 196 650 q 219 636 219 650 l 217 575 q 250 556 217 556 l 408 556 q 422 522 422 556 q 408 489 422 489 l 271 489 q 224 483 233 489 q 215 450 215 478 l 215 188 q 242 87 215 117 q 307 57 268 57 q 411 83 376 57 q 415 85 413 85 q 425 67 425 85 q 403 38 425 56 z "},"u":{"ha":732,"x_min":40,"x_max":718,"o":"m 574 -3 q 510 -26 518 -26 q 499 -21 499 -26 l 506 71 l 506 79 q 276 -19 404 -19 q 162 24 206 -19 q 118 146 118 67 l 118 428 q 58 507 118 485 q 40 531 40 513 q 61 551 40 547 q 121 558 85 553 q 204 575 157 564 l 207 575 q 224 556 226 575 q 215 449 215 492 l 215 178 q 232 116 215 144 q 276 69 249 88 q 332 51 303 51 q 462 88 413 51 q 511 183 511 125 l 511 438 q 482 490 511 475 q 421 507 453 506 q 389 531 389 507 q 401 547 389 542 q 416 551 407 550 q 438 553 425 551 q 531 560 492 553 q 556 564 550 563 q 600 576 565 564 l 603 576 q 621 560 621 576 q 617 546 621 554 q 608 453 608 532 l 608 158 q 633 63 608 63 q 697 67 676 63 l 701 67 q 718 50 718 67 q 699 29 718 29 q 631 16 663 24 q 574 -3 600 8 z "},"ù":{"ha":732,"x_min":40,"x_max":718,"o":"m 281 876 q 393 657 393 681 q 381 633 393 633 q 332 672 367 633 q 288 722 314 692 q 235 783 261 751 q 192 840 210 815 q 175 869 175 864 q 243 901 175 901 q 281 876 267 901 m 506 71 l 506 79 q 276 -19 404 -19 q 162 24 206 -19 q 118 146 118 67 l 118 428 q 58 507 118 485 q 40 531 40 513 q 61 551 40 547 q 121 558 85 553 q 204 575 157 564 q 224 558 224 578 l 224 556 q 215 449 215 492 l 215 178 q 232 116 215 144 q 276 69 249 88 q 332 51 303 51 q 462 88 413 51 q 511 183 511 125 l 511 438 q 482 490 511 475 q 421 507 453 506 q 389 531 389 507 q 401 547 389 542 q 416 551 407 550 q 438 553 425 551 q 531 560 492 553 q 556 564 550 563 q 600 576 565 564 l 603 576 q 621 560 621 576 q 617 546 621 554 q 608 453 608 532 l 608 158 q 633 63 608 63 q 697 67 676 63 q 718 50 718 71 q 699 29 718 29 q 631 16 663 24 q 574 -3 600 8 q 510 -26 518 -26 q 499 -21 499 -26 l 506 71 z "},"ú":{"ha":732,"x_min":40,"x_max":718,"o":"m 522 869 q 505 840 522 864 q 462 783 488 815 q 410 722 436 751 q 367 672 385 692 q 318 633 332 633 q 304 657 304 633 q 417 876 304 681 q 454 901 432 901 q 522 869 522 901 m 506 71 l 506 79 q 276 -19 404 -19 q 162 24 206 -19 q 118 146 118 67 l 118 428 q 58 507 118 485 q 40 531 40 513 q 61 551 40 547 q 121 558 85 553 q 204 575 157 564 q 224 558 224 578 l 224 556 q 215 449 215 492 l 215 178 q 232 116 215 144 q 276 69 249 88 q 332 51 303 51 q 462 88 413 51 q 511 183 511 125 l 511 438 q 482 490 511 475 q 421 507 453 506 q 389 531 389 507 q 401 547 389 542 q 416 551 407 550 q 438 553 425 551 q 531 560 492 553 q 556 564 550 563 q 600 576 565 564 l 603 576 q 621 560 621 576 q 617 546 621 554 q 608 453 608 532 l 608 158 q 633 63 608 63 q 697 67 676 63 q 718 50 718 71 q 699 29 718 29 q 631 16 663 24 q 574 -3 600 8 q 510 -26 518 -26 q 499 -21 499 -26 l 506 71 z "},"û":{"ha":732,"x_min":40,"x_max":718,"o":"m 344 768 q 253 651 303 718 q 211 621 231 621 q 199 638 199 621 q 212 674 199 646 q 245 740 225 703 q 284 811 265 776 q 314 864 303 846 q 349 900 335 900 q 385 863 363 900 q 415 810 396 844 q 453 740 433 776 q 487 674 474 703 q 500 638 500 646 q 483 621 500 621 q 446 651 467 621 q 354 768 421 685 q 344 768 349 774 m 506 71 l 506 79 q 276 -19 404 -19 q 162 24 206 -19 q 118 146 118 67 l 118 428 q 58 507 118 485 q 40 531 40 513 q 61 551 40 547 q 121 558 85 553 q 204 575 157 564 q 224 558 224 578 l 224 556 q 215 449 215 492 l 215 178 q 232 116 215 144 q 276 69 249 88 q 332 51 303 51 q 462 88 413 51 q 511 183 511 125 l 511 438 q 482 490 511 475 q 421 507 453 506 q 389 531 389 507 q 401 547 389 542 q 416 551 407 550 q 438 553 425 551 q 531 560 492 553 q 556 564 550 563 q 600 576 565 564 l 603 576 q 621 560 621 576 q 617 546 621 554 q 608 453 608 532 l 608 158 q 633 63 608 63 q 697 67 676 63 q 718 50 718 71 q 699 29 718 29 q 631 16 663 24 q 574 -3 600 8 q 510 -26 518 -26 q 499 -21 499 -26 l 506 71 z "},"ü":{"ha":732,"x_min":40,"x_max":718,"o":"m 431 803 q 478 824 451 824 q 526 802 504 824 q 547 754 547 781 q 526 706 547 728 q 478 685 504 685 q 430 706 451 685 q 408 754 408 728 q 431 803 408 781 m 185 803 q 232 824 206 824 q 280 802 258 824 q 301 754 301 781 q 280 706 301 728 q 232 685 258 685 q 184 706 206 685 q 163 754 163 728 q 185 803 163 781 m 506 71 l 506 79 q 276 -19 404 -19 q 162 24 206 -19 q 118 146 118 67 l 118 428 q 58 507 118 485 q 40 531 40 513 q 61 551 40 547 q 121 558 85 553 q 204 575 157 564 q 224 558 224 578 l 224 556 q 215 449 215 492 l 215 178 q 232 116 215 144 q 276 69 249 88 q 332 51 303 51 q 462 88 413 51 q 511 183 511 125 l 511 438 q 482 490 511 475 q 421 507 453 506 q 389 531 389 507 q 401 547 389 542 q 416 551 407 550 q 438 553 425 551 q 531 560 492 553 q 556 564 550 563 q 600 576 565 564 l 603 576 q 621 560 621 576 q 617 546 621 554 q 608 453 608 532 l 608 158 q 633 63 608 63 q 697 67 676 63 q 718 50 718 71 q 699 29 718 29 q 631 16 663 24 q 574 -3 600 8 q 510 -26 518 -26 q 499 -21 499 -26 l 506 71 z "},"ū":{"ha":732,"x_min":40,"x_max":718,"o":"m 497 771 q 510 765 504 771 q 515 744 515 760 q 504 712 515 729 q 472 694 493 694 l 201 694 q 188 700 194 694 q 182 717 182 706 q 190 749 182 728 q 215 771 199 771 l 497 771 m 506 71 l 506 79 q 276 -19 404 -19 q 162 24 206 -19 q 118 146 118 67 l 118 428 q 58 507 118 485 q 40 531 40 513 q 61 551 40 547 q 121 558 85 553 q 204 575 157 564 q 224 558 224 578 l 224 556 q 215 449 215 492 l 215 178 q 232 116 215 144 q 276 69 249 88 q 332 51 303 51 q 462 88 413 51 q 511 183 511 125 l 511 438 q 482 490 511 475 q 421 507 453 506 q 389 531 389 507 q 401 547 389 542 q 416 551 407 550 q 438 553 425 551 q 531 560 492 553 q 556 564 550 563 q 600 576 565 564 l 603 576 q 621 560 621 576 q 617 546 621 554 q 608 453 608 532 l 608 158 q 633 63 608 63 q 697 67 676 63 q 718 50 718 71 q 699 29 718 29 q 631 16 663 24 q 574 -3 600 8 q 510 -26 518 -26 q 499 -21 499 -26 l 506 71 z "},"ů":{"ha":732,"x_min":40,"x_max":718,"o":"m 271 864 q 354 899 307 899 q 433 867 400 899 q 467 788 467 836 q 430 702 467 738 q 347 667 393 667 q 267 701 300 667 q 233 782 233 736 q 271 864 233 829 m 290 789 q 309 728 290 754 q 356 703 328 703 q 410 781 410 703 q 390 836 410 811 q 342 861 369 861 q 290 789 290 861 m 506 71 l 506 79 q 276 -19 404 -19 q 162 24 206 -19 q 118 146 118 67 l 118 428 q 58 507 118 485 q 40 531 40 513 q 61 551 40 547 q 121 558 85 553 q 204 575 157 564 q 224 558 224 578 l 224 556 q 215 449 215 492 l 215 178 q 232 116 215 144 q 276 69 249 88 q 332 51 303 51 q 462 88 413 51 q 511 183 511 125 l 511 438 q 482 490 511 475 q 421 507 453 506 q 389 531 389 507 q 401 547 389 542 q 416 551 407 550 q 438 553 425 551 q 531 560 492 553 q 556 564 550 563 q 600 576 565 564 l 603 576 q 621 560 621 576 q 617 546 621 554 q 608 453 608 532 l 608 158 q 633 63 608 63 q 697 67 676 63 q 718 50 718 71 q 699 29 718 29 q 631 16 663 24 q 574 -3 600 8 q 510 -26 518 -26 q 499 -21 499 -26 l 506 71 z "},"ű":{"ha":732,"x_min":40,"x_max":718,"o":"m 607 869 q 590 840 607 864 q 547 783 572 815 q 495 722 521 751 q 451 672 469 692 q 403 633 417 633 q 389 657 389 633 q 501 876 389 681 q 539 901 517 901 q 607 869 607 901 m 435 869 q 417 840 435 864 q 374 783 400 815 q 323 722 349 751 q 279 672 297 692 q 231 633 244 633 q 217 657 217 633 q 329 876 217 681 q 367 901 344 901 q 435 869 435 901 m 506 71 l 506 79 q 276 -19 404 -19 q 162 24 206 -19 q 118 146 118 67 l 118 428 q 58 507 118 485 q 40 531 40 513 q 61 551 40 547 q 121 558 85 553 q 204 575 157 564 q 224 558 224 578 l 224 556 q 215 449 215 492 l 215 178 q 232 116 215 144 q 276 69 249 88 q 332 51 303 51 q 462 88 413 51 q 511 183 511 125 l 511 438 q 482 490 511 475 q 421 507 453 506 q 389 531 389 507 q 401 547 389 542 q 416 551 407 550 q 438 553 425 551 q 531 560 492 553 q 556 564 550 563 q 600 576 565 564 l 603 576 q 621 560 621 576 q 617 546 621 554 q 608 453 608 532 l 608 158 q 633 63 608 63 q 697 67 676 63 q 718 50 718 71 q 699 29 718 29 q 631 16 663 24 q 574 -3 600 8 q 510 -26 518 -26 q 499 -21 499 -26 l 506 71 z "},"ų":{"ha":732,"x_min":40,"x_max":718,"o":"m 653 -287 q 633 -331 653 -304 q 580 -378 613 -357 q 508 -399 547 -399 q 412 -360 450 -399 q 374 -249 374 -322 q 500 -26 374 -140 q 506 79 506 -10 q 276 -19 404 -19 q 162 24 206 -19 q 118 146 118 67 l 118 428 q 58 507 118 485 q 40 531 40 513 q 61 551 40 547 q 121 558 85 553 q 204 575 157 564 q 224 558 224 578 l 224 556 q 215 449 215 492 l 215 178 q 232 116 215 144 q 276 69 249 88 q 332 51 303 51 q 462 88 413 51 q 511 183 511 125 l 511 438 q 482 490 511 475 q 421 507 453 506 q 389 531 389 507 q 401 547 389 542 q 416 551 407 550 q 438 553 425 551 q 531 560 492 553 q 556 564 550 563 q 600 576 565 564 l 603 576 q 621 560 621 576 q 617 546 621 554 q 608 453 608 532 l 608 158 q 633 63 608 63 q 697 67 676 63 q 718 50 718 71 q 699 29 718 29 q 565 -6 628 21 q 476 -211 476 -94 q 500 -281 476 -256 q 553 -307 524 -307 q 599 -299 581 -307 q 629 -285 618 -292 q 642 -278 640 -278 q 653 -287 653 -278 z "},"v":{"ha":608,"x_min":7,"x_max":615,"o":"m 338 32 q 300 -31 307 -31 q 272 24 292 -31 l 103 457 q 39 525 81 513 q 7 550 7 536 q 35 563 7 563 l 136 556 l 240 563 q 268 550 268 563 q 236 525 268 536 q 208 468 208 517 q 214 431 208 443 l 317 154 q 325 139 324 139 q 333 153 328 139 l 433 410 q 443 460 443 433 q 408 525 443 515 q 376 550 376 536 q 404 563 376 563 l 506 556 q 556 560 533 556 q 577 562 567 561 q 597 563 588 563 q 615 550 615 563 q 589 528 615 536 q 537 492 563 518 q 497 432 511 465 l 389 171 l 338 32 z "},"w":{"ha":951,"x_min":7,"x_max":958,"o":"m 325 -22 q 314 -32 319 -32 q 304 -22 306 -32 l 111 457 q 39 525 89 511 q 7 550 7 536 q 35 563 7 563 l 136 556 q 220 560 189 558 q 261 563 251 563 q 279 550 279 563 q 247 525 279 536 q 218 469 218 517 q 220 451 218 460 q 225 433 222 443 l 331 161 q 340 149 335 149 q 351 163 346 149 l 443 386 q 451 436 451 410 q 429 491 451 464 q 379 526 407 518 q 350 550 350 533 q 378 563 350 563 l 482 556 l 599 563 q 626 550 626 563 q 594 525 626 536 q 547 475 547 511 q 557 433 547 454 l 661 165 q 672 151 667 151 q 683 164 679 151 l 789 410 q 799 456 799 429 q 783 500 799 481 q 743 528 768 519 q 718 550 718 536 q 746 563 718 563 l 850 556 l 931 563 q 958 550 958 563 q 926 525 958 536 q 853 433 889 515 l 663 -22 q 651 -32 658 -32 q 639 -22 644 -32 l 494 336 q 486 346 490 346 q 476 335 482 346 l 325 -22 z "},"x":{"ha":597,"x_min":14,"x_max":583,"o":"m 135 1 l 42 -6 q 14 7 14 -6 q 49 33 14 24 q 139 111 85 44 l 257 258 q 264 276 264 268 q 260 290 264 285 l 147 465 q 85 524 118 514 q 51 549 51 532 q 83 561 51 561 l 193 556 l 264 558 q 296 547 296 558 q 269 526 296 535 q 242 503 242 515 q 260 458 242 486 l 315 372 q 326 365 322 358 l 394 469 q 406 501 406 485 q 381 525 406 517 q 356 547 356 533 q 388 560 356 560 l 457 556 q 511 560 486 556 q 534 562 524 561 q 554 563 544 563 q 572 550 572 563 q 540 525 572 536 q 442 460 474 506 l 351 332 q 349 325 349 326 q 353 314 349 321 l 488 90 q 550 33 517 42 q 583 7 583 24 q 556 -6 583 -6 l 439 0 l 338 -1 q 306 11 306 -1 q 344 40 306 28 q 383 72 383 53 q 375 97 383 83 l 300 225 q 289 229 293 236 l 196 93 q 189 63 189 82 q 208 36 189 43 q 240 13 240 25 q 208 -1 240 -1 l 135 1 z "},"y":{"ha":608,"x_min":7,"x_max":615,"o":"m 236 -203 q 198 -299 215 -254 q 157 -369 181 -343 q 89 -396 133 -396 q 40 -382 63 -396 q 18 -346 18 -368 q 56 -304 18 -304 l 111 -312 q 138 -297 126 -312 q 201 -173 169 -242 q 264 -22 233 -104 q 268 13 268 -10 q 263 50 268 38 l 101 457 q 39 525 78 515 q 7 550 7 536 q 35 563 7 563 l 136 556 l 242 563 q 269 547 269 563 q 229 517 269 528 q 201 472 201 508 q 213 433 201 463 l 322 161 q 332 149 326 149 q 343 163 338 149 l 436 410 q 447 469 447 436 q 414 518 447 504 q 379 547 379 532 q 407 563 379 563 l 506 556 l 588 563 q 615 550 615 563 q 589 528 615 536 q 539 492 563 518 q 501 432 515 465 l 313 -18 l 290 -74 q 236 -203 268 -125 z "},"ý":{"ha":608,"x_min":7,"x_max":615,"o":"m 499 869 q 481 840 499 864 q 438 783 464 815 q 387 722 413 751 q 343 672 361 692 q 294 633 308 633 q 281 657 281 633 q 393 876 281 681 q 431 901 408 901 q 499 869 499 901 m 506 556 l 588 563 q 615 550 615 563 q 589 528 615 536 q 539 492 563 518 q 501 432 515 465 l 313 -18 q 306 -33 311 -19 q 290 -74 301 -47 q 236 -203 268 -125 q 198 -299 215 -254 q 157 -369 181 -343 q 89 -396 133 -396 q 40 -382 63 -396 q 18 -346 18 -368 q 56 -304 18 -304 l 111 -312 q 138 -297 126 -312 q 201 -173 169 -242 q 264 -22 233 -104 q 268 13 268 -10 q 263 50 268 38 l 101 457 q 39 525 78 515 q 7 550 7 536 q 35 563 7 563 l 136 556 l 242 563 q 269 547 269 563 q 229 517 269 528 q 201 472 201 508 q 213 433 201 463 l 322 161 q 332 149 326 149 q 343 163 338 149 l 436 410 q 447 469 447 436 q 414 518 447 504 q 379 547 379 532 q 407 563 379 563 l 506 556 z "},"ÿ":{"ha":608,"x_min":7,"x_max":615,"o":"m 407 803 q 454 824 428 824 q 502 802 481 824 q 524 754 524 781 q 502 706 524 728 q 454 685 481 685 q 406 706 428 685 q 385 754 385 728 q 407 803 385 781 m 161 803 q 208 824 182 824 q 256 802 235 824 q 278 754 278 781 q 256 706 278 728 q 208 685 235 685 q 160 706 182 685 q 139 754 139 728 q 161 803 139 781 m 506 556 l 588 563 q 615 550 615 563 q 589 528 615 536 q 539 492 563 518 q 501 432 515 465 l 313 -18 q 306 -33 311 -19 q 290 -74 301 -47 q 236 -203 268 -125 q 198 -299 215 -254 q 157 -369 181 -343 q 89 -396 133 -396 q 40 -382 63 -396 q 18 -346 18 -368 q 56 -304 18 -304 l 111 -312 q 138 -297 126 -312 q 201 -173 169 -242 q 264 -22 233 -104 q 268 13 268 -10 q 263 50 268 38 l 101 457 q 39 525 78 515 q 7 550 7 536 q 35 563 7 563 l 136 556 l 242 563 q 269 547 269 563 q 229 517 269 528 q 201 472 201 508 q 213 433 201 463 l 322 161 q 332 149 326 149 q 343 163 338 149 l 436 410 q 447 469 447 436 q 414 518 447 504 q 379 547 379 532 q 407 563 379 563 l 506 556 z "},"z":{"ha":524,"x_min":35,"x_max":517,"o":"m 165 0 l 54 -7 q 42 2 49 -7 q 35 19 35 11 q 86 97 35 29 q 202 269 138 171 q 344 492 267 368 q 347 499 347 494 q 332 506 347 506 l 169 506 q 128 475 150 506 q 122 466 125 471 q 113 454 118 461 q 100 436 101 438 q 90 423 96 431 q 81 411 85 415 q 60 397 67 397 q 49 415 49 397 q 51 428 49 419 q 75 553 75 486 q 83 570 75 563 q 96 578 90 578 q 114 568 103 578 q 176 557 128 557 l 229 558 q 488 563 361 558 q 497 556 493 563 q 497 546 500 550 q 444 476 468 511 l 176 69 q 175 64 175 68 q 181 53 175 58 q 193 49 188 49 l 356 49 q 410 75 383 49 q 475 156 438 101 q 506 189 492 189 q 517 164 517 189 q 511 126 517 151 q 497 72 506 100 q 481 24 489 44 q 471 0 474 4 q 458 -7 464 -7 l 354 -3 q 258 -1 306 -1 q 165 0 210 0 z "},"ź":{"ha":524,"x_min":35,"x_max":517,"o":"m 453 869 q 435 840 453 864 q 392 783 418 815 q 341 722 367 751 q 297 672 315 692 q 249 633 263 633 q 235 657 235 633 q 347 876 235 681 q 385 901 363 901 q 453 869 453 901 m 229 558 q 488 563 361 558 q 499 550 499 563 q 497 546 499 547 q 444 476 468 511 l 176 69 q 179 56 172 63 q 193 49 186 49 l 356 49 q 410 75 383 49 q 475 156 438 101 q 506 189 492 189 q 517 164 517 189 q 511 126 517 151 q 497 72 506 100 q 481 24 489 44 q 471 0 474 4 q 458 -7 464 -7 q 354 -3 453 -7 q 258 -1 306 -1 q 165 0 210 0 l 54 -7 q 42 2 49 -7 q 35 19 35 11 q 86 97 35 29 q 202 269 138 171 q 344 492 267 368 q 332 506 354 506 l 169 506 q 128 475 150 506 q 122 466 125 471 q 113 454 118 461 q 100 436 101 438 q 90 423 96 431 q 81 411 85 415 q 60 397 67 397 q 49 415 49 397 q 51 428 49 419 q 75 553 75 486 q 83 570 75 563 q 96 578 90 578 q 114 568 103 578 q 176 557 128 557 l 229 558 z "},"ż":{"ha":524,"x_min":35,"x_max":517,"o":"m 282 685 q 231 705 251 685 q 211 756 211 725 q 231 805 211 785 q 282 825 251 825 q 331 805 311 825 q 351 756 351 785 q 331 705 351 725 q 282 685 311 685 m 229 558 q 488 563 361 558 q 499 550 499 563 q 497 546 499 547 q 444 476 468 511 l 176 69 q 179 56 172 63 q 193 49 186 49 l 356 49 q 410 75 383 49 q 475 156 438 101 q 506 189 492 189 q 517 164 517 189 q 511 126 517 151 q 497 72 506 100 q 481 24 489 44 q 471 0 474 4 q 458 -7 464 -7 q 354 -3 453 -7 q 258 -1 306 -1 q 165 0 210 0 l 54 -7 q 42 2 49 -7 q 35 19 35 11 q 86 97 35 29 q 202 269 138 171 q 344 492 267 368 q 332 506 354 506 l 169 506 q 128 475 150 506 q 122 466 125 471 q 113 454 118 461 q 100 436 101 438 q 90 423 96 431 q 81 411 85 415 q 60 397 67 397 q 49 415 49 397 q 51 428 49 419 q 75 553 75 486 q 83 570 75 563 q 96 578 90 578 q 114 568 103 578 q 176 557 128 557 l 229 558 z "},"ž":{"ha":524,"x_min":35,"x_max":517,"o":"m 274 764 q 283 764 278 758 q 415 913 390 913 q 428 892 428 913 q 306 681 428 869 q 278 656 292 656 q 250 681 265 656 q 128 892 128 869 q 142 913 128 913 q 274 764 167 913 m 229 558 q 488 563 361 558 q 499 550 499 563 q 497 546 499 547 q 444 476 468 511 l 176 69 q 179 56 172 63 q 193 49 186 49 l 356 49 q 410 75 383 49 q 475 156 438 101 q 506 189 492 189 q 517 164 517 189 q 511 126 517 151 q 497 72 506 100 q 481 24 489 44 q 471 0 474 4 q 458 -7 464 -7 q 354 -3 453 -7 q 258 -1 306 -1 q 165 0 210 0 l 54 -7 q 42 2 49 -7 q 35 19 35 11 q 86 97 35 29 q 202 269 138 171 q 344 492 267 368 q 332 506 354 506 l 169 506 q 128 475 150 506 q 122 466 125 471 q 113 454 118 461 q 100 436 101 438 q 90 423 96 431 q 81 411 85 415 q 60 397 67 397 q 49 415 49 397 q 51 428 49 419 q 75 553 75 486 q 83 570 75 563 q 96 578 90 578 q 114 568 103 578 q 176 557 128 557 l 229 558 z "},"ß":{"ha":701,"x_min":35,"x_max":660,"o":"m 175 3 l 67 -4 q 35 10 35 -4 q 67 33 35 22 q 125 96 125 53 l 125 486 q 85 487 103 486 q 53 489 68 488 q 43 498 49 490 q 38 513 38 506 q 43 522 38 521 q 125 558 74 531 q 155 758 125 672 q 232 890 185 844 q 421 981 326 981 q 532 955 485 981 q 606 887 579 929 q 632 794 632 844 q 568 657 632 717 l 522 615 q 514 607 519 613 q 500 594 508 601 q 475 569 483 581 q 451 510 451 543 q 478 449 451 474 l 607 324 q 660 201 660 268 q 637 115 660 156 q 583 47 614 75 q 525 4 551 18 q 417 -17 486 -17 q 384 -8 403 -17 q 351 13 365 0 q 336 40 336 26 q 348 90 336 63 q 376 117 360 117 q 389 111 382 117 q 508 61 454 61 q 564 80 540 61 q 588 129 588 99 q 576 183 588 161 q 549 222 564 206 q 528 242 542 229 q 496 272 515 254 l 399 367 q 342 467 342 419 q 362 521 342 496 q 425 581 382 546 q 481 629 454 604 q 526 687 508 654 q 544 764 544 719 q 508 878 544 832 q 379 924 472 924 q 266 858 310 924 q 222 660 222 793 l 222 96 q 281 33 222 53 q 313 10 313 22 q 281 -4 313 -4 l 175 3 z "},"æ":{"ha":756,"x_min":49,"x_max":736,"o":"m 163 415 q 143 396 163 407 q 101 376 124 385 q 69 367 79 367 q 56 379 56 367 q 78 440 56 411 q 135 496 100 469 q 210 543 171 522 q 318 575 269 575 q 368 560 339 575 q 404 532 397 544 q 414 525 408 525 q 422 528 419 525 q 492 560 447 546 q 585 574 538 574 q 651 558 617 574 q 709 513 685 543 q 733 442 733 483 q 726 413 733 421 q 706 397 718 404 q 683 387 699 394 q 640 368 667 379 q 585 344 614 357 q 524 317 556 331 q 470 294 490 303 q 443 282 450 285 q 429 257 429 276 l 429 179 q 551 64 429 64 q 706 131 647 64 q 718 136 711 136 q 736 121 736 136 q 735 115 736 117 q 635 13 686 44 q 504 -19 585 -19 q 357 36 422 -19 q 338 53 340 53 q 331 50 333 53 q 313 35 326 46 q 289 17 300 24 q 260 0 279 11 q 175 -19 224 -19 q 113 -3 142 -19 q 67 38 85 13 q 49 90 49 64 q 150 215 49 169 l 294 281 q 328 300 322 293 q 335 324 335 307 l 335 415 q 312 480 335 453 q 258 507 289 507 q 201 492 228 507 q 168 464 175 476 q 161 435 161 450 l 163 415 m 431 353 q 438 340 431 343 q 468 346 444 335 q 503 359 479 350 q 555 378 528 368 q 603 396 582 388 q 628 406 624 404 q 638 424 638 407 q 632 456 638 440 q 535 525 604 525 q 494 514 518 525 q 451 485 469 503 q 431 446 432 468 l 431 353 m 271 225 q 222 200 247 217 q 178 163 196 183 q 161 119 161 142 q 182 65 160 85 q 238 44 204 44 q 302 72 271 44 q 333 133 333 99 l 333 206 q 322 239 333 239 q 271 225 304 239 z "},"ð":{"ha":676,"x_min":35,"x_max":633,"o":"m 633 347 q 600 180 633 261 q 493 40 567 99 q 311 -19 421 -19 q 176 16 239 -19 q 74 115 113 51 q 35 263 35 179 q 78 417 35 346 q 192 532 121 489 q 349 575 264 575 q 476 543 415 575 q 489 546 489 538 q 489 550 489 547 q 488 556 489 553 q 444 681 468 628 q 393 767 421 733 l 178 656 q 164 656 169 651 q 158 667 158 661 q 169 715 158 708 l 353 811 q 117 942 243 915 q 89 963 89 949 q 125 979 89 979 q 272 944 190 979 q 429 850 354 910 l 569 924 q 592 932 581 932 q 604 922 604 932 q 579 864 604 876 l 475 810 q 633 347 633 642 m 525 306 q 469 468 525 408 q 328 528 414 528 q 231 495 271 528 q 171 408 192 463 q 150 286 150 353 q 177 159 150 219 q 250 60 204 99 q 349 22 296 22 q 441 64 401 22 q 503 171 481 106 q 525 306 525 236 z "},"ø":{"ha":674,"x_min":35,"x_max":642,"o":"m 78 -17 q 65 -21 74 -21 q 45 -12 56 -21 q 35 11 35 -3 q 49 35 35 25 l 104 88 q 42 258 42 169 q 83 417 42 346 q 191 532 124 489 q 336 575 258 575 q 535 501 453 575 l 607 571 q 622 576 613 576 q 642 554 642 576 q 626 519 642 532 l 571 465 q 632 296 632 385 q 595 138 632 210 q 489 23 558 65 q 319 -19 419 -19 q 143 47 225 -19 l 78 -17 m 469 439 q 329 528 411 528 q 202 471 247 528 q 157 292 157 414 q 182 163 157 221 l 469 439 m 208 110 q 349 22 265 22 q 454 52 418 22 q 504 132 490 82 q 518 240 518 182 q 494 390 518 326 l 208 110 z "},"þ":{"ha":701,"x_min":22,"x_max":668,"o":"m 214 536 q 215 483 214 485 q 272 522 233 501 q 356 559 310 543 q 440 575 401 575 q 560 538 510 575 q 640 442 611 501 q 668 313 668 382 q 644 189 668 249 q 576 83 619 129 q 476 8 533 36 q 356 -19 419 -19 q 282 -6 325 -19 q 219 25 239 7 q 216 10 218 25 q 213 -21 214 -4 q 211 -46 211 -37 l 211 -304 q 222 -334 211 -322 q 242 -349 233 -346 l 271 -358 q 303 -382 303 -369 q 275 -396 303 -396 l 271 -396 l 163 -389 l 54 -396 l 50 -396 q 22 -382 22 -396 q 35 -367 22 -374 q 63 -355 49 -360 q 83 -349 78 -350 q 103 -334 92 -346 q 114 -304 114 -322 q 118 46 117 -115 q 119 340 119 207 q 115 786 119 606 q 97 846 114 811 q 50 888 79 881 q 39 906 39 890 q 49 922 39 921 q 117 942 78 929 q 207 978 157 956 l 210 979 q 221 964 221 979 l 214 536 m 376 24 q 473 63 429 24 q 538 153 517 101 q 557 274 557 204 q 537 396 557 343 q 483 472 517 449 q 364 513 424 513 q 259 481 301 513 q 213 374 217 449 l 213 215 q 219 117 213 154 q 251 56 225 81 q 376 24 286 24 z "},"đ":{"ha":703,"x_min":49,"x_max":718,"o":"m 488 71 l 488 79 q 415 10 463 40 q 306 -19 368 -19 q 172 21 231 -19 q 81 127 114 61 q 49 272 49 193 q 88 421 49 351 q 197 533 126 490 q 361 575 268 575 q 403 570 381 575 q 446 558 426 565 q 471 544 465 551 q 485 533 479 533 q 489 567 489 533 l 489 743 l 297 743 q 283 751 289 743 q 278 769 278 760 q 288 785 278 778 q 311 793 299 793 l 489 793 q 472 860 488 842 q 418 888 456 879 q 407 906 407 890 q 417 922 407 921 q 472 938 444 929 q 525 957 499 946 q 588 978 579 978 q 596 972 594 978 q 596 963 596 969 q 594 944 596 956 q 586 793 586 868 l 699 793 q 712 788 706 793 q 718 778 718 783 l 717 776 l 717 774 q 674 743 700 743 l 586 743 l 586 153 q 615 63 586 63 q 679 67 658 63 q 700 50 700 71 q 681 29 700 29 q 613 16 644 24 q 556 -3 582 8 q 492 -26 500 -26 q 481 -21 481 -26 l 488 71 m 318 526 q 228 492 268 526 q 169 410 188 458 q 151 292 151 364 q 174 169 151 222 q 232 90 197 115 q 356 43 296 43 q 451 79 414 43 q 489 167 489 115 l 489 354 q 467 436 489 397 q 408 501 446 475 q 318 526 369 526 z "}}}
